M48
; DRILL file {KiCad 7.0.2-6a45011f42~172~ubuntu22.04.1} date Mon 19 Jun 2023 02:24:17 PM -04
; FORMAT={-:-/ absolute / inch / decimal}
; #@! TF.CreationDate,2023-06-19T14:24:17-04:00
; #@! TF.GenerationSoftware,Kicad,Pcbnew,7.0.2-6a45011f42~172~ubuntu22.04.1
; #@! TF.FileFunction,Plated,1,2,PTH
FMAT,2
INCH
; #@! TA.AperFunction,Plated,PTH,ViaDrill
T1C0.0236
; #@! TA.AperFunction,Plated,PTH,ComponentDrill
T2C0.0350
; #@! TA.AperFunction,Plated,PTH,ComponentDrill
T3C0.0394
; #@! TA.AperFunction,Plated,PTH,ComponentDrill
T4C0.0618
%
G90
G05
T1
X6.005Y-2.785
X6.015Y-2.375
X6.17Y-3.07
X6.255Y-3.02
X6.27Y-2.43
X6.27Y-2.48
X6.28Y-2.18
X6.28Y-2.57
X6.2884Y-2.2316
X6.335Y-2.495
X6.415Y-2.555
X6.42Y-2.85
X6.53Y-2.43
X6.59Y-2.99
X6.61Y-1.83
X6.73Y-2.82
X6.74Y-2.23
X6.74Y-3.4
X7.46Y-3.07
T2
X5.9099Y-2.49
X5.9099Y-2.57
X5.9099Y-2.65
X5.9099Y-2.73
X5.98Y-2.45
X5.98Y-2.53
X5.98Y-2.61
X5.98Y-2.69
X6.1698Y-2.3198
X6.1698Y-2.4099
X6.1698Y-2.7698
X6.1698Y-2.8599
T3
X7.46Y-2.24
X7.46Y-2.34
X7.46Y-2.44
X7.46Y-2.54
X7.46Y-2.64
X7.46Y-2.74
X7.46Y-2.84
X7.46Y-2.94
X7.56Y-2.24
X7.56Y-2.34
X7.56Y-2.44
X7.56Y-2.54
X7.56Y-2.64
X7.56Y-2.74
X7.56Y-2.84
X7.56Y-2.94
T4
X5.945Y-2.2698
X5.945Y-2.9099
T0
M30
