G04 #@! TF.GenerationSoftware,KiCad,Pcbnew,7.0.2-6a45011f42~172~ubuntu22.04.1*
G04 #@! TF.CreationDate,2023-06-19T14:24:24-04:00*
G04 #@! TF.ProjectId,differential_encoder_encoder,64696666-6572-4656-9e74-69616c5f656e,rev?*
G04 #@! TF.SameCoordinates,Original*
G04 #@! TF.FileFunction,Paste,Top*
G04 #@! TF.FilePolarity,Positive*
%FSLAX46Y46*%
G04 Gerber Fmt 4.6, Leading zero omitted, Abs format (unit mm)*
G04 Created by KiCad (PCBNEW 7.0.2-6a45011f42~172~ubuntu22.04.1) date 2023-06-19 14:24:24*
%MOMM*%
%LPD*%
G01*
G04 APERTURE LIST*
G04 APERTURE END LIST*
G04 #@! TO.C,U101*
G36*
G01*
X174856000Y-62336000D02*
X175156000Y-62336000D01*
G75*
G02*
X175306000Y-62486000I0J-150000D01*
G01*
X175306000Y-64136000D01*
G75*
G02*
X175156000Y-64286000I-150000J0D01*
G01*
X174856000Y-64286000D01*
G75*
G02*
X174706000Y-64136000I0J150000D01*
G01*
X174706000Y-62486000D01*
G75*
G02*
X174856000Y-62336000I150000J0D01*
G01*
G37*
G36*
G01*
X173586000Y-62336000D02*
X173886000Y-62336000D01*
G75*
G02*
X174036000Y-62486000I0J-150000D01*
G01*
X174036000Y-64136000D01*
G75*
G02*
X173886000Y-64286000I-150000J0D01*
G01*
X173586000Y-64286000D01*
G75*
G02*
X173436000Y-64136000I0J150000D01*
G01*
X173436000Y-62486000D01*
G75*
G02*
X173586000Y-62336000I150000J0D01*
G01*
G37*
G36*
G01*
X172316000Y-62336000D02*
X172616000Y-62336000D01*
G75*
G02*
X172766000Y-62486000I0J-150000D01*
G01*
X172766000Y-64136000D01*
G75*
G02*
X172616000Y-64286000I-150000J0D01*
G01*
X172316000Y-64286000D01*
G75*
G02*
X172166000Y-64136000I0J150000D01*
G01*
X172166000Y-62486000D01*
G75*
G02*
X172316000Y-62336000I150000J0D01*
G01*
G37*
G36*
G01*
X171046000Y-62336000D02*
X171346000Y-62336000D01*
G75*
G02*
X171496000Y-62486000I0J-150000D01*
G01*
X171496000Y-64136000D01*
G75*
G02*
X171346000Y-64286000I-150000J0D01*
G01*
X171046000Y-64286000D01*
G75*
G02*
X170896000Y-64136000I0J150000D01*
G01*
X170896000Y-62486000D01*
G75*
G02*
X171046000Y-62336000I150000J0D01*
G01*
G37*
G36*
G01*
X169776000Y-62336000D02*
X170076000Y-62336000D01*
G75*
G02*
X170226000Y-62486000I0J-150000D01*
G01*
X170226000Y-64136000D01*
G75*
G02*
X170076000Y-64286000I-150000J0D01*
G01*
X169776000Y-64286000D01*
G75*
G02*
X169626000Y-64136000I0J150000D01*
G01*
X169626000Y-62486000D01*
G75*
G02*
X169776000Y-62336000I150000J0D01*
G01*
G37*
G36*
G01*
X168506000Y-62336000D02*
X168806000Y-62336000D01*
G75*
G02*
X168956000Y-62486000I0J-150000D01*
G01*
X168956000Y-64136000D01*
G75*
G02*
X168806000Y-64286000I-150000J0D01*
G01*
X168506000Y-64286000D01*
G75*
G02*
X168356000Y-64136000I0J150000D01*
G01*
X168356000Y-62486000D01*
G75*
G02*
X168506000Y-62336000I150000J0D01*
G01*
G37*
G36*
G01*
X167236000Y-62336000D02*
X167536000Y-62336000D01*
G75*
G02*
X167686000Y-62486000I0J-150000D01*
G01*
X167686000Y-64136000D01*
G75*
G02*
X167536000Y-64286000I-150000J0D01*
G01*
X167236000Y-64286000D01*
G75*
G02*
X167086000Y-64136000I0J150000D01*
G01*
X167086000Y-62486000D01*
G75*
G02*
X167236000Y-62336000I150000J0D01*
G01*
G37*
G36*
G01*
X167236000Y-67286000D02*
X167536000Y-67286000D01*
G75*
G02*
X167686000Y-67436000I0J-150000D01*
G01*
X167686000Y-69086000D01*
G75*
G02*
X167536000Y-69236000I-150000J0D01*
G01*
X167236000Y-69236000D01*
G75*
G02*
X167086000Y-69086000I0J150000D01*
G01*
X167086000Y-67436000D01*
G75*
G02*
X167236000Y-67286000I150000J0D01*
G01*
G37*
G36*
G01*
X168506000Y-67286000D02*
X168806000Y-67286000D01*
G75*
G02*
X168956000Y-67436000I0J-150000D01*
G01*
X168956000Y-69086000D01*
G75*
G02*
X168806000Y-69236000I-150000J0D01*
G01*
X168506000Y-69236000D01*
G75*
G02*
X168356000Y-69086000I0J150000D01*
G01*
X168356000Y-67436000D01*
G75*
G02*
X168506000Y-67286000I150000J0D01*
G01*
G37*
G36*
G01*
X169776000Y-67286000D02*
X170076000Y-67286000D01*
G75*
G02*
X170226000Y-67436000I0J-150000D01*
G01*
X170226000Y-69086000D01*
G75*
G02*
X170076000Y-69236000I-150000J0D01*
G01*
X169776000Y-69236000D01*
G75*
G02*
X169626000Y-69086000I0J150000D01*
G01*
X169626000Y-67436000D01*
G75*
G02*
X169776000Y-67286000I150000J0D01*
G01*
G37*
G36*
G01*
X171046000Y-67286000D02*
X171346000Y-67286000D01*
G75*
G02*
X171496000Y-67436000I0J-150000D01*
G01*
X171496000Y-69086000D01*
G75*
G02*
X171346000Y-69236000I-150000J0D01*
G01*
X171046000Y-69236000D01*
G75*
G02*
X170896000Y-69086000I0J150000D01*
G01*
X170896000Y-67436000D01*
G75*
G02*
X171046000Y-67286000I150000J0D01*
G01*
G37*
G36*
G01*
X172316000Y-67286000D02*
X172616000Y-67286000D01*
G75*
G02*
X172766000Y-67436000I0J-150000D01*
G01*
X172766000Y-69086000D01*
G75*
G02*
X172616000Y-69236000I-150000J0D01*
G01*
X172316000Y-69236000D01*
G75*
G02*
X172166000Y-69086000I0J150000D01*
G01*
X172166000Y-67436000D01*
G75*
G02*
X172316000Y-67286000I150000J0D01*
G01*
G37*
G36*
G01*
X173586000Y-67286000D02*
X173886000Y-67286000D01*
G75*
G02*
X174036000Y-67436000I0J-150000D01*
G01*
X174036000Y-69086000D01*
G75*
G02*
X173886000Y-69236000I-150000J0D01*
G01*
X173586000Y-69236000D01*
G75*
G02*
X173436000Y-69086000I0J150000D01*
G01*
X173436000Y-67436000D01*
G75*
G02*
X173586000Y-67286000I150000J0D01*
G01*
G37*
G36*
G01*
X174856000Y-67286000D02*
X175156000Y-67286000D01*
G75*
G02*
X175306000Y-67436000I0J-150000D01*
G01*
X175306000Y-69086000D01*
G75*
G02*
X175156000Y-69236000I-150000J0D01*
G01*
X174856000Y-69236000D01*
G75*
G02*
X174706000Y-69086000I0J150000D01*
G01*
X174706000Y-67436000D01*
G75*
G02*
X174856000Y-67286000I150000J0D01*
G01*
G37*
G04 #@! TD*
G04 #@! TO.C,C102*
G36*
G01*
X175534900Y-56305200D02*
X175534900Y-57255200D01*
G75*
G02*
X175284900Y-57505200I-250000J0D01*
G01*
X174609900Y-57505200D01*
G75*
G02*
X174359900Y-57255200I0J250000D01*
G01*
X174359900Y-56305200D01*
G75*
G02*
X174609900Y-56055200I250000J0D01*
G01*
X175284900Y-56055200D01*
G75*
G02*
X175534900Y-56305200I0J-250000D01*
G01*
G37*
G36*
G01*
X173459900Y-56305200D02*
X173459900Y-57255200D01*
G75*
G02*
X173209900Y-57505200I-250000J0D01*
G01*
X172534900Y-57505200D01*
G75*
G02*
X172284900Y-57255200I0J250000D01*
G01*
X172284900Y-56305200D01*
G75*
G02*
X172534900Y-56055200I250000J0D01*
G01*
X173209900Y-56055200D01*
G75*
G02*
X173459900Y-56305200I0J-250000D01*
G01*
G37*
G04 #@! TD*
G04 #@! TO.C,R103*
G36*
G01*
X163128000Y-58478000D02*
X163128000Y-59378000D01*
G75*
G02*
X162878000Y-59628000I-250000J0D01*
G01*
X162178000Y-59628000D01*
G75*
G02*
X161928000Y-59378000I0J250000D01*
G01*
X161928000Y-58478000D01*
G75*
G02*
X162178000Y-58228000I250000J0D01*
G01*
X162878000Y-58228000D01*
G75*
G02*
X163128000Y-58478000I0J-250000D01*
G01*
G37*
G36*
G01*
X161128000Y-58478000D02*
X161128000Y-59378000D01*
G75*
G02*
X160878000Y-59628000I-250000J0D01*
G01*
X160178000Y-59628000D01*
G75*
G02*
X159928000Y-59378000I0J250000D01*
G01*
X159928000Y-58478000D01*
G75*
G02*
X160178000Y-58228000I250000J0D01*
G01*
X160878000Y-58228000D01*
G75*
G02*
X161128000Y-58478000I0J-250000D01*
G01*
G37*
G04 #@! TD*
G04 #@! TO.C,R102*
G36*
G01*
X163128000Y-69654000D02*
X163128000Y-70554000D01*
G75*
G02*
X162878000Y-70804000I-250000J0D01*
G01*
X162178000Y-70804000D01*
G75*
G02*
X161928000Y-70554000I0J250000D01*
G01*
X161928000Y-69654000D01*
G75*
G02*
X162178000Y-69404000I250000J0D01*
G01*
X162878000Y-69404000D01*
G75*
G02*
X163128000Y-69654000I0J-250000D01*
G01*
G37*
G36*
G01*
X161128000Y-69654000D02*
X161128000Y-70554000D01*
G75*
G02*
X160878000Y-70804000I-250000J0D01*
G01*
X160178000Y-70804000D01*
G75*
G02*
X159928000Y-70554000I0J250000D01*
G01*
X159928000Y-69654000D01*
G75*
G02*
X160178000Y-69404000I250000J0D01*
G01*
X160878000Y-69404000D01*
G75*
G02*
X161128000Y-69654000I0J-250000D01*
G01*
G37*
G04 #@! TD*
G04 #@! TO.C,R105*
G36*
G01*
X175504400Y-74618200D02*
X175504400Y-75518200D01*
G75*
G02*
X175254400Y-75768200I-250000J0D01*
G01*
X174554400Y-75768200D01*
G75*
G02*
X174304400Y-75518200I0J250000D01*
G01*
X174304400Y-74618200D01*
G75*
G02*
X174554400Y-74368200I250000J0D01*
G01*
X175254400Y-74368200D01*
G75*
G02*
X175504400Y-74618200I0J-250000D01*
G01*
G37*
G36*
G01*
X173504400Y-74618200D02*
X173504400Y-75518200D01*
G75*
G02*
X173254400Y-75768200I-250000J0D01*
G01*
X172554400Y-75768200D01*
G75*
G02*
X172304400Y-75518200I0J250000D01*
G01*
X172304400Y-74618200D01*
G75*
G02*
X172554400Y-74368200I250000J0D01*
G01*
X173254400Y-74368200D01*
G75*
G02*
X173504400Y-74618200I0J-250000D01*
G01*
G37*
G04 #@! TD*
G04 #@! TO.C,U103*
G36*
G01*
X174856000Y-77068000D02*
X175156000Y-77068000D01*
G75*
G02*
X175306000Y-77218000I0J-150000D01*
G01*
X175306000Y-78868000D01*
G75*
G02*
X175156000Y-79018000I-150000J0D01*
G01*
X174856000Y-79018000D01*
G75*
G02*
X174706000Y-78868000I0J150000D01*
G01*
X174706000Y-77218000D01*
G75*
G02*
X174856000Y-77068000I150000J0D01*
G01*
G37*
G36*
G01*
X173586000Y-77068000D02*
X173886000Y-77068000D01*
G75*
G02*
X174036000Y-77218000I0J-150000D01*
G01*
X174036000Y-78868000D01*
G75*
G02*
X173886000Y-79018000I-150000J0D01*
G01*
X173586000Y-79018000D01*
G75*
G02*
X173436000Y-78868000I0J150000D01*
G01*
X173436000Y-77218000D01*
G75*
G02*
X173586000Y-77068000I150000J0D01*
G01*
G37*
G36*
G01*
X172316000Y-77068000D02*
X172616000Y-77068000D01*
G75*
G02*
X172766000Y-77218000I0J-150000D01*
G01*
X172766000Y-78868000D01*
G75*
G02*
X172616000Y-79018000I-150000J0D01*
G01*
X172316000Y-79018000D01*
G75*
G02*
X172166000Y-78868000I0J150000D01*
G01*
X172166000Y-77218000D01*
G75*
G02*
X172316000Y-77068000I150000J0D01*
G01*
G37*
G36*
G01*
X171046000Y-77068000D02*
X171346000Y-77068000D01*
G75*
G02*
X171496000Y-77218000I0J-150000D01*
G01*
X171496000Y-78868000D01*
G75*
G02*
X171346000Y-79018000I-150000J0D01*
G01*
X171046000Y-79018000D01*
G75*
G02*
X170896000Y-78868000I0J150000D01*
G01*
X170896000Y-77218000D01*
G75*
G02*
X171046000Y-77068000I150000J0D01*
G01*
G37*
G36*
G01*
X169776000Y-77068000D02*
X170076000Y-77068000D01*
G75*
G02*
X170226000Y-77218000I0J-150000D01*
G01*
X170226000Y-78868000D01*
G75*
G02*
X170076000Y-79018000I-150000J0D01*
G01*
X169776000Y-79018000D01*
G75*
G02*
X169626000Y-78868000I0J150000D01*
G01*
X169626000Y-77218000D01*
G75*
G02*
X169776000Y-77068000I150000J0D01*
G01*
G37*
G36*
G01*
X168506000Y-77068000D02*
X168806000Y-77068000D01*
G75*
G02*
X168956000Y-77218000I0J-150000D01*
G01*
X168956000Y-78868000D01*
G75*
G02*
X168806000Y-79018000I-150000J0D01*
G01*
X168506000Y-79018000D01*
G75*
G02*
X168356000Y-78868000I0J150000D01*
G01*
X168356000Y-77218000D01*
G75*
G02*
X168506000Y-77068000I150000J0D01*
G01*
G37*
G36*
G01*
X167236000Y-77068000D02*
X167536000Y-77068000D01*
G75*
G02*
X167686000Y-77218000I0J-150000D01*
G01*
X167686000Y-78868000D01*
G75*
G02*
X167536000Y-79018000I-150000J0D01*
G01*
X167236000Y-79018000D01*
G75*
G02*
X167086000Y-78868000I0J150000D01*
G01*
X167086000Y-77218000D01*
G75*
G02*
X167236000Y-77068000I150000J0D01*
G01*
G37*
G36*
G01*
X167236000Y-82018000D02*
X167536000Y-82018000D01*
G75*
G02*
X167686000Y-82168000I0J-150000D01*
G01*
X167686000Y-83818000D01*
G75*
G02*
X167536000Y-83968000I-150000J0D01*
G01*
X167236000Y-83968000D01*
G75*
G02*
X167086000Y-83818000I0J150000D01*
G01*
X167086000Y-82168000D01*
G75*
G02*
X167236000Y-82018000I150000J0D01*
G01*
G37*
G36*
G01*
X168506000Y-82018000D02*
X168806000Y-82018000D01*
G75*
G02*
X168956000Y-82168000I0J-150000D01*
G01*
X168956000Y-83818000D01*
G75*
G02*
X168806000Y-83968000I-150000J0D01*
G01*
X168506000Y-83968000D01*
G75*
G02*
X168356000Y-83818000I0J150000D01*
G01*
X168356000Y-82168000D01*
G75*
G02*
X168506000Y-82018000I150000J0D01*
G01*
G37*
G36*
G01*
X169776000Y-82018000D02*
X170076000Y-82018000D01*
G75*
G02*
X170226000Y-82168000I0J-150000D01*
G01*
X170226000Y-83818000D01*
G75*
G02*
X170076000Y-83968000I-150000J0D01*
G01*
X169776000Y-83968000D01*
G75*
G02*
X169626000Y-83818000I0J150000D01*
G01*
X169626000Y-82168000D01*
G75*
G02*
X169776000Y-82018000I150000J0D01*
G01*
G37*
G36*
G01*
X171046000Y-82018000D02*
X171346000Y-82018000D01*
G75*
G02*
X171496000Y-82168000I0J-150000D01*
G01*
X171496000Y-83818000D01*
G75*
G02*
X171346000Y-83968000I-150000J0D01*
G01*
X171046000Y-83968000D01*
G75*
G02*
X170896000Y-83818000I0J150000D01*
G01*
X170896000Y-82168000D01*
G75*
G02*
X171046000Y-82018000I150000J0D01*
G01*
G37*
G36*
G01*
X172316000Y-82018000D02*
X172616000Y-82018000D01*
G75*
G02*
X172766000Y-82168000I0J-150000D01*
G01*
X172766000Y-83818000D01*
G75*
G02*
X172616000Y-83968000I-150000J0D01*
G01*
X172316000Y-83968000D01*
G75*
G02*
X172166000Y-83818000I0J150000D01*
G01*
X172166000Y-82168000D01*
G75*
G02*
X172316000Y-82018000I150000J0D01*
G01*
G37*
G36*
G01*
X173586000Y-82018000D02*
X173886000Y-82018000D01*
G75*
G02*
X174036000Y-82168000I0J-150000D01*
G01*
X174036000Y-83818000D01*
G75*
G02*
X173886000Y-83968000I-150000J0D01*
G01*
X173586000Y-83968000D01*
G75*
G02*
X173436000Y-83818000I0J150000D01*
G01*
X173436000Y-82168000D01*
G75*
G02*
X173586000Y-82018000I150000J0D01*
G01*
G37*
G36*
G01*
X174856000Y-82018000D02*
X175156000Y-82018000D01*
G75*
G02*
X175306000Y-82168000I0J-150000D01*
G01*
X175306000Y-83818000D01*
G75*
G02*
X175156000Y-83968000I-150000J0D01*
G01*
X174856000Y-83968000D01*
G75*
G02*
X174706000Y-83818000I0J150000D01*
G01*
X174706000Y-82168000D01*
G75*
G02*
X174856000Y-82018000I150000J0D01*
G01*
G37*
G04 #@! TD*
G04 #@! TO.C,U102*
G36*
G01*
X174856000Y-47604000D02*
X175156000Y-47604000D01*
G75*
G02*
X175306000Y-47754000I0J-150000D01*
G01*
X175306000Y-49404000D01*
G75*
G02*
X175156000Y-49554000I-150000J0D01*
G01*
X174856000Y-49554000D01*
G75*
G02*
X174706000Y-49404000I0J150000D01*
G01*
X174706000Y-47754000D01*
G75*
G02*
X174856000Y-47604000I150000J0D01*
G01*
G37*
G36*
G01*
X173586000Y-47604000D02*
X173886000Y-47604000D01*
G75*
G02*
X174036000Y-47754000I0J-150000D01*
G01*
X174036000Y-49404000D01*
G75*
G02*
X173886000Y-49554000I-150000J0D01*
G01*
X173586000Y-49554000D01*
G75*
G02*
X173436000Y-49404000I0J150000D01*
G01*
X173436000Y-47754000D01*
G75*
G02*
X173586000Y-47604000I150000J0D01*
G01*
G37*
G36*
G01*
X172316000Y-47604000D02*
X172616000Y-47604000D01*
G75*
G02*
X172766000Y-47754000I0J-150000D01*
G01*
X172766000Y-49404000D01*
G75*
G02*
X172616000Y-49554000I-150000J0D01*
G01*
X172316000Y-49554000D01*
G75*
G02*
X172166000Y-49404000I0J150000D01*
G01*
X172166000Y-47754000D01*
G75*
G02*
X172316000Y-47604000I150000J0D01*
G01*
G37*
G36*
G01*
X171046000Y-47604000D02*
X171346000Y-47604000D01*
G75*
G02*
X171496000Y-47754000I0J-150000D01*
G01*
X171496000Y-49404000D01*
G75*
G02*
X171346000Y-49554000I-150000J0D01*
G01*
X171046000Y-49554000D01*
G75*
G02*
X170896000Y-49404000I0J150000D01*
G01*
X170896000Y-47754000D01*
G75*
G02*
X171046000Y-47604000I150000J0D01*
G01*
G37*
G36*
G01*
X169776000Y-47604000D02*
X170076000Y-47604000D01*
G75*
G02*
X170226000Y-47754000I0J-150000D01*
G01*
X170226000Y-49404000D01*
G75*
G02*
X170076000Y-49554000I-150000J0D01*
G01*
X169776000Y-49554000D01*
G75*
G02*
X169626000Y-49404000I0J150000D01*
G01*
X169626000Y-47754000D01*
G75*
G02*
X169776000Y-47604000I150000J0D01*
G01*
G37*
G36*
G01*
X168506000Y-47604000D02*
X168806000Y-47604000D01*
G75*
G02*
X168956000Y-47754000I0J-150000D01*
G01*
X168956000Y-49404000D01*
G75*
G02*
X168806000Y-49554000I-150000J0D01*
G01*
X168506000Y-49554000D01*
G75*
G02*
X168356000Y-49404000I0J150000D01*
G01*
X168356000Y-47754000D01*
G75*
G02*
X168506000Y-47604000I150000J0D01*
G01*
G37*
G36*
G01*
X167236000Y-47604000D02*
X167536000Y-47604000D01*
G75*
G02*
X167686000Y-47754000I0J-150000D01*
G01*
X167686000Y-49404000D01*
G75*
G02*
X167536000Y-49554000I-150000J0D01*
G01*
X167236000Y-49554000D01*
G75*
G02*
X167086000Y-49404000I0J150000D01*
G01*
X167086000Y-47754000D01*
G75*
G02*
X167236000Y-47604000I150000J0D01*
G01*
G37*
G36*
G01*
X167236000Y-52554000D02*
X167536000Y-52554000D01*
G75*
G02*
X167686000Y-52704000I0J-150000D01*
G01*
X167686000Y-54354000D01*
G75*
G02*
X167536000Y-54504000I-150000J0D01*
G01*
X167236000Y-54504000D01*
G75*
G02*
X167086000Y-54354000I0J150000D01*
G01*
X167086000Y-52704000D01*
G75*
G02*
X167236000Y-52554000I150000J0D01*
G01*
G37*
G36*
G01*
X168506000Y-52554000D02*
X168806000Y-52554000D01*
G75*
G02*
X168956000Y-52704000I0J-150000D01*
G01*
X168956000Y-54354000D01*
G75*
G02*
X168806000Y-54504000I-150000J0D01*
G01*
X168506000Y-54504000D01*
G75*
G02*
X168356000Y-54354000I0J150000D01*
G01*
X168356000Y-52704000D01*
G75*
G02*
X168506000Y-52554000I150000J0D01*
G01*
G37*
G36*
G01*
X169776000Y-52554000D02*
X170076000Y-52554000D01*
G75*
G02*
X170226000Y-52704000I0J-150000D01*
G01*
X170226000Y-54354000D01*
G75*
G02*
X170076000Y-54504000I-150000J0D01*
G01*
X169776000Y-54504000D01*
G75*
G02*
X169626000Y-54354000I0J150000D01*
G01*
X169626000Y-52704000D01*
G75*
G02*
X169776000Y-52554000I150000J0D01*
G01*
G37*
G36*
G01*
X171046000Y-52554000D02*
X171346000Y-52554000D01*
G75*
G02*
X171496000Y-52704000I0J-150000D01*
G01*
X171496000Y-54354000D01*
G75*
G02*
X171346000Y-54504000I-150000J0D01*
G01*
X171046000Y-54504000D01*
G75*
G02*
X170896000Y-54354000I0J150000D01*
G01*
X170896000Y-52704000D01*
G75*
G02*
X171046000Y-52554000I150000J0D01*
G01*
G37*
G36*
G01*
X172316000Y-52554000D02*
X172616000Y-52554000D01*
G75*
G02*
X172766000Y-52704000I0J-150000D01*
G01*
X172766000Y-54354000D01*
G75*
G02*
X172616000Y-54504000I-150000J0D01*
G01*
X172316000Y-54504000D01*
G75*
G02*
X172166000Y-54354000I0J150000D01*
G01*
X172166000Y-52704000D01*
G75*
G02*
X172316000Y-52554000I150000J0D01*
G01*
G37*
G36*
G01*
X173586000Y-52554000D02*
X173886000Y-52554000D01*
G75*
G02*
X174036000Y-52704000I0J-150000D01*
G01*
X174036000Y-54354000D01*
G75*
G02*
X173886000Y-54504000I-150000J0D01*
G01*
X173586000Y-54504000D01*
G75*
G02*
X173436000Y-54354000I0J150000D01*
G01*
X173436000Y-52704000D01*
G75*
G02*
X173586000Y-52554000I150000J0D01*
G01*
G37*
G36*
G01*
X174856000Y-52554000D02*
X175156000Y-52554000D01*
G75*
G02*
X175306000Y-52704000I0J-150000D01*
G01*
X175306000Y-54354000D01*
G75*
G02*
X175156000Y-54504000I-150000J0D01*
G01*
X174856000Y-54504000D01*
G75*
G02*
X174706000Y-54354000I0J150000D01*
G01*
X174706000Y-52704000D01*
G75*
G02*
X174856000Y-52554000I150000J0D01*
G01*
G37*
G04 #@! TD*
G04 #@! TO.C,R104*
G36*
G01*
X175488400Y-45154200D02*
X175488400Y-46054200D01*
G75*
G02*
X175238400Y-46304200I-250000J0D01*
G01*
X174538400Y-46304200D01*
G75*
G02*
X174288400Y-46054200I0J250000D01*
G01*
X174288400Y-45154200D01*
G75*
G02*
X174538400Y-44904200I250000J0D01*
G01*
X175238400Y-44904200D01*
G75*
G02*
X175488400Y-45154200I0J-250000D01*
G01*
G37*
G36*
G01*
X173488400Y-45154200D02*
X173488400Y-46054200D01*
G75*
G02*
X173238400Y-46304200I-250000J0D01*
G01*
X172538400Y-46304200D01*
G75*
G02*
X172288400Y-46054200I0J250000D01*
G01*
X172288400Y-45154200D01*
G75*
G02*
X172538400Y-44904200I250000J0D01*
G01*
X173238400Y-44904200D01*
G75*
G02*
X173488400Y-45154200I0J-250000D01*
G01*
G37*
G04 #@! TD*
G04 #@! TO.C,C103*
G36*
G01*
X175534900Y-85769200D02*
X175534900Y-86719200D01*
G75*
G02*
X175284900Y-86969200I-250000J0D01*
G01*
X174609900Y-86969200D01*
G75*
G02*
X174359900Y-86719200I0J250000D01*
G01*
X174359900Y-85769200D01*
G75*
G02*
X174609900Y-85519200I250000J0D01*
G01*
X175284900Y-85519200D01*
G75*
G02*
X175534900Y-85769200I0J-250000D01*
G01*
G37*
G36*
G01*
X173459900Y-85769200D02*
X173459900Y-86719200D01*
G75*
G02*
X173209900Y-86969200I-250000J0D01*
G01*
X172534900Y-86969200D01*
G75*
G02*
X172284900Y-86719200I0J250000D01*
G01*
X172284900Y-85769200D01*
G75*
G02*
X172534900Y-85519200I250000J0D01*
G01*
X173209900Y-85519200D01*
G75*
G02*
X173459900Y-85769200I0J-250000D01*
G01*
G37*
G04 #@! TD*
G04 #@! TO.C,R101*
G36*
G01*
X175488400Y-59886200D02*
X175488400Y-60786200D01*
G75*
G02*
X175238400Y-61036200I-250000J0D01*
G01*
X174538400Y-61036200D01*
G75*
G02*
X174288400Y-60786200I0J250000D01*
G01*
X174288400Y-59886200D01*
G75*
G02*
X174538400Y-59636200I250000J0D01*
G01*
X175238400Y-59636200D01*
G75*
G02*
X175488400Y-59886200I0J-250000D01*
G01*
G37*
G36*
G01*
X173488400Y-59886200D02*
X173488400Y-60786200D01*
G75*
G02*
X173238400Y-61036200I-250000J0D01*
G01*
X172538400Y-61036200D01*
G75*
G02*
X172288400Y-60786200I0J250000D01*
G01*
X172288400Y-59886200D01*
G75*
G02*
X172538400Y-59636200I250000J0D01*
G01*
X173238400Y-59636200D01*
G75*
G02*
X173488400Y-59886200I0J-250000D01*
G01*
G37*
G04 #@! TD*
G04 #@! TO.C,C101*
G36*
G01*
X175534900Y-71037200D02*
X175534900Y-71987200D01*
G75*
G02*
X175284900Y-72237200I-250000J0D01*
G01*
X174609900Y-72237200D01*
G75*
G02*
X174359900Y-71987200I0J250000D01*
G01*
X174359900Y-71037200D01*
G75*
G02*
X174609900Y-70787200I250000J0D01*
G01*
X175284900Y-70787200D01*
G75*
G02*
X175534900Y-71037200I0J-250000D01*
G01*
G37*
G36*
G01*
X173459900Y-71037200D02*
X173459900Y-71987200D01*
G75*
G02*
X173209900Y-72237200I-250000J0D01*
G01*
X172534900Y-72237200D01*
G75*
G02*
X172284900Y-71987200I0J250000D01*
G01*
X172284900Y-71037200D01*
G75*
G02*
X172534900Y-70787200I250000J0D01*
G01*
X173209900Y-70787200D01*
G75*
G02*
X173459900Y-71037200I0J-250000D01*
G01*
G37*
G04 #@! TD*
M02*
