G04 #@! TF.GenerationSoftware,KiCad,Pcbnew,7.0.2-6a45011f42~172~ubuntu22.04.1*
G04 #@! TF.CreationDate,2023-06-19T14:24:24-04:00*
G04 #@! TF.ProjectId,differential_encoder_encoder,64696666-6572-4656-9e74-69616c5f656e,rev?*
G04 #@! TF.SameCoordinates,Original*
G04 #@! TF.FileFunction,Legend,Top*
G04 #@! TF.FilePolarity,Positive*
%FSLAX46Y46*%
G04 Gerber Fmt 4.6, Leading zero omitted, Abs format (unit mm)*
G04 Created by KiCad (PCBNEW 7.0.2-6a45011f42~172~ubuntu22.04.1) date 2023-06-19 14:24:24*
%MOMM*%
%LPD*%
G01*
G04 APERTURE LIST*
%ADD10C,0.150000*%
%ADD11C,0.120000*%
G04 APERTURE END LIST*
D10*
G04 #@! TO.C,U101*
X175938619Y-67500285D02*
X176748142Y-67500285D01*
X176748142Y-67500285D02*
X176843380Y-67452666D01*
X176843380Y-67452666D02*
X176891000Y-67405047D01*
X176891000Y-67405047D02*
X176938619Y-67309809D01*
X176938619Y-67309809D02*
X176938619Y-67119333D01*
X176938619Y-67119333D02*
X176891000Y-67024095D01*
X176891000Y-67024095D02*
X176843380Y-66976476D01*
X176843380Y-66976476D02*
X176748142Y-66928857D01*
X176748142Y-66928857D02*
X175938619Y-66928857D01*
X176938619Y-65928857D02*
X176938619Y-66500285D01*
X176938619Y-66214571D02*
X175938619Y-66214571D01*
X175938619Y-66214571D02*
X176081476Y-66309809D01*
X176081476Y-66309809D02*
X176176714Y-66405047D01*
X176176714Y-66405047D02*
X176224333Y-66500285D01*
X175938619Y-65309809D02*
X175938619Y-65214571D01*
X175938619Y-65214571D02*
X175986238Y-65119333D01*
X175986238Y-65119333D02*
X176033857Y-65071714D01*
X176033857Y-65071714D02*
X176129095Y-65024095D01*
X176129095Y-65024095D02*
X176319571Y-64976476D01*
X176319571Y-64976476D02*
X176557666Y-64976476D01*
X176557666Y-64976476D02*
X176748142Y-65024095D01*
X176748142Y-65024095D02*
X176843380Y-65071714D01*
X176843380Y-65071714D02*
X176891000Y-65119333D01*
X176891000Y-65119333D02*
X176938619Y-65214571D01*
X176938619Y-65214571D02*
X176938619Y-65309809D01*
X176938619Y-65309809D02*
X176891000Y-65405047D01*
X176891000Y-65405047D02*
X176843380Y-65452666D01*
X176843380Y-65452666D02*
X176748142Y-65500285D01*
X176748142Y-65500285D02*
X176557666Y-65547904D01*
X176557666Y-65547904D02*
X176319571Y-65547904D01*
X176319571Y-65547904D02*
X176129095Y-65500285D01*
X176129095Y-65500285D02*
X176033857Y-65452666D01*
X176033857Y-65452666D02*
X175986238Y-65405047D01*
X175986238Y-65405047D02*
X175938619Y-65309809D01*
X176938619Y-64024095D02*
X176938619Y-64595523D01*
X176938619Y-64309809D02*
X175938619Y-64309809D01*
X175938619Y-64309809D02*
X176081476Y-64405047D01*
X176081476Y-64405047D02*
X176176714Y-64500285D01*
X176176714Y-64500285D02*
X176224333Y-64595523D01*
G04 #@! TO.C,J101*
X140074619Y-67067714D02*
X140788904Y-67067714D01*
X140788904Y-67067714D02*
X140931761Y-67115333D01*
X140931761Y-67115333D02*
X141027000Y-67210571D01*
X141027000Y-67210571D02*
X141074619Y-67353428D01*
X141074619Y-67353428D02*
X141074619Y-67448666D01*
X141074619Y-66067714D02*
X141074619Y-66639142D01*
X141074619Y-66353428D02*
X140074619Y-66353428D01*
X140074619Y-66353428D02*
X140217476Y-66448666D01*
X140217476Y-66448666D02*
X140312714Y-66543904D01*
X140312714Y-66543904D02*
X140360333Y-66639142D01*
X140074619Y-65448666D02*
X140074619Y-65353428D01*
X140074619Y-65353428D02*
X140122238Y-65258190D01*
X140122238Y-65258190D02*
X140169857Y-65210571D01*
X140169857Y-65210571D02*
X140265095Y-65162952D01*
X140265095Y-65162952D02*
X140455571Y-65115333D01*
X140455571Y-65115333D02*
X140693666Y-65115333D01*
X140693666Y-65115333D02*
X140884142Y-65162952D01*
X140884142Y-65162952D02*
X140979380Y-65210571D01*
X140979380Y-65210571D02*
X141027000Y-65258190D01*
X141027000Y-65258190D02*
X141074619Y-65353428D01*
X141074619Y-65353428D02*
X141074619Y-65448666D01*
X141074619Y-65448666D02*
X141027000Y-65543904D01*
X141027000Y-65543904D02*
X140979380Y-65591523D01*
X140979380Y-65591523D02*
X140884142Y-65639142D01*
X140884142Y-65639142D02*
X140693666Y-65686761D01*
X140693666Y-65686761D02*
X140455571Y-65686761D01*
X140455571Y-65686761D02*
X140265095Y-65639142D01*
X140265095Y-65639142D02*
X140169857Y-65591523D01*
X140169857Y-65591523D02*
X140122238Y-65543904D01*
X140122238Y-65543904D02*
X140074619Y-65448666D01*
X141074619Y-64162952D02*
X141074619Y-64734380D01*
X141074619Y-64448666D02*
X140074619Y-64448666D01*
X140074619Y-64448666D02*
X140217476Y-64543904D01*
X140217476Y-64543904D02*
X140312714Y-64639142D01*
X140312714Y-64639142D02*
X140360333Y-64734380D01*
G04 #@! TO.C,C102*
X168472852Y-56893580D02*
X168425233Y-56941200D01*
X168425233Y-56941200D02*
X168282376Y-56988819D01*
X168282376Y-56988819D02*
X168187138Y-56988819D01*
X168187138Y-56988819D02*
X168044281Y-56941200D01*
X168044281Y-56941200D02*
X167949043Y-56845961D01*
X167949043Y-56845961D02*
X167901424Y-56750723D01*
X167901424Y-56750723D02*
X167853805Y-56560247D01*
X167853805Y-56560247D02*
X167853805Y-56417390D01*
X167853805Y-56417390D02*
X167901424Y-56226914D01*
X167901424Y-56226914D02*
X167949043Y-56131676D01*
X167949043Y-56131676D02*
X168044281Y-56036438D01*
X168044281Y-56036438D02*
X168187138Y-55988819D01*
X168187138Y-55988819D02*
X168282376Y-55988819D01*
X168282376Y-55988819D02*
X168425233Y-56036438D01*
X168425233Y-56036438D02*
X168472852Y-56084057D01*
X169425233Y-56988819D02*
X168853805Y-56988819D01*
X169139519Y-56988819D02*
X169139519Y-55988819D01*
X169139519Y-55988819D02*
X169044281Y-56131676D01*
X169044281Y-56131676D02*
X168949043Y-56226914D01*
X168949043Y-56226914D02*
X168853805Y-56274533D01*
X170044281Y-55988819D02*
X170139519Y-55988819D01*
X170139519Y-55988819D02*
X170234757Y-56036438D01*
X170234757Y-56036438D02*
X170282376Y-56084057D01*
X170282376Y-56084057D02*
X170329995Y-56179295D01*
X170329995Y-56179295D02*
X170377614Y-56369771D01*
X170377614Y-56369771D02*
X170377614Y-56607866D01*
X170377614Y-56607866D02*
X170329995Y-56798342D01*
X170329995Y-56798342D02*
X170282376Y-56893580D01*
X170282376Y-56893580D02*
X170234757Y-56941200D01*
X170234757Y-56941200D02*
X170139519Y-56988819D01*
X170139519Y-56988819D02*
X170044281Y-56988819D01*
X170044281Y-56988819D02*
X169949043Y-56941200D01*
X169949043Y-56941200D02*
X169901424Y-56893580D01*
X169901424Y-56893580D02*
X169853805Y-56798342D01*
X169853805Y-56798342D02*
X169806186Y-56607866D01*
X169806186Y-56607866D02*
X169806186Y-56369771D01*
X169806186Y-56369771D02*
X169853805Y-56179295D01*
X169853805Y-56179295D02*
X169901424Y-56084057D01*
X169901424Y-56084057D02*
X169949043Y-56036438D01*
X169949043Y-56036438D02*
X170044281Y-55988819D01*
X170758567Y-56084057D02*
X170806186Y-56036438D01*
X170806186Y-56036438D02*
X170901424Y-55988819D01*
X170901424Y-55988819D02*
X171139519Y-55988819D01*
X171139519Y-55988819D02*
X171234757Y-56036438D01*
X171234757Y-56036438D02*
X171282376Y-56084057D01*
X171282376Y-56084057D02*
X171329995Y-56179295D01*
X171329995Y-56179295D02*
X171329995Y-56274533D01*
X171329995Y-56274533D02*
X171282376Y-56417390D01*
X171282376Y-56417390D02*
X170710948Y-56988819D01*
X170710948Y-56988819D02*
X171329995Y-56988819D01*
G04 #@! TO.C,R103*
X160408952Y-61040619D02*
X160075619Y-60564428D01*
X159837524Y-61040619D02*
X159837524Y-60040619D01*
X159837524Y-60040619D02*
X160218476Y-60040619D01*
X160218476Y-60040619D02*
X160313714Y-60088238D01*
X160313714Y-60088238D02*
X160361333Y-60135857D01*
X160361333Y-60135857D02*
X160408952Y-60231095D01*
X160408952Y-60231095D02*
X160408952Y-60373952D01*
X160408952Y-60373952D02*
X160361333Y-60469190D01*
X160361333Y-60469190D02*
X160313714Y-60516809D01*
X160313714Y-60516809D02*
X160218476Y-60564428D01*
X160218476Y-60564428D02*
X159837524Y-60564428D01*
X161361333Y-61040619D02*
X160789905Y-61040619D01*
X161075619Y-61040619D02*
X161075619Y-60040619D01*
X161075619Y-60040619D02*
X160980381Y-60183476D01*
X160980381Y-60183476D02*
X160885143Y-60278714D01*
X160885143Y-60278714D02*
X160789905Y-60326333D01*
X161980381Y-60040619D02*
X162075619Y-60040619D01*
X162075619Y-60040619D02*
X162170857Y-60088238D01*
X162170857Y-60088238D02*
X162218476Y-60135857D01*
X162218476Y-60135857D02*
X162266095Y-60231095D01*
X162266095Y-60231095D02*
X162313714Y-60421571D01*
X162313714Y-60421571D02*
X162313714Y-60659666D01*
X162313714Y-60659666D02*
X162266095Y-60850142D01*
X162266095Y-60850142D02*
X162218476Y-60945380D01*
X162218476Y-60945380D02*
X162170857Y-60993000D01*
X162170857Y-60993000D02*
X162075619Y-61040619D01*
X162075619Y-61040619D02*
X161980381Y-61040619D01*
X161980381Y-61040619D02*
X161885143Y-60993000D01*
X161885143Y-60993000D02*
X161837524Y-60945380D01*
X161837524Y-60945380D02*
X161789905Y-60850142D01*
X161789905Y-60850142D02*
X161742286Y-60659666D01*
X161742286Y-60659666D02*
X161742286Y-60421571D01*
X161742286Y-60421571D02*
X161789905Y-60231095D01*
X161789905Y-60231095D02*
X161837524Y-60135857D01*
X161837524Y-60135857D02*
X161885143Y-60088238D01*
X161885143Y-60088238D02*
X161980381Y-60040619D01*
X162647048Y-60040619D02*
X163266095Y-60040619D01*
X163266095Y-60040619D02*
X162932762Y-60421571D01*
X162932762Y-60421571D02*
X163075619Y-60421571D01*
X163075619Y-60421571D02*
X163170857Y-60469190D01*
X163170857Y-60469190D02*
X163218476Y-60516809D01*
X163218476Y-60516809D02*
X163266095Y-60612047D01*
X163266095Y-60612047D02*
X163266095Y-60850142D01*
X163266095Y-60850142D02*
X163218476Y-60945380D01*
X163218476Y-60945380D02*
X163170857Y-60993000D01*
X163170857Y-60993000D02*
X163075619Y-61040619D01*
X163075619Y-61040619D02*
X162789905Y-61040619D01*
X162789905Y-61040619D02*
X162694667Y-60993000D01*
X162694667Y-60993000D02*
X162647048Y-60945380D01*
G04 #@! TO.C,R102*
X160408952Y-72216619D02*
X160075619Y-71740428D01*
X159837524Y-72216619D02*
X159837524Y-71216619D01*
X159837524Y-71216619D02*
X160218476Y-71216619D01*
X160218476Y-71216619D02*
X160313714Y-71264238D01*
X160313714Y-71264238D02*
X160361333Y-71311857D01*
X160361333Y-71311857D02*
X160408952Y-71407095D01*
X160408952Y-71407095D02*
X160408952Y-71549952D01*
X160408952Y-71549952D02*
X160361333Y-71645190D01*
X160361333Y-71645190D02*
X160313714Y-71692809D01*
X160313714Y-71692809D02*
X160218476Y-71740428D01*
X160218476Y-71740428D02*
X159837524Y-71740428D01*
X161361333Y-72216619D02*
X160789905Y-72216619D01*
X161075619Y-72216619D02*
X161075619Y-71216619D01*
X161075619Y-71216619D02*
X160980381Y-71359476D01*
X160980381Y-71359476D02*
X160885143Y-71454714D01*
X160885143Y-71454714D02*
X160789905Y-71502333D01*
X161980381Y-71216619D02*
X162075619Y-71216619D01*
X162075619Y-71216619D02*
X162170857Y-71264238D01*
X162170857Y-71264238D02*
X162218476Y-71311857D01*
X162218476Y-71311857D02*
X162266095Y-71407095D01*
X162266095Y-71407095D02*
X162313714Y-71597571D01*
X162313714Y-71597571D02*
X162313714Y-71835666D01*
X162313714Y-71835666D02*
X162266095Y-72026142D01*
X162266095Y-72026142D02*
X162218476Y-72121380D01*
X162218476Y-72121380D02*
X162170857Y-72169000D01*
X162170857Y-72169000D02*
X162075619Y-72216619D01*
X162075619Y-72216619D02*
X161980381Y-72216619D01*
X161980381Y-72216619D02*
X161885143Y-72169000D01*
X161885143Y-72169000D02*
X161837524Y-72121380D01*
X161837524Y-72121380D02*
X161789905Y-72026142D01*
X161789905Y-72026142D02*
X161742286Y-71835666D01*
X161742286Y-71835666D02*
X161742286Y-71597571D01*
X161742286Y-71597571D02*
X161789905Y-71407095D01*
X161789905Y-71407095D02*
X161837524Y-71311857D01*
X161837524Y-71311857D02*
X161885143Y-71264238D01*
X161885143Y-71264238D02*
X161980381Y-71216619D01*
X162694667Y-71311857D02*
X162742286Y-71264238D01*
X162742286Y-71264238D02*
X162837524Y-71216619D01*
X162837524Y-71216619D02*
X163075619Y-71216619D01*
X163075619Y-71216619D02*
X163170857Y-71264238D01*
X163170857Y-71264238D02*
X163218476Y-71311857D01*
X163218476Y-71311857D02*
X163266095Y-71407095D01*
X163266095Y-71407095D02*
X163266095Y-71502333D01*
X163266095Y-71502333D02*
X163218476Y-71645190D01*
X163218476Y-71645190D02*
X162647048Y-72216619D01*
X162647048Y-72216619D02*
X163266095Y-72216619D01*
G04 #@! TO.C,R105*
X168298952Y-75392619D02*
X167965619Y-74916428D01*
X167727524Y-75392619D02*
X167727524Y-74392619D01*
X167727524Y-74392619D02*
X168108476Y-74392619D01*
X168108476Y-74392619D02*
X168203714Y-74440238D01*
X168203714Y-74440238D02*
X168251333Y-74487857D01*
X168251333Y-74487857D02*
X168298952Y-74583095D01*
X168298952Y-74583095D02*
X168298952Y-74725952D01*
X168298952Y-74725952D02*
X168251333Y-74821190D01*
X168251333Y-74821190D02*
X168203714Y-74868809D01*
X168203714Y-74868809D02*
X168108476Y-74916428D01*
X168108476Y-74916428D02*
X167727524Y-74916428D01*
X169251333Y-75392619D02*
X168679905Y-75392619D01*
X168965619Y-75392619D02*
X168965619Y-74392619D01*
X168965619Y-74392619D02*
X168870381Y-74535476D01*
X168870381Y-74535476D02*
X168775143Y-74630714D01*
X168775143Y-74630714D02*
X168679905Y-74678333D01*
X169870381Y-74392619D02*
X169965619Y-74392619D01*
X169965619Y-74392619D02*
X170060857Y-74440238D01*
X170060857Y-74440238D02*
X170108476Y-74487857D01*
X170108476Y-74487857D02*
X170156095Y-74583095D01*
X170156095Y-74583095D02*
X170203714Y-74773571D01*
X170203714Y-74773571D02*
X170203714Y-75011666D01*
X170203714Y-75011666D02*
X170156095Y-75202142D01*
X170156095Y-75202142D02*
X170108476Y-75297380D01*
X170108476Y-75297380D02*
X170060857Y-75345000D01*
X170060857Y-75345000D02*
X169965619Y-75392619D01*
X169965619Y-75392619D02*
X169870381Y-75392619D01*
X169870381Y-75392619D02*
X169775143Y-75345000D01*
X169775143Y-75345000D02*
X169727524Y-75297380D01*
X169727524Y-75297380D02*
X169679905Y-75202142D01*
X169679905Y-75202142D02*
X169632286Y-75011666D01*
X169632286Y-75011666D02*
X169632286Y-74773571D01*
X169632286Y-74773571D02*
X169679905Y-74583095D01*
X169679905Y-74583095D02*
X169727524Y-74487857D01*
X169727524Y-74487857D02*
X169775143Y-74440238D01*
X169775143Y-74440238D02*
X169870381Y-74392619D01*
X171108476Y-74392619D02*
X170632286Y-74392619D01*
X170632286Y-74392619D02*
X170584667Y-74868809D01*
X170584667Y-74868809D02*
X170632286Y-74821190D01*
X170632286Y-74821190D02*
X170727524Y-74773571D01*
X170727524Y-74773571D02*
X170965619Y-74773571D01*
X170965619Y-74773571D02*
X171060857Y-74821190D01*
X171060857Y-74821190D02*
X171108476Y-74868809D01*
X171108476Y-74868809D02*
X171156095Y-74964047D01*
X171156095Y-74964047D02*
X171156095Y-75202142D01*
X171156095Y-75202142D02*
X171108476Y-75297380D01*
X171108476Y-75297380D02*
X171060857Y-75345000D01*
X171060857Y-75345000D02*
X170965619Y-75392619D01*
X170965619Y-75392619D02*
X170727524Y-75392619D01*
X170727524Y-75392619D02*
X170632286Y-75345000D01*
X170632286Y-75345000D02*
X170584667Y-75297380D01*
G04 #@! TO.C,U103*
X175938619Y-82232285D02*
X176748142Y-82232285D01*
X176748142Y-82232285D02*
X176843380Y-82184666D01*
X176843380Y-82184666D02*
X176891000Y-82137047D01*
X176891000Y-82137047D02*
X176938619Y-82041809D01*
X176938619Y-82041809D02*
X176938619Y-81851333D01*
X176938619Y-81851333D02*
X176891000Y-81756095D01*
X176891000Y-81756095D02*
X176843380Y-81708476D01*
X176843380Y-81708476D02*
X176748142Y-81660857D01*
X176748142Y-81660857D02*
X175938619Y-81660857D01*
X176938619Y-80660857D02*
X176938619Y-81232285D01*
X176938619Y-80946571D02*
X175938619Y-80946571D01*
X175938619Y-80946571D02*
X176081476Y-81041809D01*
X176081476Y-81041809D02*
X176176714Y-81137047D01*
X176176714Y-81137047D02*
X176224333Y-81232285D01*
X175938619Y-80041809D02*
X175938619Y-79946571D01*
X175938619Y-79946571D02*
X175986238Y-79851333D01*
X175986238Y-79851333D02*
X176033857Y-79803714D01*
X176033857Y-79803714D02*
X176129095Y-79756095D01*
X176129095Y-79756095D02*
X176319571Y-79708476D01*
X176319571Y-79708476D02*
X176557666Y-79708476D01*
X176557666Y-79708476D02*
X176748142Y-79756095D01*
X176748142Y-79756095D02*
X176843380Y-79803714D01*
X176843380Y-79803714D02*
X176891000Y-79851333D01*
X176891000Y-79851333D02*
X176938619Y-79946571D01*
X176938619Y-79946571D02*
X176938619Y-80041809D01*
X176938619Y-80041809D02*
X176891000Y-80137047D01*
X176891000Y-80137047D02*
X176843380Y-80184666D01*
X176843380Y-80184666D02*
X176748142Y-80232285D01*
X176748142Y-80232285D02*
X176557666Y-80279904D01*
X176557666Y-80279904D02*
X176319571Y-80279904D01*
X176319571Y-80279904D02*
X176129095Y-80232285D01*
X176129095Y-80232285D02*
X176033857Y-80184666D01*
X176033857Y-80184666D02*
X175986238Y-80137047D01*
X175986238Y-80137047D02*
X175938619Y-80041809D01*
X175938619Y-79375142D02*
X175938619Y-78756095D01*
X175938619Y-78756095D02*
X176319571Y-79089428D01*
X176319571Y-79089428D02*
X176319571Y-78946571D01*
X176319571Y-78946571D02*
X176367190Y-78851333D01*
X176367190Y-78851333D02*
X176414809Y-78803714D01*
X176414809Y-78803714D02*
X176510047Y-78756095D01*
X176510047Y-78756095D02*
X176748142Y-78756095D01*
X176748142Y-78756095D02*
X176843380Y-78803714D01*
X176843380Y-78803714D02*
X176891000Y-78851333D01*
X176891000Y-78851333D02*
X176938619Y-78946571D01*
X176938619Y-78946571D02*
X176938619Y-79232285D01*
X176938619Y-79232285D02*
X176891000Y-79327523D01*
X176891000Y-79327523D02*
X176843380Y-79375142D01*
G04 #@! TO.C,U102*
X175938619Y-52768285D02*
X176748142Y-52768285D01*
X176748142Y-52768285D02*
X176843380Y-52720666D01*
X176843380Y-52720666D02*
X176891000Y-52673047D01*
X176891000Y-52673047D02*
X176938619Y-52577809D01*
X176938619Y-52577809D02*
X176938619Y-52387333D01*
X176938619Y-52387333D02*
X176891000Y-52292095D01*
X176891000Y-52292095D02*
X176843380Y-52244476D01*
X176843380Y-52244476D02*
X176748142Y-52196857D01*
X176748142Y-52196857D02*
X175938619Y-52196857D01*
X176938619Y-51196857D02*
X176938619Y-51768285D01*
X176938619Y-51482571D02*
X175938619Y-51482571D01*
X175938619Y-51482571D02*
X176081476Y-51577809D01*
X176081476Y-51577809D02*
X176176714Y-51673047D01*
X176176714Y-51673047D02*
X176224333Y-51768285D01*
X175938619Y-50577809D02*
X175938619Y-50482571D01*
X175938619Y-50482571D02*
X175986238Y-50387333D01*
X175986238Y-50387333D02*
X176033857Y-50339714D01*
X176033857Y-50339714D02*
X176129095Y-50292095D01*
X176129095Y-50292095D02*
X176319571Y-50244476D01*
X176319571Y-50244476D02*
X176557666Y-50244476D01*
X176557666Y-50244476D02*
X176748142Y-50292095D01*
X176748142Y-50292095D02*
X176843380Y-50339714D01*
X176843380Y-50339714D02*
X176891000Y-50387333D01*
X176891000Y-50387333D02*
X176938619Y-50482571D01*
X176938619Y-50482571D02*
X176938619Y-50577809D01*
X176938619Y-50577809D02*
X176891000Y-50673047D01*
X176891000Y-50673047D02*
X176843380Y-50720666D01*
X176843380Y-50720666D02*
X176748142Y-50768285D01*
X176748142Y-50768285D02*
X176557666Y-50815904D01*
X176557666Y-50815904D02*
X176319571Y-50815904D01*
X176319571Y-50815904D02*
X176129095Y-50768285D01*
X176129095Y-50768285D02*
X176033857Y-50720666D01*
X176033857Y-50720666D02*
X175986238Y-50673047D01*
X175986238Y-50673047D02*
X175938619Y-50577809D01*
X176033857Y-49863523D02*
X175986238Y-49815904D01*
X175986238Y-49815904D02*
X175938619Y-49720666D01*
X175938619Y-49720666D02*
X175938619Y-49482571D01*
X175938619Y-49482571D02*
X175986238Y-49387333D01*
X175986238Y-49387333D02*
X176033857Y-49339714D01*
X176033857Y-49339714D02*
X176129095Y-49292095D01*
X176129095Y-49292095D02*
X176224333Y-49292095D01*
X176224333Y-49292095D02*
X176367190Y-49339714D01*
X176367190Y-49339714D02*
X176938619Y-49911142D01*
X176938619Y-49911142D02*
X176938619Y-49292095D01*
G04 #@! TO.C,R104*
X168705352Y-46066819D02*
X168372019Y-45590628D01*
X168133924Y-46066819D02*
X168133924Y-45066819D01*
X168133924Y-45066819D02*
X168514876Y-45066819D01*
X168514876Y-45066819D02*
X168610114Y-45114438D01*
X168610114Y-45114438D02*
X168657733Y-45162057D01*
X168657733Y-45162057D02*
X168705352Y-45257295D01*
X168705352Y-45257295D02*
X168705352Y-45400152D01*
X168705352Y-45400152D02*
X168657733Y-45495390D01*
X168657733Y-45495390D02*
X168610114Y-45543009D01*
X168610114Y-45543009D02*
X168514876Y-45590628D01*
X168514876Y-45590628D02*
X168133924Y-45590628D01*
X169657733Y-46066819D02*
X169086305Y-46066819D01*
X169372019Y-46066819D02*
X169372019Y-45066819D01*
X169372019Y-45066819D02*
X169276781Y-45209676D01*
X169276781Y-45209676D02*
X169181543Y-45304914D01*
X169181543Y-45304914D02*
X169086305Y-45352533D01*
X170276781Y-45066819D02*
X170372019Y-45066819D01*
X170372019Y-45066819D02*
X170467257Y-45114438D01*
X170467257Y-45114438D02*
X170514876Y-45162057D01*
X170514876Y-45162057D02*
X170562495Y-45257295D01*
X170562495Y-45257295D02*
X170610114Y-45447771D01*
X170610114Y-45447771D02*
X170610114Y-45685866D01*
X170610114Y-45685866D02*
X170562495Y-45876342D01*
X170562495Y-45876342D02*
X170514876Y-45971580D01*
X170514876Y-45971580D02*
X170467257Y-46019200D01*
X170467257Y-46019200D02*
X170372019Y-46066819D01*
X170372019Y-46066819D02*
X170276781Y-46066819D01*
X170276781Y-46066819D02*
X170181543Y-46019200D01*
X170181543Y-46019200D02*
X170133924Y-45971580D01*
X170133924Y-45971580D02*
X170086305Y-45876342D01*
X170086305Y-45876342D02*
X170038686Y-45685866D01*
X170038686Y-45685866D02*
X170038686Y-45447771D01*
X170038686Y-45447771D02*
X170086305Y-45257295D01*
X170086305Y-45257295D02*
X170133924Y-45162057D01*
X170133924Y-45162057D02*
X170181543Y-45114438D01*
X170181543Y-45114438D02*
X170276781Y-45066819D01*
X171467257Y-45400152D02*
X171467257Y-46066819D01*
X171229162Y-45019200D02*
X170991067Y-45733485D01*
X170991067Y-45733485D02*
X171610114Y-45733485D01*
G04 #@! TO.C,C103*
X168726852Y-86611580D02*
X168679233Y-86659200D01*
X168679233Y-86659200D02*
X168536376Y-86706819D01*
X168536376Y-86706819D02*
X168441138Y-86706819D01*
X168441138Y-86706819D02*
X168298281Y-86659200D01*
X168298281Y-86659200D02*
X168203043Y-86563961D01*
X168203043Y-86563961D02*
X168155424Y-86468723D01*
X168155424Y-86468723D02*
X168107805Y-86278247D01*
X168107805Y-86278247D02*
X168107805Y-86135390D01*
X168107805Y-86135390D02*
X168155424Y-85944914D01*
X168155424Y-85944914D02*
X168203043Y-85849676D01*
X168203043Y-85849676D02*
X168298281Y-85754438D01*
X168298281Y-85754438D02*
X168441138Y-85706819D01*
X168441138Y-85706819D02*
X168536376Y-85706819D01*
X168536376Y-85706819D02*
X168679233Y-85754438D01*
X168679233Y-85754438D02*
X168726852Y-85802057D01*
X169679233Y-86706819D02*
X169107805Y-86706819D01*
X169393519Y-86706819D02*
X169393519Y-85706819D01*
X169393519Y-85706819D02*
X169298281Y-85849676D01*
X169298281Y-85849676D02*
X169203043Y-85944914D01*
X169203043Y-85944914D02*
X169107805Y-85992533D01*
X170298281Y-85706819D02*
X170393519Y-85706819D01*
X170393519Y-85706819D02*
X170488757Y-85754438D01*
X170488757Y-85754438D02*
X170536376Y-85802057D01*
X170536376Y-85802057D02*
X170583995Y-85897295D01*
X170583995Y-85897295D02*
X170631614Y-86087771D01*
X170631614Y-86087771D02*
X170631614Y-86325866D01*
X170631614Y-86325866D02*
X170583995Y-86516342D01*
X170583995Y-86516342D02*
X170536376Y-86611580D01*
X170536376Y-86611580D02*
X170488757Y-86659200D01*
X170488757Y-86659200D02*
X170393519Y-86706819D01*
X170393519Y-86706819D02*
X170298281Y-86706819D01*
X170298281Y-86706819D02*
X170203043Y-86659200D01*
X170203043Y-86659200D02*
X170155424Y-86611580D01*
X170155424Y-86611580D02*
X170107805Y-86516342D01*
X170107805Y-86516342D02*
X170060186Y-86325866D01*
X170060186Y-86325866D02*
X170060186Y-86087771D01*
X170060186Y-86087771D02*
X170107805Y-85897295D01*
X170107805Y-85897295D02*
X170155424Y-85802057D01*
X170155424Y-85802057D02*
X170203043Y-85754438D01*
X170203043Y-85754438D02*
X170298281Y-85706819D01*
X170964948Y-85706819D02*
X171583995Y-85706819D01*
X171583995Y-85706819D02*
X171250662Y-86087771D01*
X171250662Y-86087771D02*
X171393519Y-86087771D01*
X171393519Y-86087771D02*
X171488757Y-86135390D01*
X171488757Y-86135390D02*
X171536376Y-86183009D01*
X171536376Y-86183009D02*
X171583995Y-86278247D01*
X171583995Y-86278247D02*
X171583995Y-86516342D01*
X171583995Y-86516342D02*
X171536376Y-86611580D01*
X171536376Y-86611580D02*
X171488757Y-86659200D01*
X171488757Y-86659200D02*
X171393519Y-86706819D01*
X171393519Y-86706819D02*
X171107805Y-86706819D01*
X171107805Y-86706819D02*
X171012567Y-86659200D01*
X171012567Y-86659200D02*
X170964948Y-86611580D01*
G04 #@! TO.C,R101*
X168705352Y-60798819D02*
X168372019Y-60322628D01*
X168133924Y-60798819D02*
X168133924Y-59798819D01*
X168133924Y-59798819D02*
X168514876Y-59798819D01*
X168514876Y-59798819D02*
X168610114Y-59846438D01*
X168610114Y-59846438D02*
X168657733Y-59894057D01*
X168657733Y-59894057D02*
X168705352Y-59989295D01*
X168705352Y-59989295D02*
X168705352Y-60132152D01*
X168705352Y-60132152D02*
X168657733Y-60227390D01*
X168657733Y-60227390D02*
X168610114Y-60275009D01*
X168610114Y-60275009D02*
X168514876Y-60322628D01*
X168514876Y-60322628D02*
X168133924Y-60322628D01*
X169657733Y-60798819D02*
X169086305Y-60798819D01*
X169372019Y-60798819D02*
X169372019Y-59798819D01*
X169372019Y-59798819D02*
X169276781Y-59941676D01*
X169276781Y-59941676D02*
X169181543Y-60036914D01*
X169181543Y-60036914D02*
X169086305Y-60084533D01*
X170276781Y-59798819D02*
X170372019Y-59798819D01*
X170372019Y-59798819D02*
X170467257Y-59846438D01*
X170467257Y-59846438D02*
X170514876Y-59894057D01*
X170514876Y-59894057D02*
X170562495Y-59989295D01*
X170562495Y-59989295D02*
X170610114Y-60179771D01*
X170610114Y-60179771D02*
X170610114Y-60417866D01*
X170610114Y-60417866D02*
X170562495Y-60608342D01*
X170562495Y-60608342D02*
X170514876Y-60703580D01*
X170514876Y-60703580D02*
X170467257Y-60751200D01*
X170467257Y-60751200D02*
X170372019Y-60798819D01*
X170372019Y-60798819D02*
X170276781Y-60798819D01*
X170276781Y-60798819D02*
X170181543Y-60751200D01*
X170181543Y-60751200D02*
X170133924Y-60703580D01*
X170133924Y-60703580D02*
X170086305Y-60608342D01*
X170086305Y-60608342D02*
X170038686Y-60417866D01*
X170038686Y-60417866D02*
X170038686Y-60179771D01*
X170038686Y-60179771D02*
X170086305Y-59989295D01*
X170086305Y-59989295D02*
X170133924Y-59894057D01*
X170133924Y-59894057D02*
X170181543Y-59846438D01*
X170181543Y-59846438D02*
X170276781Y-59798819D01*
X171562495Y-60798819D02*
X170991067Y-60798819D01*
X171276781Y-60798819D02*
X171276781Y-59798819D01*
X171276781Y-59798819D02*
X171181543Y-59941676D01*
X171181543Y-59941676D02*
X171086305Y-60036914D01*
X171086305Y-60036914D02*
X170991067Y-60084533D01*
G04 #@! TO.C,J102*
X189468285Y-53588619D02*
X189468285Y-54302904D01*
X189468285Y-54302904D02*
X189420666Y-54445761D01*
X189420666Y-54445761D02*
X189325428Y-54541000D01*
X189325428Y-54541000D02*
X189182571Y-54588619D01*
X189182571Y-54588619D02*
X189087333Y-54588619D01*
X190468285Y-54588619D02*
X189896857Y-54588619D01*
X190182571Y-54588619D02*
X190182571Y-53588619D01*
X190182571Y-53588619D02*
X190087333Y-53731476D01*
X190087333Y-53731476D02*
X189992095Y-53826714D01*
X189992095Y-53826714D02*
X189896857Y-53874333D01*
X191087333Y-53588619D02*
X191182571Y-53588619D01*
X191182571Y-53588619D02*
X191277809Y-53636238D01*
X191277809Y-53636238D02*
X191325428Y-53683857D01*
X191325428Y-53683857D02*
X191373047Y-53779095D01*
X191373047Y-53779095D02*
X191420666Y-53969571D01*
X191420666Y-53969571D02*
X191420666Y-54207666D01*
X191420666Y-54207666D02*
X191373047Y-54398142D01*
X191373047Y-54398142D02*
X191325428Y-54493380D01*
X191325428Y-54493380D02*
X191277809Y-54541000D01*
X191277809Y-54541000D02*
X191182571Y-54588619D01*
X191182571Y-54588619D02*
X191087333Y-54588619D01*
X191087333Y-54588619D02*
X190992095Y-54541000D01*
X190992095Y-54541000D02*
X190944476Y-54493380D01*
X190944476Y-54493380D02*
X190896857Y-54398142D01*
X190896857Y-54398142D02*
X190849238Y-54207666D01*
X190849238Y-54207666D02*
X190849238Y-53969571D01*
X190849238Y-53969571D02*
X190896857Y-53779095D01*
X190896857Y-53779095D02*
X190944476Y-53683857D01*
X190944476Y-53683857D02*
X190992095Y-53636238D01*
X190992095Y-53636238D02*
X191087333Y-53588619D01*
X191801619Y-53683857D02*
X191849238Y-53636238D01*
X191849238Y-53636238D02*
X191944476Y-53588619D01*
X191944476Y-53588619D02*
X192182571Y-53588619D01*
X192182571Y-53588619D02*
X192277809Y-53636238D01*
X192277809Y-53636238D02*
X192325428Y-53683857D01*
X192325428Y-53683857D02*
X192373047Y-53779095D01*
X192373047Y-53779095D02*
X192373047Y-53874333D01*
X192373047Y-53874333D02*
X192325428Y-54017190D01*
X192325428Y-54017190D02*
X191754000Y-54588619D01*
X191754000Y-54588619D02*
X192373047Y-54588619D01*
G04 #@! TO.C,C101*
X168726852Y-71879580D02*
X168679233Y-71927200D01*
X168679233Y-71927200D02*
X168536376Y-71974819D01*
X168536376Y-71974819D02*
X168441138Y-71974819D01*
X168441138Y-71974819D02*
X168298281Y-71927200D01*
X168298281Y-71927200D02*
X168203043Y-71831961D01*
X168203043Y-71831961D02*
X168155424Y-71736723D01*
X168155424Y-71736723D02*
X168107805Y-71546247D01*
X168107805Y-71546247D02*
X168107805Y-71403390D01*
X168107805Y-71403390D02*
X168155424Y-71212914D01*
X168155424Y-71212914D02*
X168203043Y-71117676D01*
X168203043Y-71117676D02*
X168298281Y-71022438D01*
X168298281Y-71022438D02*
X168441138Y-70974819D01*
X168441138Y-70974819D02*
X168536376Y-70974819D01*
X168536376Y-70974819D02*
X168679233Y-71022438D01*
X168679233Y-71022438D02*
X168726852Y-71070057D01*
X169679233Y-71974819D02*
X169107805Y-71974819D01*
X169393519Y-71974819D02*
X169393519Y-70974819D01*
X169393519Y-70974819D02*
X169298281Y-71117676D01*
X169298281Y-71117676D02*
X169203043Y-71212914D01*
X169203043Y-71212914D02*
X169107805Y-71260533D01*
X170298281Y-70974819D02*
X170393519Y-70974819D01*
X170393519Y-70974819D02*
X170488757Y-71022438D01*
X170488757Y-71022438D02*
X170536376Y-71070057D01*
X170536376Y-71070057D02*
X170583995Y-71165295D01*
X170583995Y-71165295D02*
X170631614Y-71355771D01*
X170631614Y-71355771D02*
X170631614Y-71593866D01*
X170631614Y-71593866D02*
X170583995Y-71784342D01*
X170583995Y-71784342D02*
X170536376Y-71879580D01*
X170536376Y-71879580D02*
X170488757Y-71927200D01*
X170488757Y-71927200D02*
X170393519Y-71974819D01*
X170393519Y-71974819D02*
X170298281Y-71974819D01*
X170298281Y-71974819D02*
X170203043Y-71927200D01*
X170203043Y-71927200D02*
X170155424Y-71879580D01*
X170155424Y-71879580D02*
X170107805Y-71784342D01*
X170107805Y-71784342D02*
X170060186Y-71593866D01*
X170060186Y-71593866D02*
X170060186Y-71355771D01*
X170060186Y-71355771D02*
X170107805Y-71165295D01*
X170107805Y-71165295D02*
X170155424Y-71070057D01*
X170155424Y-71070057D02*
X170203043Y-71022438D01*
X170203043Y-71022438D02*
X170298281Y-70974819D01*
X171583995Y-71974819D02*
X171012567Y-71974819D01*
X171298281Y-71974819D02*
X171298281Y-70974819D01*
X171298281Y-70974819D02*
X171203043Y-71117676D01*
X171203043Y-71117676D02*
X171107805Y-71212914D01*
X171107805Y-71212914D02*
X171012567Y-71260533D01*
D11*
G04 #@! TO.C,U101*
X175631000Y-65786000D02*
X175631000Y-62336000D01*
X175631000Y-65786000D02*
X175631000Y-67736000D01*
X166761000Y-65786000D02*
X166761000Y-63836000D01*
X166761000Y-65786000D02*
X166761000Y-67736000D01*
G04 #@! TO.C,J101*
X148912000Y-74842000D02*
X149412000Y-74342000D01*
X149912000Y-74842000D02*
X148912000Y-74842000D01*
X149412000Y-74342000D02*
X149912000Y-74842000D01*
X142002000Y-74147000D02*
X149612000Y-74147000D01*
X142002000Y-74147000D02*
X142002000Y-57417000D01*
X157972000Y-74147000D02*
X152412000Y-74147000D01*
X157972000Y-74147000D02*
X157972000Y-57417000D01*
X142002000Y-57417000D02*
X149612000Y-57417000D01*
X157972000Y-57417000D02*
X152412000Y-57417000D01*
G04 #@! TO.C,C102*
X174171152Y-57515200D02*
X173648648Y-57515200D01*
X174171152Y-56045200D02*
X173648648Y-56045200D01*
G04 #@! TO.C,R103*
X161755064Y-59663000D02*
X161300936Y-59663000D01*
X161755064Y-58193000D02*
X161300936Y-58193000D01*
G04 #@! TO.C,R102*
X161755064Y-70839000D02*
X161300936Y-70839000D01*
X161755064Y-69369000D02*
X161300936Y-69369000D01*
G04 #@! TO.C,R105*
X174131464Y-75803200D02*
X173677336Y-75803200D01*
X174131464Y-74333200D02*
X173677336Y-74333200D01*
G04 #@! TO.C,U103*
X175631000Y-80518000D02*
X175631000Y-77068000D01*
X175631000Y-80518000D02*
X175631000Y-82468000D01*
X166761000Y-80518000D02*
X166761000Y-78568000D01*
X166761000Y-80518000D02*
X166761000Y-82468000D01*
G04 #@! TO.C,U102*
X175631000Y-51054000D02*
X175631000Y-47604000D01*
X175631000Y-51054000D02*
X175631000Y-53004000D01*
X166761000Y-51054000D02*
X166761000Y-49104000D01*
X166761000Y-51054000D02*
X166761000Y-53004000D01*
G04 #@! TO.C,R104*
X174115464Y-46339200D02*
X173661336Y-46339200D01*
X174115464Y-44869200D02*
X173661336Y-44869200D01*
G04 #@! TO.C,C103*
X174171152Y-86979200D02*
X173648648Y-86979200D01*
X174171152Y-85509200D02*
X173648648Y-85509200D01*
G04 #@! TO.C,R101*
X174115464Y-61071200D02*
X173661336Y-61071200D01*
X174115464Y-59601200D02*
X173661336Y-59601200D01*
G04 #@! TO.C,J102*
X188154000Y-55566000D02*
X188154000Y-76006000D01*
X188154000Y-55566000D02*
X190754000Y-55566000D01*
X188154000Y-76006000D02*
X193354000Y-76006000D01*
X190754000Y-55566000D02*
X190754000Y-58166000D01*
X190754000Y-58166000D02*
X193354000Y-58166000D01*
X192024000Y-55566000D02*
X193354000Y-55566000D01*
X193354000Y-55566000D02*
X193354000Y-56896000D01*
X193354000Y-58166000D02*
X193354000Y-76006000D01*
G04 #@! TO.C,C101*
X174171152Y-72247200D02*
X173648648Y-72247200D01*
X174171152Y-70777200D02*
X173648648Y-70777200D01*
G04 #@! TD*
M02*
