G04 #@! TF.GenerationSoftware,KiCad,Pcbnew,7.0.2-6a45011f42~172~ubuntu22.04.1*
G04 #@! TF.CreationDate,2023-06-19T14:24:24-04:00*
G04 #@! TF.ProjectId,differential_encoder_encoder,64696666-6572-4656-9e74-69616c5f656e,rev?*
G04 #@! TF.SameCoordinates,Original*
G04 #@! TF.FileFunction,Copper,L1,Top*
G04 #@! TF.FilePolarity,Positive*
%FSLAX46Y46*%
G04 Gerber Fmt 4.6, Leading zero omitted, Abs format (unit mm)*
G04 Created by KiCad (PCBNEW 7.0.2-6a45011f42~172~ubuntu22.04.1) date 2023-06-19 14:24:24*
%MOMM*%
%LPD*%
G01*
G04 APERTURE LIST*
G04 #@! TA.AperFunction,ComponentPad*
%ADD10R,1.500000X1.500000*%
G04 #@! TD*
G04 #@! TA.AperFunction,ComponentPad*
%ADD11C,1.500000*%
G04 #@! TD*
G04 #@! TA.AperFunction,ComponentPad*
%ADD12C,2.300000*%
G04 #@! TD*
G04 #@! TA.AperFunction,ComponentPad*
%ADD13R,1.700000X1.700000*%
G04 #@! TD*
G04 #@! TA.AperFunction,ComponentPad*
%ADD14O,1.700000X1.700000*%
G04 #@! TD*
G04 #@! TA.AperFunction,ViaPad*
%ADD15C,1.000000*%
G04 #@! TD*
G04 #@! TA.AperFunction,Conductor*
%ADD16C,0.762000*%
G04 #@! TD*
G04 #@! TA.AperFunction,Conductor*
%ADD17C,0.381000*%
G04 #@! TD*
G04 #@! TA.AperFunction,Conductor*
%ADD18C,0.152000*%
G04 #@! TD*
G04 #@! TA.AperFunction,Conductor*
%ADD19C,0.508000*%
G04 #@! TD*
G04 APERTURE END LIST*
G04 #@! TO.P,U101,1,NC*
G04 #@! TO.N,unconnected-(U101-NC-Pad1)*
G04 #@! TA.AperFunction,SMDPad,CuDef*
G36*
G01*
X174856000Y-62336000D02*
X175156000Y-62336000D01*
G75*
G02*
X175306000Y-62486000I0J-150000D01*
G01*
X175306000Y-64136000D01*
G75*
G02*
X175156000Y-64286000I-150000J0D01*
G01*
X174856000Y-64286000D01*
G75*
G02*
X174706000Y-64136000I0J150000D01*
G01*
X174706000Y-62486000D01*
G75*
G02*
X174856000Y-62336000I150000J0D01*
G01*
G37*
G04 #@! TD.AperFunction*
G04 #@! TO.P,U101,2,RO*
G04 #@! TO.N,unconnected-(U101-RO-Pad2)*
G04 #@! TA.AperFunction,SMDPad,CuDef*
G36*
G01*
X173586000Y-62336000D02*
X173886000Y-62336000D01*
G75*
G02*
X174036000Y-62486000I0J-150000D01*
G01*
X174036000Y-64136000D01*
G75*
G02*
X173886000Y-64286000I-150000J0D01*
G01*
X173586000Y-64286000D01*
G75*
G02*
X173436000Y-64136000I0J150000D01*
G01*
X173436000Y-62486000D01*
G75*
G02*
X173586000Y-62336000I150000J0D01*
G01*
G37*
G04 #@! TD.AperFunction*
G04 #@! TO.P,U101,3,~{RE}*
G04 #@! TO.N,Net-(U101-DE)*
G04 #@! TA.AperFunction,SMDPad,CuDef*
G36*
G01*
X172316000Y-62336000D02*
X172616000Y-62336000D01*
G75*
G02*
X172766000Y-62486000I0J-150000D01*
G01*
X172766000Y-64136000D01*
G75*
G02*
X172616000Y-64286000I-150000J0D01*
G01*
X172316000Y-64286000D01*
G75*
G02*
X172166000Y-64136000I0J150000D01*
G01*
X172166000Y-62486000D01*
G75*
G02*
X172316000Y-62336000I150000J0D01*
G01*
G37*
G04 #@! TD.AperFunction*
G04 #@! TO.P,U101,4,DE*
G04 #@! TA.AperFunction,SMDPad,CuDef*
G36*
G01*
X171046000Y-62336000D02*
X171346000Y-62336000D01*
G75*
G02*
X171496000Y-62486000I0J-150000D01*
G01*
X171496000Y-64136000D01*
G75*
G02*
X171346000Y-64286000I-150000J0D01*
G01*
X171046000Y-64286000D01*
G75*
G02*
X170896000Y-64136000I0J150000D01*
G01*
X170896000Y-62486000D01*
G75*
G02*
X171046000Y-62336000I150000J0D01*
G01*
G37*
G04 #@! TD.AperFunction*
G04 #@! TO.P,U101,5,DI*
G04 #@! TO.N,A*
G04 #@! TA.AperFunction,SMDPad,CuDef*
G36*
G01*
X169776000Y-62336000D02*
X170076000Y-62336000D01*
G75*
G02*
X170226000Y-62486000I0J-150000D01*
G01*
X170226000Y-64136000D01*
G75*
G02*
X170076000Y-64286000I-150000J0D01*
G01*
X169776000Y-64286000D01*
G75*
G02*
X169626000Y-64136000I0J150000D01*
G01*
X169626000Y-62486000D01*
G75*
G02*
X169776000Y-62336000I150000J0D01*
G01*
G37*
G04 #@! TD.AperFunction*
G04 #@! TO.P,U101,6,GND*
G04 #@! TO.N,GND*
G04 #@! TA.AperFunction,SMDPad,CuDef*
G36*
G01*
X168506000Y-62336000D02*
X168806000Y-62336000D01*
G75*
G02*
X168956000Y-62486000I0J-150000D01*
G01*
X168956000Y-64136000D01*
G75*
G02*
X168806000Y-64286000I-150000J0D01*
G01*
X168506000Y-64286000D01*
G75*
G02*
X168356000Y-64136000I0J150000D01*
G01*
X168356000Y-62486000D01*
G75*
G02*
X168506000Y-62336000I150000J0D01*
G01*
G37*
G04 #@! TD.AperFunction*
G04 #@! TO.P,U101,7,GND*
G04 #@! TA.AperFunction,SMDPad,CuDef*
G36*
G01*
X167236000Y-62336000D02*
X167536000Y-62336000D01*
G75*
G02*
X167686000Y-62486000I0J-150000D01*
G01*
X167686000Y-64136000D01*
G75*
G02*
X167536000Y-64286000I-150000J0D01*
G01*
X167236000Y-64286000D01*
G75*
G02*
X167086000Y-64136000I0J150000D01*
G01*
X167086000Y-62486000D01*
G75*
G02*
X167236000Y-62336000I150000J0D01*
G01*
G37*
G04 #@! TD.AperFunction*
G04 #@! TO.P,U101,8,NC*
G04 #@! TO.N,unconnected-(U101-NC-Pad8)*
G04 #@! TA.AperFunction,SMDPad,CuDef*
G36*
G01*
X167236000Y-67286000D02*
X167536000Y-67286000D01*
G75*
G02*
X167686000Y-67436000I0J-150000D01*
G01*
X167686000Y-69086000D01*
G75*
G02*
X167536000Y-69236000I-150000J0D01*
G01*
X167236000Y-69236000D01*
G75*
G02*
X167086000Y-69086000I0J150000D01*
G01*
X167086000Y-67436000D01*
G75*
G02*
X167236000Y-67286000I150000J0D01*
G01*
G37*
G04 #@! TD.AperFunction*
G04 #@! TO.P,U101,9,Y*
G04 #@! TO.N,a+*
G04 #@! TA.AperFunction,SMDPad,CuDef*
G36*
G01*
X168506000Y-67286000D02*
X168806000Y-67286000D01*
G75*
G02*
X168956000Y-67436000I0J-150000D01*
G01*
X168956000Y-69086000D01*
G75*
G02*
X168806000Y-69236000I-150000J0D01*
G01*
X168506000Y-69236000D01*
G75*
G02*
X168356000Y-69086000I0J150000D01*
G01*
X168356000Y-67436000D01*
G75*
G02*
X168506000Y-67286000I150000J0D01*
G01*
G37*
G04 #@! TD.AperFunction*
G04 #@! TO.P,U101,10,Z*
G04 #@! TO.N,a-*
G04 #@! TA.AperFunction,SMDPad,CuDef*
G36*
G01*
X169776000Y-67286000D02*
X170076000Y-67286000D01*
G75*
G02*
X170226000Y-67436000I0J-150000D01*
G01*
X170226000Y-69086000D01*
G75*
G02*
X170076000Y-69236000I-150000J0D01*
G01*
X169776000Y-69236000D01*
G75*
G02*
X169626000Y-69086000I0J150000D01*
G01*
X169626000Y-67436000D01*
G75*
G02*
X169776000Y-67286000I150000J0D01*
G01*
G37*
G04 #@! TD.AperFunction*
G04 #@! TO.P,U101,11,B*
G04 #@! TO.N,unconnected-(U101-B-Pad11)*
G04 #@! TA.AperFunction,SMDPad,CuDef*
G36*
G01*
X171046000Y-67286000D02*
X171346000Y-67286000D01*
G75*
G02*
X171496000Y-67436000I0J-150000D01*
G01*
X171496000Y-69086000D01*
G75*
G02*
X171346000Y-69236000I-150000J0D01*
G01*
X171046000Y-69236000D01*
G75*
G02*
X170896000Y-69086000I0J150000D01*
G01*
X170896000Y-67436000D01*
G75*
G02*
X171046000Y-67286000I150000J0D01*
G01*
G37*
G04 #@! TD.AperFunction*
G04 #@! TO.P,U101,12,A*
G04 #@! TO.N,unconnected-(U101-A-Pad12)*
G04 #@! TA.AperFunction,SMDPad,CuDef*
G36*
G01*
X172316000Y-67286000D02*
X172616000Y-67286000D01*
G75*
G02*
X172766000Y-67436000I0J-150000D01*
G01*
X172766000Y-69086000D01*
G75*
G02*
X172616000Y-69236000I-150000J0D01*
G01*
X172316000Y-69236000D01*
G75*
G02*
X172166000Y-69086000I0J150000D01*
G01*
X172166000Y-67436000D01*
G75*
G02*
X172316000Y-67286000I150000J0D01*
G01*
G37*
G04 #@! TD.AperFunction*
G04 #@! TO.P,U101,13,NC*
G04 #@! TO.N,unconnected-(U101-NC-Pad13)*
G04 #@! TA.AperFunction,SMDPad,CuDef*
G36*
G01*
X173586000Y-67286000D02*
X173886000Y-67286000D01*
G75*
G02*
X174036000Y-67436000I0J-150000D01*
G01*
X174036000Y-69086000D01*
G75*
G02*
X173886000Y-69236000I-150000J0D01*
G01*
X173586000Y-69236000D01*
G75*
G02*
X173436000Y-69086000I0J150000D01*
G01*
X173436000Y-67436000D01*
G75*
G02*
X173586000Y-67286000I150000J0D01*
G01*
G37*
G04 #@! TD.AperFunction*
G04 #@! TO.P,U101,14,VCC*
G04 #@! TO.N,+5V*
G04 #@! TA.AperFunction,SMDPad,CuDef*
G36*
G01*
X174856000Y-67286000D02*
X175156000Y-67286000D01*
G75*
G02*
X175306000Y-67436000I0J-150000D01*
G01*
X175306000Y-69086000D01*
G75*
G02*
X175156000Y-69236000I-150000J0D01*
G01*
X174856000Y-69236000D01*
G75*
G02*
X174706000Y-69086000I0J150000D01*
G01*
X174706000Y-67436000D01*
G75*
G02*
X174856000Y-67286000I150000J0D01*
G01*
G37*
G04 #@! TD.AperFunction*
G04 #@! TD*
D10*
G04 #@! TO.P,J101,1*
G04 #@! TO.N,GND*
X150112000Y-69342000D03*
D11*
G04 #@! TO.P,J101,2*
G04 #@! TO.N,+5V*
X151892000Y-68326000D03*
G04 #@! TO.P,J101,3*
G04 #@! TO.N,i+*
X150112000Y-67310000D03*
G04 #@! TO.P,J101,4*
G04 #@! TO.N,b+*
X151892000Y-66294000D03*
G04 #@! TO.P,J101,5*
G04 #@! TO.N,b-*
X150112000Y-65278000D03*
G04 #@! TO.P,J101,6*
G04 #@! TO.N,i-*
X151892000Y-64262000D03*
G04 #@! TO.P,J101,7*
G04 #@! TO.N,a+*
X150112000Y-63246000D03*
G04 #@! TO.P,J101,8*
G04 #@! TO.N,a-*
X151892000Y-62230000D03*
G04 #@! TO.P,J101,9*
G04 #@! TO.N,I*
X156712000Y-72642000D03*
G04 #@! TO.P,J101,10*
G04 #@! TO.N,Net-(J101-Pad10)*
X156712000Y-70352000D03*
G04 #@! TO.P,J101,11*
G04 #@! TO.N,A*
X156712000Y-61212000D03*
G04 #@! TO.P,J101,12*
G04 #@! TO.N,Net-(J101-Pad12)*
X156712000Y-58922000D03*
D12*
G04 #@! TO.P,J101,SH*
G04 #@! TO.N,GND*
X151002000Y-73912000D03*
X151002000Y-57652000D03*
G04 #@! TD*
G04 #@! TO.P,C102,1*
G04 #@! TO.N,+5V*
G04 #@! TA.AperFunction,SMDPad,CuDef*
G36*
G01*
X175534900Y-56305200D02*
X175534900Y-57255200D01*
G75*
G02*
X175284900Y-57505200I-250000J0D01*
G01*
X174609900Y-57505200D01*
G75*
G02*
X174359900Y-57255200I0J250000D01*
G01*
X174359900Y-56305200D01*
G75*
G02*
X174609900Y-56055200I250000J0D01*
G01*
X175284900Y-56055200D01*
G75*
G02*
X175534900Y-56305200I0J-250000D01*
G01*
G37*
G04 #@! TD.AperFunction*
G04 #@! TO.P,C102,2*
G04 #@! TO.N,GND*
G04 #@! TA.AperFunction,SMDPad,CuDef*
G36*
G01*
X173459900Y-56305200D02*
X173459900Y-57255200D01*
G75*
G02*
X173209900Y-57505200I-250000J0D01*
G01*
X172534900Y-57505200D01*
G75*
G02*
X172284900Y-57255200I0J250000D01*
G01*
X172284900Y-56305200D01*
G75*
G02*
X172534900Y-56055200I250000J0D01*
G01*
X173209900Y-56055200D01*
G75*
G02*
X173459900Y-56305200I0J-250000D01*
G01*
G37*
G04 #@! TD.AperFunction*
G04 #@! TD*
G04 #@! TO.P,R103,1*
G04 #@! TO.N,+5V*
G04 #@! TA.AperFunction,SMDPad,CuDef*
G36*
G01*
X163128000Y-58478000D02*
X163128000Y-59378000D01*
G75*
G02*
X162878000Y-59628000I-250000J0D01*
G01*
X162178000Y-59628000D01*
G75*
G02*
X161928000Y-59378000I0J250000D01*
G01*
X161928000Y-58478000D01*
G75*
G02*
X162178000Y-58228000I250000J0D01*
G01*
X162878000Y-58228000D01*
G75*
G02*
X163128000Y-58478000I0J-250000D01*
G01*
G37*
G04 #@! TD.AperFunction*
G04 #@! TO.P,R103,2*
G04 #@! TO.N,Net-(J101-Pad12)*
G04 #@! TA.AperFunction,SMDPad,CuDef*
G36*
G01*
X161128000Y-58478000D02*
X161128000Y-59378000D01*
G75*
G02*
X160878000Y-59628000I-250000J0D01*
G01*
X160178000Y-59628000D01*
G75*
G02*
X159928000Y-59378000I0J250000D01*
G01*
X159928000Y-58478000D01*
G75*
G02*
X160178000Y-58228000I250000J0D01*
G01*
X160878000Y-58228000D01*
G75*
G02*
X161128000Y-58478000I0J-250000D01*
G01*
G37*
G04 #@! TD.AperFunction*
G04 #@! TD*
G04 #@! TO.P,R102,1*
G04 #@! TO.N,+5V*
G04 #@! TA.AperFunction,SMDPad,CuDef*
G36*
G01*
X163128000Y-69654000D02*
X163128000Y-70554000D01*
G75*
G02*
X162878000Y-70804000I-250000J0D01*
G01*
X162178000Y-70804000D01*
G75*
G02*
X161928000Y-70554000I0J250000D01*
G01*
X161928000Y-69654000D01*
G75*
G02*
X162178000Y-69404000I250000J0D01*
G01*
X162878000Y-69404000D01*
G75*
G02*
X163128000Y-69654000I0J-250000D01*
G01*
G37*
G04 #@! TD.AperFunction*
G04 #@! TO.P,R102,2*
G04 #@! TO.N,Net-(J101-Pad10)*
G04 #@! TA.AperFunction,SMDPad,CuDef*
G36*
G01*
X161128000Y-69654000D02*
X161128000Y-70554000D01*
G75*
G02*
X160878000Y-70804000I-250000J0D01*
G01*
X160178000Y-70804000D01*
G75*
G02*
X159928000Y-70554000I0J250000D01*
G01*
X159928000Y-69654000D01*
G75*
G02*
X160178000Y-69404000I250000J0D01*
G01*
X160878000Y-69404000D01*
G75*
G02*
X161128000Y-69654000I0J-250000D01*
G01*
G37*
G04 #@! TD.AperFunction*
G04 #@! TD*
G04 #@! TO.P,R105,1*
G04 #@! TO.N,+5V*
G04 #@! TA.AperFunction,SMDPad,CuDef*
G36*
G01*
X175504400Y-74618200D02*
X175504400Y-75518200D01*
G75*
G02*
X175254400Y-75768200I-250000J0D01*
G01*
X174554400Y-75768200D01*
G75*
G02*
X174304400Y-75518200I0J250000D01*
G01*
X174304400Y-74618200D01*
G75*
G02*
X174554400Y-74368200I250000J0D01*
G01*
X175254400Y-74368200D01*
G75*
G02*
X175504400Y-74618200I0J-250000D01*
G01*
G37*
G04 #@! TD.AperFunction*
G04 #@! TO.P,R105,2*
G04 #@! TO.N,Net-(U103-DE)*
G04 #@! TA.AperFunction,SMDPad,CuDef*
G36*
G01*
X173504400Y-74618200D02*
X173504400Y-75518200D01*
G75*
G02*
X173254400Y-75768200I-250000J0D01*
G01*
X172554400Y-75768200D01*
G75*
G02*
X172304400Y-75518200I0J250000D01*
G01*
X172304400Y-74618200D01*
G75*
G02*
X172554400Y-74368200I250000J0D01*
G01*
X173254400Y-74368200D01*
G75*
G02*
X173504400Y-74618200I0J-250000D01*
G01*
G37*
G04 #@! TD.AperFunction*
G04 #@! TD*
G04 #@! TO.P,U103,1,NC*
G04 #@! TO.N,unconnected-(U103-NC-Pad1)*
G04 #@! TA.AperFunction,SMDPad,CuDef*
G36*
G01*
X174856000Y-77068000D02*
X175156000Y-77068000D01*
G75*
G02*
X175306000Y-77218000I0J-150000D01*
G01*
X175306000Y-78868000D01*
G75*
G02*
X175156000Y-79018000I-150000J0D01*
G01*
X174856000Y-79018000D01*
G75*
G02*
X174706000Y-78868000I0J150000D01*
G01*
X174706000Y-77218000D01*
G75*
G02*
X174856000Y-77068000I150000J0D01*
G01*
G37*
G04 #@! TD.AperFunction*
G04 #@! TO.P,U103,2,RO*
G04 #@! TO.N,unconnected-(U103-RO-Pad2)*
G04 #@! TA.AperFunction,SMDPad,CuDef*
G36*
G01*
X173586000Y-77068000D02*
X173886000Y-77068000D01*
G75*
G02*
X174036000Y-77218000I0J-150000D01*
G01*
X174036000Y-78868000D01*
G75*
G02*
X173886000Y-79018000I-150000J0D01*
G01*
X173586000Y-79018000D01*
G75*
G02*
X173436000Y-78868000I0J150000D01*
G01*
X173436000Y-77218000D01*
G75*
G02*
X173586000Y-77068000I150000J0D01*
G01*
G37*
G04 #@! TD.AperFunction*
G04 #@! TO.P,U103,3,~{RE}*
G04 #@! TO.N,Net-(U103-DE)*
G04 #@! TA.AperFunction,SMDPad,CuDef*
G36*
G01*
X172316000Y-77068000D02*
X172616000Y-77068000D01*
G75*
G02*
X172766000Y-77218000I0J-150000D01*
G01*
X172766000Y-78868000D01*
G75*
G02*
X172616000Y-79018000I-150000J0D01*
G01*
X172316000Y-79018000D01*
G75*
G02*
X172166000Y-78868000I0J150000D01*
G01*
X172166000Y-77218000D01*
G75*
G02*
X172316000Y-77068000I150000J0D01*
G01*
G37*
G04 #@! TD.AperFunction*
G04 #@! TO.P,U103,4,DE*
G04 #@! TA.AperFunction,SMDPad,CuDef*
G36*
G01*
X171046000Y-77068000D02*
X171346000Y-77068000D01*
G75*
G02*
X171496000Y-77218000I0J-150000D01*
G01*
X171496000Y-78868000D01*
G75*
G02*
X171346000Y-79018000I-150000J0D01*
G01*
X171046000Y-79018000D01*
G75*
G02*
X170896000Y-78868000I0J150000D01*
G01*
X170896000Y-77218000D01*
G75*
G02*
X171046000Y-77068000I150000J0D01*
G01*
G37*
G04 #@! TD.AperFunction*
G04 #@! TO.P,U103,5,DI*
G04 #@! TO.N,I*
G04 #@! TA.AperFunction,SMDPad,CuDef*
G36*
G01*
X169776000Y-77068000D02*
X170076000Y-77068000D01*
G75*
G02*
X170226000Y-77218000I0J-150000D01*
G01*
X170226000Y-78868000D01*
G75*
G02*
X170076000Y-79018000I-150000J0D01*
G01*
X169776000Y-79018000D01*
G75*
G02*
X169626000Y-78868000I0J150000D01*
G01*
X169626000Y-77218000D01*
G75*
G02*
X169776000Y-77068000I150000J0D01*
G01*
G37*
G04 #@! TD.AperFunction*
G04 #@! TO.P,U103,6,GND*
G04 #@! TO.N,GND*
G04 #@! TA.AperFunction,SMDPad,CuDef*
G36*
G01*
X168506000Y-77068000D02*
X168806000Y-77068000D01*
G75*
G02*
X168956000Y-77218000I0J-150000D01*
G01*
X168956000Y-78868000D01*
G75*
G02*
X168806000Y-79018000I-150000J0D01*
G01*
X168506000Y-79018000D01*
G75*
G02*
X168356000Y-78868000I0J150000D01*
G01*
X168356000Y-77218000D01*
G75*
G02*
X168506000Y-77068000I150000J0D01*
G01*
G37*
G04 #@! TD.AperFunction*
G04 #@! TO.P,U103,7,GND*
G04 #@! TA.AperFunction,SMDPad,CuDef*
G36*
G01*
X167236000Y-77068000D02*
X167536000Y-77068000D01*
G75*
G02*
X167686000Y-77218000I0J-150000D01*
G01*
X167686000Y-78868000D01*
G75*
G02*
X167536000Y-79018000I-150000J0D01*
G01*
X167236000Y-79018000D01*
G75*
G02*
X167086000Y-78868000I0J150000D01*
G01*
X167086000Y-77218000D01*
G75*
G02*
X167236000Y-77068000I150000J0D01*
G01*
G37*
G04 #@! TD.AperFunction*
G04 #@! TO.P,U103,8,NC*
G04 #@! TO.N,unconnected-(U103-NC-Pad8)*
G04 #@! TA.AperFunction,SMDPad,CuDef*
G36*
G01*
X167236000Y-82018000D02*
X167536000Y-82018000D01*
G75*
G02*
X167686000Y-82168000I0J-150000D01*
G01*
X167686000Y-83818000D01*
G75*
G02*
X167536000Y-83968000I-150000J0D01*
G01*
X167236000Y-83968000D01*
G75*
G02*
X167086000Y-83818000I0J150000D01*
G01*
X167086000Y-82168000D01*
G75*
G02*
X167236000Y-82018000I150000J0D01*
G01*
G37*
G04 #@! TD.AperFunction*
G04 #@! TO.P,U103,9,Y*
G04 #@! TO.N,i+*
G04 #@! TA.AperFunction,SMDPad,CuDef*
G36*
G01*
X168506000Y-82018000D02*
X168806000Y-82018000D01*
G75*
G02*
X168956000Y-82168000I0J-150000D01*
G01*
X168956000Y-83818000D01*
G75*
G02*
X168806000Y-83968000I-150000J0D01*
G01*
X168506000Y-83968000D01*
G75*
G02*
X168356000Y-83818000I0J150000D01*
G01*
X168356000Y-82168000D01*
G75*
G02*
X168506000Y-82018000I150000J0D01*
G01*
G37*
G04 #@! TD.AperFunction*
G04 #@! TO.P,U103,10,Z*
G04 #@! TO.N,i-*
G04 #@! TA.AperFunction,SMDPad,CuDef*
G36*
G01*
X169776000Y-82018000D02*
X170076000Y-82018000D01*
G75*
G02*
X170226000Y-82168000I0J-150000D01*
G01*
X170226000Y-83818000D01*
G75*
G02*
X170076000Y-83968000I-150000J0D01*
G01*
X169776000Y-83968000D01*
G75*
G02*
X169626000Y-83818000I0J150000D01*
G01*
X169626000Y-82168000D01*
G75*
G02*
X169776000Y-82018000I150000J0D01*
G01*
G37*
G04 #@! TD.AperFunction*
G04 #@! TO.P,U103,11,B*
G04 #@! TO.N,unconnected-(U103-B-Pad11)*
G04 #@! TA.AperFunction,SMDPad,CuDef*
G36*
G01*
X171046000Y-82018000D02*
X171346000Y-82018000D01*
G75*
G02*
X171496000Y-82168000I0J-150000D01*
G01*
X171496000Y-83818000D01*
G75*
G02*
X171346000Y-83968000I-150000J0D01*
G01*
X171046000Y-83968000D01*
G75*
G02*
X170896000Y-83818000I0J150000D01*
G01*
X170896000Y-82168000D01*
G75*
G02*
X171046000Y-82018000I150000J0D01*
G01*
G37*
G04 #@! TD.AperFunction*
G04 #@! TO.P,U103,12,A*
G04 #@! TO.N,unconnected-(U103-A-Pad12)*
G04 #@! TA.AperFunction,SMDPad,CuDef*
G36*
G01*
X172316000Y-82018000D02*
X172616000Y-82018000D01*
G75*
G02*
X172766000Y-82168000I0J-150000D01*
G01*
X172766000Y-83818000D01*
G75*
G02*
X172616000Y-83968000I-150000J0D01*
G01*
X172316000Y-83968000D01*
G75*
G02*
X172166000Y-83818000I0J150000D01*
G01*
X172166000Y-82168000D01*
G75*
G02*
X172316000Y-82018000I150000J0D01*
G01*
G37*
G04 #@! TD.AperFunction*
G04 #@! TO.P,U103,13,NC*
G04 #@! TO.N,unconnected-(U103-NC-Pad13)*
G04 #@! TA.AperFunction,SMDPad,CuDef*
G36*
G01*
X173586000Y-82018000D02*
X173886000Y-82018000D01*
G75*
G02*
X174036000Y-82168000I0J-150000D01*
G01*
X174036000Y-83818000D01*
G75*
G02*
X173886000Y-83968000I-150000J0D01*
G01*
X173586000Y-83968000D01*
G75*
G02*
X173436000Y-83818000I0J150000D01*
G01*
X173436000Y-82168000D01*
G75*
G02*
X173586000Y-82018000I150000J0D01*
G01*
G37*
G04 #@! TD.AperFunction*
G04 #@! TO.P,U103,14,VCC*
G04 #@! TO.N,+5V*
G04 #@! TA.AperFunction,SMDPad,CuDef*
G36*
G01*
X174856000Y-82018000D02*
X175156000Y-82018000D01*
G75*
G02*
X175306000Y-82168000I0J-150000D01*
G01*
X175306000Y-83818000D01*
G75*
G02*
X175156000Y-83968000I-150000J0D01*
G01*
X174856000Y-83968000D01*
G75*
G02*
X174706000Y-83818000I0J150000D01*
G01*
X174706000Y-82168000D01*
G75*
G02*
X174856000Y-82018000I150000J0D01*
G01*
G37*
G04 #@! TD.AperFunction*
G04 #@! TD*
G04 #@! TO.P,U102,1,NC*
G04 #@! TO.N,unconnected-(U102-NC-Pad1)*
G04 #@! TA.AperFunction,SMDPad,CuDef*
G36*
G01*
X174856000Y-47604000D02*
X175156000Y-47604000D01*
G75*
G02*
X175306000Y-47754000I0J-150000D01*
G01*
X175306000Y-49404000D01*
G75*
G02*
X175156000Y-49554000I-150000J0D01*
G01*
X174856000Y-49554000D01*
G75*
G02*
X174706000Y-49404000I0J150000D01*
G01*
X174706000Y-47754000D01*
G75*
G02*
X174856000Y-47604000I150000J0D01*
G01*
G37*
G04 #@! TD.AperFunction*
G04 #@! TO.P,U102,2,RO*
G04 #@! TO.N,unconnected-(U102-RO-Pad2)*
G04 #@! TA.AperFunction,SMDPad,CuDef*
G36*
G01*
X173586000Y-47604000D02*
X173886000Y-47604000D01*
G75*
G02*
X174036000Y-47754000I0J-150000D01*
G01*
X174036000Y-49404000D01*
G75*
G02*
X173886000Y-49554000I-150000J0D01*
G01*
X173586000Y-49554000D01*
G75*
G02*
X173436000Y-49404000I0J150000D01*
G01*
X173436000Y-47754000D01*
G75*
G02*
X173586000Y-47604000I150000J0D01*
G01*
G37*
G04 #@! TD.AperFunction*
G04 #@! TO.P,U102,3,~{RE}*
G04 #@! TO.N,Net-(U102-DE)*
G04 #@! TA.AperFunction,SMDPad,CuDef*
G36*
G01*
X172316000Y-47604000D02*
X172616000Y-47604000D01*
G75*
G02*
X172766000Y-47754000I0J-150000D01*
G01*
X172766000Y-49404000D01*
G75*
G02*
X172616000Y-49554000I-150000J0D01*
G01*
X172316000Y-49554000D01*
G75*
G02*
X172166000Y-49404000I0J150000D01*
G01*
X172166000Y-47754000D01*
G75*
G02*
X172316000Y-47604000I150000J0D01*
G01*
G37*
G04 #@! TD.AperFunction*
G04 #@! TO.P,U102,4,DE*
G04 #@! TA.AperFunction,SMDPad,CuDef*
G36*
G01*
X171046000Y-47604000D02*
X171346000Y-47604000D01*
G75*
G02*
X171496000Y-47754000I0J-150000D01*
G01*
X171496000Y-49404000D01*
G75*
G02*
X171346000Y-49554000I-150000J0D01*
G01*
X171046000Y-49554000D01*
G75*
G02*
X170896000Y-49404000I0J150000D01*
G01*
X170896000Y-47754000D01*
G75*
G02*
X171046000Y-47604000I150000J0D01*
G01*
G37*
G04 #@! TD.AperFunction*
G04 #@! TO.P,U102,5,DI*
G04 #@! TO.N,B*
G04 #@! TA.AperFunction,SMDPad,CuDef*
G36*
G01*
X169776000Y-47604000D02*
X170076000Y-47604000D01*
G75*
G02*
X170226000Y-47754000I0J-150000D01*
G01*
X170226000Y-49404000D01*
G75*
G02*
X170076000Y-49554000I-150000J0D01*
G01*
X169776000Y-49554000D01*
G75*
G02*
X169626000Y-49404000I0J150000D01*
G01*
X169626000Y-47754000D01*
G75*
G02*
X169776000Y-47604000I150000J0D01*
G01*
G37*
G04 #@! TD.AperFunction*
G04 #@! TO.P,U102,6,GND*
G04 #@! TO.N,GND*
G04 #@! TA.AperFunction,SMDPad,CuDef*
G36*
G01*
X168506000Y-47604000D02*
X168806000Y-47604000D01*
G75*
G02*
X168956000Y-47754000I0J-150000D01*
G01*
X168956000Y-49404000D01*
G75*
G02*
X168806000Y-49554000I-150000J0D01*
G01*
X168506000Y-49554000D01*
G75*
G02*
X168356000Y-49404000I0J150000D01*
G01*
X168356000Y-47754000D01*
G75*
G02*
X168506000Y-47604000I150000J0D01*
G01*
G37*
G04 #@! TD.AperFunction*
G04 #@! TO.P,U102,7,GND*
G04 #@! TA.AperFunction,SMDPad,CuDef*
G36*
G01*
X167236000Y-47604000D02*
X167536000Y-47604000D01*
G75*
G02*
X167686000Y-47754000I0J-150000D01*
G01*
X167686000Y-49404000D01*
G75*
G02*
X167536000Y-49554000I-150000J0D01*
G01*
X167236000Y-49554000D01*
G75*
G02*
X167086000Y-49404000I0J150000D01*
G01*
X167086000Y-47754000D01*
G75*
G02*
X167236000Y-47604000I150000J0D01*
G01*
G37*
G04 #@! TD.AperFunction*
G04 #@! TO.P,U102,8,NC*
G04 #@! TO.N,unconnected-(U102-NC-Pad8)*
G04 #@! TA.AperFunction,SMDPad,CuDef*
G36*
G01*
X167236000Y-52554000D02*
X167536000Y-52554000D01*
G75*
G02*
X167686000Y-52704000I0J-150000D01*
G01*
X167686000Y-54354000D01*
G75*
G02*
X167536000Y-54504000I-150000J0D01*
G01*
X167236000Y-54504000D01*
G75*
G02*
X167086000Y-54354000I0J150000D01*
G01*
X167086000Y-52704000D01*
G75*
G02*
X167236000Y-52554000I150000J0D01*
G01*
G37*
G04 #@! TD.AperFunction*
G04 #@! TO.P,U102,9,Y*
G04 #@! TO.N,b+*
G04 #@! TA.AperFunction,SMDPad,CuDef*
G36*
G01*
X168506000Y-52554000D02*
X168806000Y-52554000D01*
G75*
G02*
X168956000Y-52704000I0J-150000D01*
G01*
X168956000Y-54354000D01*
G75*
G02*
X168806000Y-54504000I-150000J0D01*
G01*
X168506000Y-54504000D01*
G75*
G02*
X168356000Y-54354000I0J150000D01*
G01*
X168356000Y-52704000D01*
G75*
G02*
X168506000Y-52554000I150000J0D01*
G01*
G37*
G04 #@! TD.AperFunction*
G04 #@! TO.P,U102,10,Z*
G04 #@! TO.N,b-*
G04 #@! TA.AperFunction,SMDPad,CuDef*
G36*
G01*
X169776000Y-52554000D02*
X170076000Y-52554000D01*
G75*
G02*
X170226000Y-52704000I0J-150000D01*
G01*
X170226000Y-54354000D01*
G75*
G02*
X170076000Y-54504000I-150000J0D01*
G01*
X169776000Y-54504000D01*
G75*
G02*
X169626000Y-54354000I0J150000D01*
G01*
X169626000Y-52704000D01*
G75*
G02*
X169776000Y-52554000I150000J0D01*
G01*
G37*
G04 #@! TD.AperFunction*
G04 #@! TO.P,U102,11,B*
G04 #@! TO.N,unconnected-(U102-B-Pad11)*
G04 #@! TA.AperFunction,SMDPad,CuDef*
G36*
G01*
X171046000Y-52554000D02*
X171346000Y-52554000D01*
G75*
G02*
X171496000Y-52704000I0J-150000D01*
G01*
X171496000Y-54354000D01*
G75*
G02*
X171346000Y-54504000I-150000J0D01*
G01*
X171046000Y-54504000D01*
G75*
G02*
X170896000Y-54354000I0J150000D01*
G01*
X170896000Y-52704000D01*
G75*
G02*
X171046000Y-52554000I150000J0D01*
G01*
G37*
G04 #@! TD.AperFunction*
G04 #@! TO.P,U102,12,A*
G04 #@! TO.N,unconnected-(U102-A-Pad12)*
G04 #@! TA.AperFunction,SMDPad,CuDef*
G36*
G01*
X172316000Y-52554000D02*
X172616000Y-52554000D01*
G75*
G02*
X172766000Y-52704000I0J-150000D01*
G01*
X172766000Y-54354000D01*
G75*
G02*
X172616000Y-54504000I-150000J0D01*
G01*
X172316000Y-54504000D01*
G75*
G02*
X172166000Y-54354000I0J150000D01*
G01*
X172166000Y-52704000D01*
G75*
G02*
X172316000Y-52554000I150000J0D01*
G01*
G37*
G04 #@! TD.AperFunction*
G04 #@! TO.P,U102,13,NC*
G04 #@! TO.N,unconnected-(U102-NC-Pad13)*
G04 #@! TA.AperFunction,SMDPad,CuDef*
G36*
G01*
X173586000Y-52554000D02*
X173886000Y-52554000D01*
G75*
G02*
X174036000Y-52704000I0J-150000D01*
G01*
X174036000Y-54354000D01*
G75*
G02*
X173886000Y-54504000I-150000J0D01*
G01*
X173586000Y-54504000D01*
G75*
G02*
X173436000Y-54354000I0J150000D01*
G01*
X173436000Y-52704000D01*
G75*
G02*
X173586000Y-52554000I150000J0D01*
G01*
G37*
G04 #@! TD.AperFunction*
G04 #@! TO.P,U102,14,VCC*
G04 #@! TO.N,+5V*
G04 #@! TA.AperFunction,SMDPad,CuDef*
G36*
G01*
X174856000Y-52554000D02*
X175156000Y-52554000D01*
G75*
G02*
X175306000Y-52704000I0J-150000D01*
G01*
X175306000Y-54354000D01*
G75*
G02*
X175156000Y-54504000I-150000J0D01*
G01*
X174856000Y-54504000D01*
G75*
G02*
X174706000Y-54354000I0J150000D01*
G01*
X174706000Y-52704000D01*
G75*
G02*
X174856000Y-52554000I150000J0D01*
G01*
G37*
G04 #@! TD.AperFunction*
G04 #@! TD*
G04 #@! TO.P,R104,1*
G04 #@! TO.N,+5V*
G04 #@! TA.AperFunction,SMDPad,CuDef*
G36*
G01*
X175488400Y-45154200D02*
X175488400Y-46054200D01*
G75*
G02*
X175238400Y-46304200I-250000J0D01*
G01*
X174538400Y-46304200D01*
G75*
G02*
X174288400Y-46054200I0J250000D01*
G01*
X174288400Y-45154200D01*
G75*
G02*
X174538400Y-44904200I250000J0D01*
G01*
X175238400Y-44904200D01*
G75*
G02*
X175488400Y-45154200I0J-250000D01*
G01*
G37*
G04 #@! TD.AperFunction*
G04 #@! TO.P,R104,2*
G04 #@! TO.N,Net-(U102-DE)*
G04 #@! TA.AperFunction,SMDPad,CuDef*
G36*
G01*
X173488400Y-45154200D02*
X173488400Y-46054200D01*
G75*
G02*
X173238400Y-46304200I-250000J0D01*
G01*
X172538400Y-46304200D01*
G75*
G02*
X172288400Y-46054200I0J250000D01*
G01*
X172288400Y-45154200D01*
G75*
G02*
X172538400Y-44904200I250000J0D01*
G01*
X173238400Y-44904200D01*
G75*
G02*
X173488400Y-45154200I0J-250000D01*
G01*
G37*
G04 #@! TD.AperFunction*
G04 #@! TD*
G04 #@! TO.P,C103,1*
G04 #@! TO.N,+5V*
G04 #@! TA.AperFunction,SMDPad,CuDef*
G36*
G01*
X175534900Y-85769200D02*
X175534900Y-86719200D01*
G75*
G02*
X175284900Y-86969200I-250000J0D01*
G01*
X174609900Y-86969200D01*
G75*
G02*
X174359900Y-86719200I0J250000D01*
G01*
X174359900Y-85769200D01*
G75*
G02*
X174609900Y-85519200I250000J0D01*
G01*
X175284900Y-85519200D01*
G75*
G02*
X175534900Y-85769200I0J-250000D01*
G01*
G37*
G04 #@! TD.AperFunction*
G04 #@! TO.P,C103,2*
G04 #@! TO.N,GND*
G04 #@! TA.AperFunction,SMDPad,CuDef*
G36*
G01*
X173459900Y-85769200D02*
X173459900Y-86719200D01*
G75*
G02*
X173209900Y-86969200I-250000J0D01*
G01*
X172534900Y-86969200D01*
G75*
G02*
X172284900Y-86719200I0J250000D01*
G01*
X172284900Y-85769200D01*
G75*
G02*
X172534900Y-85519200I250000J0D01*
G01*
X173209900Y-85519200D01*
G75*
G02*
X173459900Y-85769200I0J-250000D01*
G01*
G37*
G04 #@! TD.AperFunction*
G04 #@! TD*
G04 #@! TO.P,R101,1*
G04 #@! TO.N,+5V*
G04 #@! TA.AperFunction,SMDPad,CuDef*
G36*
G01*
X175488400Y-59886200D02*
X175488400Y-60786200D01*
G75*
G02*
X175238400Y-61036200I-250000J0D01*
G01*
X174538400Y-61036200D01*
G75*
G02*
X174288400Y-60786200I0J250000D01*
G01*
X174288400Y-59886200D01*
G75*
G02*
X174538400Y-59636200I250000J0D01*
G01*
X175238400Y-59636200D01*
G75*
G02*
X175488400Y-59886200I0J-250000D01*
G01*
G37*
G04 #@! TD.AperFunction*
G04 #@! TO.P,R101,2*
G04 #@! TO.N,Net-(U101-DE)*
G04 #@! TA.AperFunction,SMDPad,CuDef*
G36*
G01*
X173488400Y-59886200D02*
X173488400Y-60786200D01*
G75*
G02*
X173238400Y-61036200I-250000J0D01*
G01*
X172538400Y-61036200D01*
G75*
G02*
X172288400Y-60786200I0J250000D01*
G01*
X172288400Y-59886200D01*
G75*
G02*
X172538400Y-59636200I250000J0D01*
G01*
X173238400Y-59636200D01*
G75*
G02*
X173488400Y-59886200I0J-250000D01*
G01*
G37*
G04 #@! TD.AperFunction*
G04 #@! TD*
D13*
G04 #@! TO.P,J102,1,Pin_1*
G04 #@! TO.N,B*
X192024000Y-56896000D03*
D14*
G04 #@! TO.P,J102,2,Pin_2*
G04 #@! TO.N,+5V*
X189484000Y-56896000D03*
G04 #@! TO.P,J102,3,Pin_3*
G04 #@! TO.N,A*
X192024000Y-59436000D03*
G04 #@! TO.P,J102,4,Pin_4*
G04 #@! TO.N,unconnected-(J102-Pin_4-Pad4)*
X189484000Y-59436000D03*
G04 #@! TO.P,J102,5,Pin_5*
G04 #@! TO.N,I*
X192024000Y-61976000D03*
G04 #@! TO.P,J102,6,Pin_6*
G04 #@! TO.N,unconnected-(J102-Pin_6-Pad6)*
X189484000Y-61976000D03*
G04 #@! TO.P,J102,7,Pin_7*
G04 #@! TO.N,test*
X192024000Y-64516000D03*
G04 #@! TO.P,J102,8,Pin_8*
G04 #@! TO.N,csn*
X189484000Y-64516000D03*
G04 #@! TO.P,J102,9,Pin_9*
G04 #@! TO.N,unconnected-(J102-Pin_9-Pad9)*
X192024000Y-67056000D03*
G04 #@! TO.P,J102,10,Pin_10*
G04 #@! TO.N,clk*
X189484000Y-67056000D03*
G04 #@! TO.P,J102,11,Pin_11*
G04 #@! TO.N,W*
X192024000Y-69596000D03*
G04 #@! TO.P,J102,12,Pin_12*
G04 #@! TO.N,mosi*
X189484000Y-69596000D03*
G04 #@! TO.P,J102,13,Pin_13*
G04 #@! TO.N,v*
X192024000Y-72136000D03*
G04 #@! TO.P,J102,14,Pin_14*
G04 #@! TO.N,miso*
X189484000Y-72136000D03*
G04 #@! TO.P,J102,15,Pin_15*
G04 #@! TO.N,u*
X192024000Y-74676000D03*
G04 #@! TO.P,J102,16,Pin_16*
G04 #@! TO.N,GND*
X189484000Y-74676000D03*
G04 #@! TD*
G04 #@! TO.P,C101,1*
G04 #@! TO.N,+5V*
G04 #@! TA.AperFunction,SMDPad,CuDef*
G36*
G01*
X175534900Y-71037200D02*
X175534900Y-71987200D01*
G75*
G02*
X175284900Y-72237200I-250000J0D01*
G01*
X174609900Y-72237200D01*
G75*
G02*
X174359900Y-71987200I0J250000D01*
G01*
X174359900Y-71037200D01*
G75*
G02*
X174609900Y-70787200I250000J0D01*
G01*
X175284900Y-70787200D01*
G75*
G02*
X175534900Y-71037200I0J-250000D01*
G01*
G37*
G04 #@! TD.AperFunction*
G04 #@! TO.P,C101,2*
G04 #@! TO.N,GND*
G04 #@! TA.AperFunction,SMDPad,CuDef*
G36*
G01*
X173459900Y-71037200D02*
X173459900Y-71987200D01*
G75*
G02*
X173209900Y-72237200I-250000J0D01*
G01*
X172534900Y-72237200D01*
G75*
G02*
X172284900Y-71987200I0J250000D01*
G01*
X172284900Y-71037200D01*
G75*
G02*
X172534900Y-70787200I250000J0D01*
G01*
X173209900Y-70787200D01*
G75*
G02*
X173459900Y-71037200I0J-250000D01*
G01*
G37*
G04 #@! TD.AperFunction*
G04 #@! TD*
D15*
G04 #@! TO.N,+5V*
X163068000Y-72390000D03*
G04 #@! TO.N,GND*
X171196000Y-56642000D03*
X158877000Y-76708000D03*
X167386000Y-75946000D03*
X189484000Y-77978000D03*
X162941000Y-64897000D03*
X152527000Y-70739000D03*
X165862000Y-61722000D03*
X170942000Y-71628000D03*
X167894000Y-46482000D03*
X171196000Y-86360000D03*
X160909000Y-63373000D03*
X152781000Y-60325000D03*
G04 #@! TO.N,i+*
X156718000Y-77978000D03*
G04 #@! TO.N,b+*
X159512000Y-55372000D03*
G04 #@! TO.N,b-*
X159726389Y-56683113D03*
G04 #@! TO.N,i-*
X159512000Y-65278000D03*
G04 #@! TO.N,a+*
X159258000Y-62992000D03*
G04 #@! TO.N,a-*
X159258000Y-61722000D03*
G04 #@! TD*
D16*
G04 #@! TO.N,+5V*
X175006000Y-52790210D02*
X175006000Y-53529000D01*
X159959765Y-64197000D02*
X158934235Y-64197000D01*
X163068000Y-70644000D02*
X162528000Y-70104000D01*
X163068000Y-72390000D02*
X163830000Y-73152000D01*
X164084000Y-47498000D02*
X164084000Y-49530000D01*
D17*
X174947400Y-86244200D02*
X173831900Y-87359700D01*
D16*
X174947400Y-56780200D02*
X175063200Y-56896000D01*
X172718200Y-43434000D02*
X168148000Y-43434000D01*
X168148000Y-43434000D02*
X164465000Y-47117000D01*
X156923446Y-63305765D02*
X154940000Y-61322319D01*
X175006000Y-68261000D02*
X175006000Y-71453600D01*
D17*
X154473500Y-61788819D02*
X154940000Y-61322319D01*
D16*
X175063200Y-56896000D02*
X189484000Y-56896000D01*
X174947400Y-58928000D02*
X174947400Y-60277200D01*
D17*
X175006000Y-82993000D02*
X175006000Y-86185600D01*
D16*
X173777790Y-51562000D02*
X175006000Y-52790210D01*
X154940000Y-56642000D02*
X164465000Y-47117000D01*
X175006000Y-71570800D02*
X174947400Y-71512200D01*
X163068000Y-72390000D02*
X163068000Y-70644000D01*
X175006000Y-71453600D02*
X174947400Y-71512200D01*
X174947400Y-60277200D02*
X174888400Y-60336200D01*
X162528000Y-58928000D02*
X174947400Y-58928000D01*
D17*
X175006000Y-86185600D02*
X174947400Y-86244200D01*
D16*
X175006000Y-73152000D02*
X175006000Y-71570800D01*
X175006000Y-73152000D02*
X175006000Y-74966600D01*
X162528000Y-70104000D02*
X162528000Y-66765235D01*
X158934235Y-64197000D02*
X158043000Y-63305765D01*
X162528000Y-66765235D02*
X159959765Y-64197000D01*
X175006000Y-74966600D02*
X174904400Y-75068200D01*
X158043000Y-63305765D02*
X156923446Y-63305765D01*
X166116000Y-51562000D02*
X173777790Y-51562000D01*
X164465000Y-47117000D02*
X164084000Y-47498000D01*
X174888400Y-45604200D02*
X172718200Y-43434000D01*
X174947400Y-56780200D02*
X174947400Y-58928000D01*
X174947400Y-53587600D02*
X175006000Y-53529000D01*
D17*
X173831900Y-87359700D02*
X164840342Y-87359700D01*
D16*
X154940000Y-61322319D02*
X154940000Y-56642000D01*
X174947400Y-56780200D02*
X174947400Y-53587600D01*
X164084000Y-49530000D02*
X166116000Y-51562000D01*
X163830000Y-73152000D02*
X175006000Y-73152000D01*
D17*
X154473500Y-76992858D02*
X154473500Y-61788819D01*
X164840342Y-87359700D02*
X154473500Y-76992858D01*
G04 #@! TO.N,GND*
X189484000Y-74676000D02*
X189484000Y-77978000D01*
D18*
G04 #@! TO.N,i+*
X168064742Y-80465000D02*
X169090000Y-81490258D01*
X156718000Y-77978000D02*
X157226000Y-78486000D01*
X169090000Y-81490258D02*
X169090000Y-81884000D01*
X157226000Y-78486000D02*
X157576742Y-78486000D01*
X169090000Y-81884000D02*
X168656000Y-82318000D01*
X168656000Y-82318000D02*
X168656000Y-82993000D01*
X159555742Y-80465000D02*
X168064742Y-80465000D01*
X157576742Y-78486000D02*
X159555742Y-80465000D01*
G04 #@! TO.N,b+*
X161936000Y-55337953D02*
X161936000Y-55633000D01*
X159766000Y-55626000D02*
X160073000Y-55933000D01*
X166953486Y-55933000D02*
X168656000Y-54230486D01*
X168656000Y-54230486D02*
X168656000Y-53529000D01*
X162236000Y-55933000D02*
X165286000Y-55933000D01*
X161336000Y-55633000D02*
X161336000Y-55337953D01*
X165286000Y-55933000D02*
X166953486Y-55933000D01*
X160073000Y-55933000D02*
X161036000Y-55933000D01*
X161036000Y-55933000D02*
G75*
G03*
X161336000Y-55633000I0J300000D01*
G01*
X161636000Y-55038000D02*
G75*
G03*
X161336000Y-55337953I0J-300000D01*
G01*
X161936000Y-55633000D02*
G75*
G03*
X162236000Y-55933000I300000J0D01*
G01*
X161936047Y-55337953D02*
G75*
G03*
X161636000Y-55037953I-300047J-47D01*
G01*
G04 #@! TO.N,b-*
X168675000Y-54780000D02*
X168982455Y-54780000D01*
X167120000Y-56335000D02*
X168675000Y-54780000D01*
X168982455Y-54780000D02*
X169232000Y-54530455D01*
X169232000Y-54530455D02*
X169232000Y-54223000D01*
X159766000Y-56642000D02*
X160073000Y-56335000D01*
X169232000Y-54223000D02*
X169926000Y-53529000D01*
X160073000Y-56335000D02*
X167120000Y-56335000D01*
G04 #@! TO.N,i-*
X154940000Y-74930000D02*
X157988000Y-77978000D01*
X169492000Y-81884000D02*
X169926000Y-82318000D01*
X162374000Y-79363000D02*
X162374000Y-79763000D01*
X169492000Y-81323742D02*
X169492000Y-81884000D01*
X163574000Y-79363000D02*
X163574000Y-79763000D01*
X161774000Y-79763000D02*
X161774000Y-79363000D01*
X157988000Y-77978000D02*
X157988000Y-78328742D01*
X158551598Y-66238402D02*
X156845000Y-67945000D01*
X168231258Y-80063000D02*
X169492000Y-81323742D01*
X161174000Y-79363000D02*
X161174000Y-79763000D01*
X160574000Y-79763000D02*
X160574000Y-79363000D01*
X157988000Y-78328742D02*
X159722258Y-80063000D01*
X159722258Y-80063000D02*
X160274000Y-80063000D01*
X156845000Y-67945000D02*
X154940000Y-69850000D01*
X164524000Y-80063000D02*
X168231258Y-80063000D01*
X169926000Y-82318000D02*
X169926000Y-82993000D01*
X159512000Y-65278000D02*
X156845000Y-67945000D01*
X154940000Y-69850000D02*
X154940000Y-74930000D01*
X162974000Y-79763000D02*
X162974000Y-79363000D01*
X163874000Y-80063000D02*
X164524000Y-80063000D01*
X162674000Y-80063000D02*
G75*
G03*
X162974000Y-79763000I0J300000D01*
G01*
X160274000Y-80063000D02*
G75*
G03*
X160574000Y-79763000I0J300000D01*
G01*
X162374000Y-79363000D02*
G75*
G03*
X162074000Y-79063000I-300000J0D01*
G01*
X163574000Y-79763000D02*
G75*
G03*
X163874000Y-80063000I300000J0D01*
G01*
X163274000Y-79063000D02*
G75*
G03*
X162974000Y-79363000I0J-300000D01*
G01*
X161474000Y-80063000D02*
G75*
G03*
X161774000Y-79763000I0J300000D01*
G01*
X160874000Y-79063000D02*
G75*
G03*
X160574000Y-79363000I0J-300000D01*
G01*
X163574000Y-79363000D02*
G75*
G03*
X163274000Y-79063000I-300000J0D01*
G01*
X162374000Y-79763000D02*
G75*
G03*
X162674000Y-80063000I300000J0D01*
G01*
X161174000Y-79363000D02*
G75*
G03*
X160874000Y-79063000I-300000J0D01*
G01*
X162074000Y-79063000D02*
G75*
G03*
X161774000Y-79363000I0J-300000D01*
G01*
X161174000Y-79763000D02*
G75*
G03*
X161474000Y-80063000I300000J0D01*
G01*
G04 #@! TO.N,a+*
X159692000Y-62558000D02*
X162349742Y-62558000D01*
X168656000Y-67586000D02*
X168656000Y-68261000D01*
X169090000Y-66758258D02*
X169090000Y-67152000D01*
X168318742Y-65987000D02*
X169090000Y-66758258D01*
X162349742Y-62558000D02*
X165778742Y-65987000D01*
X159258000Y-62992000D02*
X159692000Y-62558000D01*
X165778742Y-65987000D02*
X168318742Y-65987000D01*
X169090000Y-67152000D02*
X168656000Y-67586000D01*
G04 #@! TO.N,a-*
X159258000Y-61722000D02*
X159692000Y-62156000D01*
X165800360Y-64458041D02*
X165521460Y-64736938D01*
X163824404Y-63464146D02*
X163824405Y-63464147D01*
X165800359Y-64458042D02*
X165800360Y-64458041D01*
X168485258Y-65585000D02*
X169492000Y-66591742D01*
X161936000Y-61461616D02*
X161936000Y-61856000D01*
X163400141Y-62615619D02*
X163679013Y-62336748D01*
X169492000Y-66591742D02*
X169492000Y-67152000D01*
X161336000Y-61856000D02*
X161336000Y-61461616D01*
X164672932Y-64312674D02*
X164672933Y-64312675D01*
X165097198Y-64312674D02*
X165097197Y-64312675D01*
X164951786Y-63609559D02*
X164951787Y-63609558D01*
X164103276Y-62761013D02*
X164103277Y-62761012D01*
X164951787Y-63609558D02*
X164672932Y-63888410D01*
X165945258Y-65585000D02*
X168485258Y-65585000D01*
X164248670Y-63464146D02*
X164248669Y-63464147D01*
X165521461Y-65161203D02*
X165945258Y-65585000D01*
X162236000Y-62156000D02*
X162516258Y-62156000D01*
X165521460Y-65161202D02*
X165521461Y-65161203D01*
X163400142Y-62615618D02*
X163400141Y-62615619D01*
X164248669Y-63464147D02*
X164527523Y-63185294D01*
X159692000Y-62156000D02*
X161036000Y-62156000D01*
X165097197Y-64312675D02*
X165376096Y-64033777D01*
X169926000Y-67586000D02*
X169926000Y-68261000D01*
X164103277Y-62761012D02*
X163824404Y-63039882D01*
X162516258Y-62156000D02*
X162975877Y-62615619D01*
X169492000Y-67152000D02*
X169926000Y-67586000D01*
X165800359Y-64033778D02*
G75*
G03*
X165376097Y-64033778I-212131J-212131D01*
G01*
X165800350Y-64458033D02*
G75*
G03*
X165800360Y-64033777I-212150J212133D01*
G01*
X161036000Y-62156000D02*
G75*
G03*
X161336000Y-61856000I0J300000D01*
G01*
X165521490Y-64736968D02*
G75*
G03*
X165521460Y-65161202I212110J-212132D01*
G01*
X161936000Y-61856000D02*
G75*
G03*
X162236000Y-62156000I300000J0D01*
G01*
X164672890Y-63888368D02*
G75*
G03*
X164672932Y-64312674I212210J-212132D01*
G01*
X161636000Y-61161600D02*
G75*
G03*
X161336000Y-61461616I0J-300000D01*
G01*
X164103276Y-62336749D02*
G75*
G03*
X163679014Y-62336749I-212131J-212131D01*
G01*
X164951786Y-63185295D02*
G75*
G03*
X164527524Y-63185295I-212131J-212131D01*
G01*
X164951759Y-63609532D02*
G75*
G03*
X164951786Y-63185295I-212059J212132D01*
G01*
X163824369Y-63464183D02*
G75*
G03*
X164248669Y-63464145I212131J212183D01*
G01*
X162975868Y-62615628D02*
G75*
G03*
X163400142Y-62615618I212132J212128D01*
G01*
X164103295Y-62761032D02*
G75*
G03*
X164103276Y-62336749I-212195J212132D01*
G01*
X161935984Y-61461616D02*
G75*
G03*
X161636000Y-61161616I-299984J16D01*
G01*
X163824390Y-63039868D02*
G75*
G03*
X163824404Y-63464146I212110J-212132D01*
G01*
X164672968Y-64312640D02*
G75*
G03*
X165097198Y-64312674I212132J212140D01*
G01*
D17*
G04 #@! TO.N,Net-(J101-Pad10)*
X156712000Y-70352000D02*
X160280000Y-70352000D01*
X160280000Y-70352000D02*
X160528000Y-70104000D01*
G04 #@! TO.N,Net-(J101-Pad12)*
X156712000Y-58922000D02*
X160522000Y-58922000D01*
X160522000Y-58922000D02*
X160528000Y-58928000D01*
D19*
G04 #@! TO.N,B*
X188468000Y-50546000D02*
X171333815Y-50546000D01*
X192024000Y-54102000D02*
X188468000Y-50546000D01*
X169926000Y-49138185D02*
X169926000Y-48579000D01*
X171333815Y-50546000D02*
X169926000Y-49138185D01*
X192024000Y-56896000D02*
X192024000Y-54102000D01*
D17*
G04 #@! TO.N,A*
X179832000Y-65024000D02*
X170688000Y-65024000D01*
X184179500Y-60676500D02*
X179832000Y-65024000D01*
X157462000Y-60462000D02*
X167546382Y-60462000D01*
X169926000Y-64262000D02*
X169926000Y-63311000D01*
X170688000Y-65024000D02*
X169926000Y-64262000D01*
X190783500Y-60676500D02*
X184179500Y-60676500D01*
X192024000Y-59436000D02*
X190783500Y-60676500D01*
X156712000Y-61212000D02*
X157462000Y-60462000D01*
X169926000Y-62841618D02*
X169926000Y-63311000D01*
X167546382Y-60462000D02*
X169926000Y-62841618D01*
G04 #@! TO.N,I*
X190783500Y-70050832D02*
X189938832Y-70895500D01*
X189938832Y-70895500D02*
X186660500Y-70895500D01*
X186660500Y-70895500D02*
X177546000Y-80010000D01*
X192024000Y-61976000D02*
X190783500Y-63216500D01*
X169926000Y-76962000D02*
X167894000Y-74930000D01*
X171423618Y-80010000D02*
X169926000Y-78512382D01*
X169926000Y-78512382D02*
X169926000Y-78043000D01*
X159000000Y-74930000D02*
X167894000Y-74930000D01*
X190783500Y-63216500D02*
X190783500Y-70050832D01*
X177546000Y-80010000D02*
X171423618Y-80010000D01*
X169926000Y-78043000D02*
X169926000Y-76962000D01*
X156712000Y-72642000D02*
X159000000Y-74930000D01*
D19*
G04 #@! TO.N,Net-(U101-DE)*
X172466000Y-60758600D02*
X172888400Y-60336200D01*
X172466000Y-63311000D02*
X172466000Y-60758600D01*
X171196000Y-63311000D02*
X172466000Y-63311000D01*
D17*
G04 #@! TO.N,Net-(U102-DE)*
X172466000Y-48579000D02*
X172466000Y-46026600D01*
X171196000Y-48579000D02*
X172466000Y-48579000D01*
X172466000Y-46026600D02*
X172888400Y-45604200D01*
G04 #@! TO.N,Net-(U103-DE)*
X172466000Y-78043000D02*
X172466000Y-75506600D01*
X172466000Y-78043000D02*
X171196000Y-78043000D01*
X172466000Y-75506600D02*
X172904400Y-75068200D01*
G04 #@! TD*
G04 #@! TA.AperFunction,Conductor*
G04 #@! TO.N,GND*
G36*
X167800343Y-42692185D02*
G01*
X167846098Y-42744989D01*
X167856042Y-42814147D01*
X167827017Y-42877703D01*
X167806148Y-42896848D01*
X167803397Y-42898845D01*
X167793678Y-42905227D01*
X167755403Y-42927864D01*
X167755402Y-42927865D01*
X167740893Y-42942372D01*
X167726108Y-42955000D01*
X167709513Y-42967057D01*
X167681164Y-43001324D01*
X167673303Y-43009962D01*
X164072401Y-46610866D01*
X163693922Y-46989343D01*
X163677593Y-47002426D01*
X163628898Y-47054281D01*
X163626188Y-47057077D01*
X154549922Y-56133343D01*
X154533593Y-56146426D01*
X154484897Y-56198282D01*
X154482192Y-56201074D01*
X154465112Y-56218154D01*
X154465105Y-56218161D01*
X154462361Y-56220906D01*
X154459980Y-56223974D01*
X154459966Y-56223991D01*
X154459791Y-56224218D01*
X154452222Y-56233078D01*
X154434870Y-56251557D01*
X154421781Y-56265496D01*
X154411901Y-56283467D01*
X154401224Y-56299721D01*
X154388649Y-56315932D01*
X154370986Y-56356748D01*
X154365850Y-56367232D01*
X154344430Y-56406196D01*
X154339330Y-56426061D01*
X154333029Y-56444464D01*
X154324882Y-56463290D01*
X154317926Y-56507212D01*
X154315558Y-56518645D01*
X154305326Y-56558503D01*
X154304500Y-56561719D01*
X154304500Y-56582225D01*
X154302973Y-56601624D01*
X154299765Y-56621877D01*
X154303950Y-56666150D01*
X154304500Y-56677819D01*
X154304500Y-61238470D01*
X154302204Y-61259264D01*
X154302698Y-61274979D01*
X154285127Y-61342603D01*
X154266440Y-61366552D01*
X154181431Y-61451561D01*
X154171067Y-61460824D01*
X154143609Y-61482722D01*
X154111824Y-61529340D01*
X154109144Y-61533117D01*
X154072007Y-61583436D01*
X154069837Y-61587735D01*
X154051408Y-61647477D01*
X154049960Y-61651877D01*
X154029306Y-61710902D01*
X154028500Y-61715652D01*
X154028500Y-61778194D01*
X154028413Y-61782830D01*
X154026075Y-61845309D01*
X154028500Y-61863725D01*
X154028500Y-76960911D01*
X154027720Y-76974795D01*
X154023788Y-77009686D01*
X154034275Y-77065110D01*
X154035052Y-77069679D01*
X154044376Y-77131538D01*
X154045877Y-77136098D01*
X154075094Y-77191380D01*
X154077183Y-77195518D01*
X154104319Y-77251866D01*
X154107096Y-77255780D01*
X154151309Y-77299992D01*
X154154527Y-77303332D01*
X154197071Y-77349183D01*
X154211806Y-77360489D01*
X164503086Y-87651769D01*
X164512351Y-87662136D01*
X164534247Y-87689592D01*
X164580856Y-87721369D01*
X164584615Y-87724035D01*
X164630059Y-87757575D01*
X164630061Y-87757575D01*
X164634980Y-87761206D01*
X164639242Y-87763358D01*
X164698993Y-87781788D01*
X164703399Y-87783238D01*
X164719349Y-87788819D01*
X164756677Y-87801881D01*
X164762445Y-87803899D01*
X164767157Y-87804700D01*
X164773269Y-87804700D01*
X164829702Y-87804700D01*
X164834339Y-87804787D01*
X164890729Y-87806897D01*
X164890729Y-87806896D01*
X164896829Y-87807125D01*
X164915253Y-87804700D01*
X173799954Y-87804700D01*
X173813835Y-87805479D01*
X173848727Y-87809411D01*
X173904227Y-87798909D01*
X173908663Y-87798155D01*
X173964547Y-87789733D01*
X173964550Y-87789731D01*
X173970605Y-87788819D01*
X173975112Y-87787336D01*
X173980529Y-87784472D01*
X173980534Y-87784472D01*
X174030485Y-87758071D01*
X174034518Y-87756036D01*
X174085409Y-87731529D01*
X174085411Y-87731526D01*
X174090920Y-87728874D01*
X174094810Y-87726114D01*
X174099132Y-87721791D01*
X174099135Y-87721790D01*
X174139061Y-87681862D01*
X174142375Y-87678671D01*
X174183744Y-87640287D01*
X174183746Y-87640282D01*
X174188225Y-87636127D01*
X174199529Y-87621394D01*
X174560906Y-87260018D01*
X174622229Y-87226533D01*
X174648587Y-87223699D01*
X175329843Y-87223699D01*
X175333154Y-87223699D01*
X175393242Y-87217240D01*
X175529167Y-87166542D01*
X175645304Y-87079604D01*
X175732242Y-86963467D01*
X175782940Y-86827542D01*
X175789400Y-86767455D01*
X175789399Y-85720946D01*
X175782940Y-85660858D01*
X175732242Y-85524933D01*
X175645304Y-85408796D01*
X175529167Y-85321858D01*
X175529164Y-85321857D01*
X175514895Y-85311175D01*
X175515345Y-85310573D01*
X175475730Y-85280916D01*
X175451315Y-85215451D01*
X175451000Y-85206635D01*
X175451000Y-84146409D01*
X175470685Y-84079370D01*
X175487317Y-84058731D01*
X175487326Y-84058723D01*
X175530516Y-83973959D01*
X175545498Y-83944556D01*
X175560500Y-83849836D01*
X175560500Y-82136163D01*
X175545498Y-82041443D01*
X175487326Y-81927277D01*
X175396722Y-81836673D01*
X175282556Y-81778501D01*
X175187836Y-81763500D01*
X175187834Y-81763500D01*
X174824166Y-81763500D01*
X174824164Y-81763500D01*
X174729443Y-81778501D01*
X174615277Y-81836673D01*
X174524674Y-81927276D01*
X174481484Y-82012041D01*
X174433510Y-82062836D01*
X174365689Y-82079631D01*
X174299554Y-82057093D01*
X174260516Y-82012041D01*
X174217325Y-81927276D01*
X174126722Y-81836673D01*
X174012556Y-81778501D01*
X173917836Y-81763500D01*
X173917834Y-81763500D01*
X173554166Y-81763500D01*
X173554164Y-81763500D01*
X173459443Y-81778501D01*
X173345277Y-81836673D01*
X173254674Y-81927276D01*
X173211484Y-82012041D01*
X173163510Y-82062836D01*
X173095689Y-82079631D01*
X173029554Y-82057093D01*
X172990516Y-82012041D01*
X172947325Y-81927276D01*
X172856722Y-81836673D01*
X172742556Y-81778501D01*
X172647836Y-81763500D01*
X172647834Y-81763500D01*
X172284166Y-81763500D01*
X172284164Y-81763500D01*
X172189443Y-81778501D01*
X172075277Y-81836673D01*
X171984674Y-81927276D01*
X171941484Y-82012041D01*
X171893510Y-82062836D01*
X171825689Y-82079631D01*
X171759554Y-82057093D01*
X171720516Y-82012041D01*
X171677325Y-81927276D01*
X171586722Y-81836673D01*
X171472556Y-81778501D01*
X171377836Y-81763500D01*
X171377834Y-81763500D01*
X171014166Y-81763500D01*
X171014164Y-81763500D01*
X170919443Y-81778501D01*
X170805277Y-81836673D01*
X170714674Y-81927276D01*
X170671484Y-82012041D01*
X170623510Y-82062836D01*
X170555689Y-82079631D01*
X170489554Y-82057093D01*
X170450516Y-82012041D01*
X170407325Y-81927276D01*
X170316722Y-81836673D01*
X170202556Y-81778501D01*
X170107836Y-81763500D01*
X170107834Y-81763500D01*
X169946500Y-81763500D01*
X169879461Y-81743815D01*
X169833706Y-81691011D01*
X169822500Y-81639500D01*
X169822500Y-81343567D01*
X169822972Y-81332759D01*
X169826320Y-81294492D01*
X169816368Y-81257352D01*
X169814035Y-81246827D01*
X169807359Y-81208961D01*
X169807358Y-81208959D01*
X169807195Y-81208034D01*
X169796695Y-81182683D01*
X169774115Y-81150437D01*
X169768300Y-81141309D01*
X169749083Y-81108023D01*
X169719636Y-81083314D01*
X169711661Y-81076006D01*
X168478982Y-79843326D01*
X168471673Y-79835350D01*
X168446976Y-79805917D01*
X168413693Y-79786701D01*
X168404571Y-79780889D01*
X168362273Y-79751272D01*
X168316298Y-79723246D01*
X168312166Y-79714740D01*
X168275348Y-79727380D01*
X168233034Y-79731082D01*
X168222229Y-79732028D01*
X168211422Y-79732500D01*
X167761465Y-79732500D01*
X167694426Y-79712815D01*
X167648671Y-79660011D01*
X167638727Y-79590853D01*
X167667752Y-79527297D01*
X167726530Y-79489523D01*
X167726870Y-79489424D01*
X167796197Y-79469282D01*
X167951040Y-79377709D01*
X167952173Y-79379625D01*
X167994633Y-79356437D01*
X168064325Y-79361416D01*
X168090606Y-79378306D01*
X168090960Y-79377709D01*
X168245799Y-79469280D01*
X168299132Y-79484775D01*
X168358018Y-79522381D01*
X168361446Y-79529830D01*
X168405109Y-79515875D01*
X168405364Y-79515882D01*
X168406000Y-79515294D01*
X168406000Y-78293000D01*
X166586000Y-78293000D01*
X166586000Y-78931196D01*
X166586191Y-78936076D01*
X166588900Y-78970493D01*
X166634717Y-79128197D01*
X166718317Y-79269557D01*
X166834442Y-79385682D01*
X166975802Y-79469282D01*
X167045130Y-79489424D01*
X167104016Y-79527030D01*
X167133222Y-79590502D01*
X167123476Y-79659689D01*
X167077872Y-79712624D01*
X167010889Y-79732499D01*
X167010535Y-79732500D01*
X164028500Y-79732500D01*
X163961461Y-79712815D01*
X163915706Y-79660011D01*
X163904500Y-79608500D01*
X163904500Y-79291959D01*
X163872885Y-79153441D01*
X163811238Y-79025430D01*
X163771935Y-78976146D01*
X163722652Y-78914348D01*
X163673367Y-78875045D01*
X163611569Y-78825761D01*
X163483558Y-78764114D01*
X163345041Y-78732500D01*
X163345040Y-78732500D01*
X163326346Y-78732500D01*
X163274000Y-78732500D01*
X163202960Y-78732500D01*
X163202959Y-78732500D01*
X163064441Y-78764114D01*
X162936430Y-78825761D01*
X162825347Y-78914348D01*
X162770947Y-78982564D01*
X162713758Y-79022704D01*
X162643946Y-79025554D01*
X162583677Y-78990208D01*
X162577053Y-78982564D01*
X162522652Y-78914348D01*
X162411569Y-78825761D01*
X162283558Y-78764114D01*
X162145041Y-78732500D01*
X162145040Y-78732500D01*
X162126346Y-78732500D01*
X162074000Y-78732500D01*
X162002960Y-78732500D01*
X162002959Y-78732500D01*
X161864441Y-78764114D01*
X161736430Y-78825761D01*
X161625347Y-78914348D01*
X161570947Y-78982564D01*
X161513758Y-79022704D01*
X161443946Y-79025554D01*
X161383677Y-78990208D01*
X161377053Y-78982564D01*
X161322652Y-78914348D01*
X161211569Y-78825761D01*
X161083558Y-78764114D01*
X160945041Y-78732500D01*
X160945040Y-78732500D01*
X160926346Y-78732500D01*
X160874000Y-78732500D01*
X160802960Y-78732500D01*
X160802959Y-78732500D01*
X160664441Y-78764114D01*
X160536430Y-78825761D01*
X160425348Y-78914348D01*
X160336761Y-79025430D01*
X160275114Y-79153441D01*
X160243500Y-79291959D01*
X160243500Y-79608500D01*
X160223815Y-79675539D01*
X160171011Y-79721294D01*
X160119500Y-79732500D01*
X159910518Y-79732500D01*
X159843479Y-79712815D01*
X159822837Y-79696181D01*
X158354819Y-78228163D01*
X158321334Y-78166840D01*
X158318500Y-78140482D01*
X158318500Y-77997837D01*
X158318972Y-77987029D01*
X158319762Y-77978000D01*
X158322321Y-77948751D01*
X158312365Y-77911599D01*
X158310034Y-77901083D01*
X158303359Y-77863219D01*
X158303358Y-77863217D01*
X158303194Y-77862287D01*
X158292696Y-77836943D01*
X158270108Y-77804684D01*
X158264296Y-77795560D01*
X158262818Y-77793000D01*
X166586000Y-77793000D01*
X167136000Y-77793000D01*
X167636000Y-77793000D01*
X168406000Y-77793000D01*
X168406000Y-76570703D01*
X168403512Y-76570900D01*
X168245799Y-76616719D01*
X168090960Y-76708291D01*
X168089826Y-76706374D01*
X168047358Y-76729564D01*
X167977666Y-76724580D01*
X167951392Y-76707694D01*
X167951040Y-76708291D01*
X167796200Y-76616719D01*
X167638487Y-76570900D01*
X167636000Y-76570703D01*
X167636000Y-77793000D01*
X167136000Y-77793000D01*
X167136000Y-76570703D01*
X167133512Y-76570900D01*
X166975799Y-76616719D01*
X166834442Y-76700317D01*
X166718317Y-76816442D01*
X166634717Y-76957802D01*
X166588900Y-77115506D01*
X166586191Y-77149923D01*
X166586000Y-77154803D01*
X166586000Y-77793000D01*
X158262818Y-77793000D01*
X158245083Y-77762281D01*
X158215648Y-77737583D01*
X158207673Y-77730275D01*
X155306819Y-74829421D01*
X155273334Y-74768098D01*
X155270500Y-74741740D01*
X155270500Y-72642000D01*
X155702640Y-72642000D01*
X155722034Y-72838914D01*
X155730699Y-72867478D01*
X155768427Y-72991852D01*
X155779474Y-73028267D01*
X155871408Y-73200264D01*
X155872748Y-73202770D01*
X155998275Y-73355725D01*
X156151230Y-73481252D01*
X156325735Y-73574527D01*
X156515084Y-73631965D01*
X156712000Y-73651360D01*
X156908916Y-73631965D01*
X156963411Y-73615433D01*
X157033278Y-73614810D01*
X157087088Y-73646413D01*
X158662744Y-75222069D01*
X158672009Y-75232436D01*
X158693905Y-75259892D01*
X158740514Y-75291669D01*
X158744273Y-75294335D01*
X158789717Y-75327875D01*
X158789719Y-75327875D01*
X158794638Y-75331506D01*
X158798900Y-75333658D01*
X158858651Y-75352088D01*
X158863057Y-75353538D01*
X158892110Y-75363704D01*
X158916335Y-75372181D01*
X158922103Y-75374199D01*
X158926815Y-75375000D01*
X158932927Y-75375000D01*
X158989360Y-75375000D01*
X158993997Y-75375087D01*
X159050387Y-75377197D01*
X159050387Y-75377196D01*
X159056487Y-75377425D01*
X159074911Y-75375000D01*
X167658313Y-75375000D01*
X167725352Y-75394685D01*
X167745994Y-75411319D01*
X168869681Y-76535006D01*
X168903166Y-76596329D01*
X168906000Y-76622687D01*
X168906000Y-79515295D01*
X168908488Y-79515099D01*
X169066200Y-79469280D01*
X169207557Y-79385682D01*
X169323679Y-79269560D01*
X169347037Y-79230063D01*
X169398106Y-79182379D01*
X169466847Y-79169873D01*
X169517578Y-79190801D01*
X169517778Y-79190410D01*
X169522657Y-79192896D01*
X169531437Y-79196518D01*
X169533635Y-79198489D01*
X169535276Y-79199325D01*
X169535277Y-79199326D01*
X169563369Y-79213640D01*
X169649443Y-79257498D01*
X169744164Y-79272500D01*
X169744166Y-79272500D01*
X170005431Y-79272500D01*
X170072470Y-79292185D01*
X170093112Y-79308819D01*
X171086362Y-80302069D01*
X171095627Y-80312436D01*
X171117523Y-80339892D01*
X171164132Y-80371669D01*
X171167891Y-80374335D01*
X171213335Y-80407875D01*
X171213337Y-80407875D01*
X171218256Y-80411506D01*
X171222516Y-80413656D01*
X171228357Y-80415457D01*
X171228359Y-80415459D01*
X171282314Y-80432101D01*
X171286631Y-80433522D01*
X171339953Y-80452181D01*
X171339955Y-80452181D01*
X171345722Y-80454199D01*
X171350435Y-80455000D01*
X171356545Y-80455000D01*
X171412994Y-80455000D01*
X171417630Y-80455087D01*
X171421418Y-80455228D01*
X171474005Y-80457196D01*
X171474005Y-80457195D01*
X171480108Y-80457424D01*
X171498525Y-80455000D01*
X177514054Y-80455000D01*
X177527935Y-80455779D01*
X177562827Y-80459711D01*
X177618327Y-80449209D01*
X177622763Y-80448455D01*
X177678647Y-80440033D01*
X177678650Y-80440031D01*
X177684705Y-80439119D01*
X177689212Y-80437636D01*
X177694629Y-80434772D01*
X177694634Y-80434772D01*
X177744585Y-80408371D01*
X177748618Y-80406336D01*
X177799509Y-80381829D01*
X177799511Y-80381826D01*
X177805020Y-80379174D01*
X177808910Y-80376414D01*
X177813232Y-80372091D01*
X177813235Y-80372090D01*
X177853161Y-80332162D01*
X177856475Y-80328971D01*
X177897844Y-80290587D01*
X177897846Y-80290582D01*
X177902325Y-80286427D01*
X177913629Y-80271694D01*
X186808505Y-71376819D01*
X186869829Y-71343334D01*
X186896187Y-71340500D01*
X188451653Y-71340500D01*
X188518692Y-71360185D01*
X188564447Y-71412989D01*
X188574391Y-71482147D01*
X188550606Y-71539228D01*
X188540911Y-71552065D01*
X188449670Y-71735300D01*
X188393654Y-71932176D01*
X188374768Y-72136000D01*
X188393654Y-72339823D01*
X188449670Y-72536699D01*
X188540911Y-72719934D01*
X188664268Y-72883286D01*
X188815535Y-73021184D01*
X188815537Y-73021185D01*
X188815538Y-73021186D01*
X188989573Y-73128944D01*
X189065739Y-73158451D01*
X189121140Y-73201023D01*
X189144731Y-73266789D01*
X189129020Y-73334870D01*
X189078996Y-73383649D01*
X189053041Y-73393851D01*
X189020510Y-73402568D01*
X188806421Y-73502400D01*
X188612921Y-73637890D01*
X188445890Y-73804921D01*
X188310400Y-73998421D01*
X188210569Y-74212507D01*
X188153364Y-74425999D01*
X188153364Y-74426000D01*
X189050314Y-74426000D01*
X189024507Y-74466156D01*
X188984000Y-74604111D01*
X188984000Y-74747889D01*
X189024507Y-74885844D01*
X189050314Y-74926000D01*
X188153364Y-74926000D01*
X188210569Y-75139492D01*
X188310399Y-75353576D01*
X188445893Y-75547081D01*
X188612918Y-75714106D01*
X188806423Y-75849600D01*
X189020509Y-75949430D01*
X189234000Y-76006634D01*
X189234000Y-75111501D01*
X189341685Y-75160680D01*
X189448237Y-75176000D01*
X189519763Y-75176000D01*
X189626315Y-75160680D01*
X189734000Y-75111501D01*
X189734000Y-76006633D01*
X189947490Y-75949430D01*
X190161576Y-75849600D01*
X190355081Y-75714106D01*
X190522106Y-75547081D01*
X190657600Y-75353576D01*
X190757431Y-75139490D01*
X190764844Y-75111825D01*
X190801208Y-75052164D01*
X190864055Y-75021634D01*
X190933430Y-75029928D01*
X190987309Y-75074413D01*
X190995619Y-75088645D01*
X191080911Y-75259934D01*
X191204268Y-75423286D01*
X191355535Y-75561184D01*
X191355537Y-75561185D01*
X191355538Y-75561186D01*
X191529573Y-75668944D01*
X191720444Y-75742888D01*
X191921653Y-75780500D01*
X191921655Y-75780500D01*
X192126345Y-75780500D01*
X192126347Y-75780500D01*
X192327556Y-75742888D01*
X192518427Y-75668944D01*
X192692462Y-75561186D01*
X192843732Y-75423285D01*
X192967088Y-75259935D01*
X193058328Y-75076701D01*
X193058979Y-75074413D01*
X193114345Y-74879823D01*
X193119015Y-74829421D01*
X193133232Y-74676000D01*
X193115330Y-74482804D01*
X193114345Y-74472176D01*
X193058329Y-74275300D01*
X192967088Y-74092065D01*
X192843731Y-73928713D01*
X192692464Y-73790815D01*
X192518427Y-73683056D01*
X192436610Y-73651360D01*
X192327556Y-73609112D01*
X192126347Y-73571500D01*
X191921653Y-73571500D01*
X191731207Y-73607100D01*
X191720444Y-73609112D01*
X191529572Y-73683056D01*
X191355535Y-73790815D01*
X191204268Y-73928713D01*
X191080911Y-74092065D01*
X190995619Y-74263354D01*
X190948116Y-74314591D01*
X190880453Y-74332012D01*
X190814113Y-74310086D01*
X190770158Y-74255775D01*
X190764844Y-74240175D01*
X190757430Y-74212508D01*
X190657599Y-73998421D01*
X190522109Y-73804921D01*
X190355081Y-73637893D01*
X190161576Y-73502399D01*
X189947488Y-73402567D01*
X189914959Y-73393851D01*
X189855299Y-73357486D01*
X189824771Y-73294639D01*
X189833066Y-73225263D01*
X189877552Y-73171386D01*
X189902254Y-73158453D01*
X189978427Y-73128944D01*
X190152462Y-73021186D01*
X190303732Y-72883285D01*
X190427088Y-72719935D01*
X190518328Y-72536701D01*
X190524076Y-72516500D01*
X190574345Y-72339823D01*
X190582029Y-72256898D01*
X190593232Y-72136000D01*
X190914768Y-72136000D01*
X190933654Y-72339823D01*
X190989670Y-72536699D01*
X191080911Y-72719934D01*
X191204268Y-72883286D01*
X191355535Y-73021184D01*
X191355537Y-73021185D01*
X191355538Y-73021186D01*
X191529573Y-73128944D01*
X191720444Y-73202888D01*
X191921653Y-73240500D01*
X191921655Y-73240500D01*
X192126345Y-73240500D01*
X192126347Y-73240500D01*
X192327556Y-73202888D01*
X192518427Y-73128944D01*
X192692462Y-73021186D01*
X192843732Y-72883285D01*
X192967088Y-72719935D01*
X193058328Y-72536701D01*
X193064076Y-72516500D01*
X193114345Y-72339823D01*
X193122029Y-72256898D01*
X193133232Y-72136000D01*
X193114345Y-71932179D01*
X193114345Y-71932176D01*
X193058329Y-71735300D01*
X192967088Y-71552065D01*
X192843731Y-71388713D01*
X192692464Y-71250815D01*
X192518427Y-71143056D01*
X192487273Y-71130987D01*
X192327556Y-71069112D01*
X192126347Y-71031500D01*
X191921653Y-71031500D01*
X191738563Y-71065725D01*
X191720444Y-71069112D01*
X191529572Y-71143056D01*
X191355535Y-71250815D01*
X191204268Y-71388713D01*
X191080911Y-71552065D01*
X190989670Y-71735300D01*
X190933654Y-71932176D01*
X190914768Y-72136000D01*
X190593232Y-72136000D01*
X190574345Y-71932179D01*
X190574345Y-71932176D01*
X190518329Y-71735300D01*
X190427088Y-71552065D01*
X190303730Y-71388712D01*
X190281191Y-71368165D01*
X190244910Y-71308454D01*
X190246671Y-71238606D01*
X190280388Y-71185632D01*
X190290676Y-71176087D01*
X190290678Y-71176082D01*
X190295159Y-71171925D01*
X190306461Y-71157194D01*
X191075576Y-70388079D01*
X191085962Y-70378800D01*
X191087191Y-70377820D01*
X191151887Y-70351436D01*
X191220578Y-70364217D01*
X191248007Y-70383159D01*
X191355535Y-70481184D01*
X191355537Y-70481185D01*
X191355538Y-70481186D01*
X191529573Y-70588944D01*
X191720444Y-70662888D01*
X191921653Y-70700500D01*
X191921655Y-70700500D01*
X192126345Y-70700500D01*
X192126347Y-70700500D01*
X192327556Y-70662888D01*
X192518427Y-70588944D01*
X192692462Y-70481186D01*
X192821498Y-70363554D01*
X192843731Y-70343286D01*
X192852847Y-70331215D01*
X192967088Y-70179935D01*
X193058328Y-69996701D01*
X193058329Y-69996699D01*
X193114345Y-69799823D01*
X193126199Y-69671892D01*
X193133232Y-69596000D01*
X193114345Y-69392179D01*
X193114345Y-69392176D01*
X193058329Y-69195300D01*
X192967088Y-69012065D01*
X192843731Y-68848713D01*
X192692464Y-68710815D01*
X192518427Y-68603056D01*
X192424966Y-68566849D01*
X192327556Y-68529112D01*
X192126347Y-68491500D01*
X191921653Y-68491500D01*
X191753601Y-68522914D01*
X191720444Y-68529112D01*
X191529569Y-68603057D01*
X191417777Y-68672276D01*
X191350416Y-68690831D01*
X191283717Y-68670023D01*
X191238856Y-68616458D01*
X191228500Y-68566849D01*
X191228500Y-68085150D01*
X191248185Y-68018111D01*
X191300989Y-67972356D01*
X191370147Y-67962412D01*
X191417776Y-67979722D01*
X191529573Y-68048944D01*
X191720444Y-68122888D01*
X191921653Y-68160500D01*
X191921655Y-68160500D01*
X192126345Y-68160500D01*
X192126347Y-68160500D01*
X192327556Y-68122888D01*
X192518427Y-68048944D01*
X192692462Y-67941186D01*
X192793308Y-67849251D01*
X192843731Y-67803286D01*
X192843732Y-67803285D01*
X192967088Y-67639935D01*
X193058328Y-67456701D01*
X193068953Y-67419358D01*
X193114345Y-67259823D01*
X193120326Y-67195276D01*
X193133232Y-67056000D01*
X193114345Y-66852179D01*
X193114345Y-66852176D01*
X193058329Y-66655300D01*
X192967088Y-66472065D01*
X192843731Y-66308713D01*
X192692464Y-66170815D01*
X192518427Y-66063056D01*
X192424966Y-66026849D01*
X192327556Y-65989112D01*
X192126347Y-65951500D01*
X191921653Y-65951500D01*
X191746411Y-65984258D01*
X191720444Y-65989112D01*
X191529569Y-66063057D01*
X191417777Y-66132276D01*
X191350416Y-66150831D01*
X191283717Y-66130023D01*
X191238856Y-66076458D01*
X191228500Y-66026849D01*
X191228500Y-65545150D01*
X191248185Y-65478111D01*
X191300989Y-65432356D01*
X191370147Y-65422412D01*
X191417776Y-65439722D01*
X191529573Y-65508944D01*
X191720444Y-65582888D01*
X191921653Y-65620500D01*
X191921655Y-65620500D01*
X192126345Y-65620500D01*
X192126347Y-65620500D01*
X192327556Y-65582888D01*
X192518427Y-65508944D01*
X192692462Y-65401186D01*
X192819155Y-65285690D01*
X192843731Y-65263286D01*
X192850366Y-65254500D01*
X192967088Y-65099935D01*
X193058328Y-64916701D01*
X193061448Y-64905736D01*
X193114345Y-64719823D01*
X193118532Y-64674639D01*
X193133232Y-64516000D01*
X193114345Y-64312179D01*
X193114345Y-64312176D01*
X193058329Y-64115300D01*
X192967088Y-63932065D01*
X192843731Y-63768713D01*
X192692464Y-63630815D01*
X192518427Y-63523056D01*
X192518426Y-63523056D01*
X192327556Y-63449112D01*
X192126347Y-63411500D01*
X191921653Y-63411500D01*
X191753601Y-63442914D01*
X191720444Y-63449112D01*
X191529569Y-63523057D01*
X191417777Y-63592276D01*
X191350416Y-63610831D01*
X191283717Y-63590023D01*
X191238856Y-63536458D01*
X191228500Y-63486849D01*
X191228500Y-63452186D01*
X191248185Y-63385147D01*
X191264815Y-63364509D01*
X191566722Y-63062601D01*
X191628045Y-63029117D01*
X191697737Y-63034101D01*
X191699167Y-63034645D01*
X191720444Y-63042888D01*
X191921653Y-63080500D01*
X191921655Y-63080500D01*
X192126345Y-63080500D01*
X192126347Y-63080500D01*
X192327556Y-63042888D01*
X192518427Y-62968944D01*
X192692462Y-62861186D01*
X192828958Y-62736753D01*
X192843731Y-62723286D01*
X192853618Y-62710194D01*
X192967088Y-62559935D01*
X193058328Y-62376701D01*
X193058786Y-62375092D01*
X193114345Y-62179823D01*
X193117297Y-62147954D01*
X193133232Y-61976000D01*
X193115117Y-61780505D01*
X193114345Y-61772176D01*
X193058329Y-61575300D01*
X192967088Y-61392065D01*
X192843731Y-61228713D01*
X192692464Y-61090815D01*
X192518427Y-60983056D01*
X192515089Y-60981763D01*
X192327556Y-60909112D01*
X192126347Y-60871500D01*
X191921653Y-60871500D01*
X191798388Y-60894542D01*
X191720444Y-60909112D01*
X191529572Y-60983056D01*
X191355538Y-61090813D01*
X191318018Y-61125018D01*
X191255213Y-61155634D01*
X191225402Y-61152111D01*
X191226074Y-61185037D01*
X191205364Y-61227262D01*
X191080910Y-61392066D01*
X190989670Y-61575300D01*
X190933654Y-61772176D01*
X190914768Y-61976000D01*
X190933654Y-62179823D01*
X190970682Y-62309961D01*
X190970095Y-62379828D01*
X190939097Y-62431576D01*
X190506979Y-62863694D01*
X190452131Y-62893643D01*
X190443986Y-62924213D01*
X190440467Y-62929677D01*
X190421825Y-62957019D01*
X190419144Y-62960798D01*
X190382007Y-63011117D01*
X190379837Y-63015416D01*
X190361408Y-63075158D01*
X190359960Y-63079558D01*
X190339306Y-63138583D01*
X190338500Y-63143333D01*
X190338500Y-63205875D01*
X190338413Y-63210511D01*
X190336075Y-63272990D01*
X190338500Y-63291406D01*
X190338500Y-63523381D01*
X190318815Y-63590420D01*
X190266011Y-63636175D01*
X190196853Y-63646119D01*
X190149222Y-63628808D01*
X190121139Y-63611420D01*
X189978427Y-63523056D01*
X189787556Y-63449112D01*
X189586347Y-63411500D01*
X189381653Y-63411500D01*
X189213601Y-63442914D01*
X189180444Y-63449112D01*
X188989572Y-63523056D01*
X188815535Y-63630815D01*
X188664268Y-63768713D01*
X188540911Y-63932065D01*
X188449670Y-64115300D01*
X188393654Y-64312176D01*
X188374768Y-64515999D01*
X188393654Y-64719823D01*
X188449670Y-64916699D01*
X188540911Y-65099934D01*
X188664268Y-65263286D01*
X188815535Y-65401184D01*
X188815537Y-65401185D01*
X188815538Y-65401186D01*
X188989573Y-65508944D01*
X189180444Y-65582888D01*
X189381653Y-65620500D01*
X189381655Y-65620500D01*
X189586345Y-65620500D01*
X189586347Y-65620500D01*
X189787556Y-65582888D01*
X189978427Y-65508944D01*
X190149225Y-65403190D01*
X190216583Y-65384635D01*
X190283282Y-65405443D01*
X190328144Y-65459008D01*
X190338500Y-65508618D01*
X190338500Y-66063381D01*
X190318815Y-66130420D01*
X190266011Y-66176175D01*
X190196853Y-66186119D01*
X190149222Y-66168808D01*
X190087223Y-66130420D01*
X189978427Y-66063056D01*
X189787556Y-65989112D01*
X189586347Y-65951500D01*
X189381653Y-65951500D01*
X189206411Y-65984258D01*
X189180444Y-65989112D01*
X188989572Y-66063056D01*
X188815535Y-66170815D01*
X188664268Y-66308713D01*
X188540911Y-66472065D01*
X188449670Y-66655300D01*
X188393654Y-66852176D01*
X188374768Y-67056000D01*
X188393654Y-67259823D01*
X188449670Y-67456699D01*
X188540911Y-67639934D01*
X188664268Y-67803286D01*
X188815535Y-67941184D01*
X188815537Y-67941185D01*
X188815538Y-67941186D01*
X188989573Y-68048944D01*
X189180444Y-68122888D01*
X189381653Y-68160500D01*
X189381655Y-68160500D01*
X189586345Y-68160500D01*
X189586347Y-68160500D01*
X189787556Y-68122888D01*
X189978427Y-68048944D01*
X190149225Y-67943190D01*
X190216583Y-67924635D01*
X190283282Y-67945443D01*
X190328144Y-67999008D01*
X190338500Y-68048618D01*
X190338500Y-68603381D01*
X190318815Y-68670420D01*
X190266011Y-68716175D01*
X190196853Y-68726119D01*
X190149222Y-68708808D01*
X190087223Y-68670420D01*
X189978427Y-68603056D01*
X189787556Y-68529112D01*
X189586347Y-68491500D01*
X189381653Y-68491500D01*
X189213601Y-68522914D01*
X189180444Y-68529112D01*
X188989572Y-68603056D01*
X188815535Y-68710815D01*
X188664268Y-68848713D01*
X188540911Y-69012065D01*
X188449670Y-69195300D01*
X188393654Y-69392176D01*
X188374768Y-69596000D01*
X188393654Y-69799823D01*
X188449670Y-69996699D01*
X188540912Y-70179937D01*
X188595161Y-70251774D01*
X188619853Y-70317135D01*
X188605288Y-70385470D01*
X188556090Y-70435082D01*
X188496207Y-70450500D01*
X186692447Y-70450500D01*
X186678563Y-70449720D01*
X186643672Y-70445788D01*
X186588247Y-70456275D01*
X186583678Y-70457052D01*
X186521824Y-70466375D01*
X186517256Y-70467878D01*
X186461969Y-70497097D01*
X186457836Y-70499184D01*
X186401498Y-70526316D01*
X186397568Y-70529105D01*
X186353361Y-70573312D01*
X186350024Y-70576527D01*
X186304178Y-70619067D01*
X186292871Y-70633802D01*
X177397994Y-79528681D01*
X177336671Y-79562166D01*
X177310313Y-79565000D01*
X171659306Y-79565000D01*
X171592267Y-79545315D01*
X171571625Y-79528681D01*
X171479219Y-79436275D01*
X171445734Y-79374952D01*
X171450718Y-79305260D01*
X171492590Y-79249327D01*
X171510592Y-79238116D01*
X171586723Y-79199326D01*
X171677326Y-79108723D01*
X171720516Y-79023957D01*
X171768490Y-78973163D01*
X171836311Y-78956368D01*
X171902446Y-78978906D01*
X171941483Y-79023956D01*
X171984674Y-79108723D01*
X171984675Y-79108724D01*
X172075277Y-79199326D01*
X172189443Y-79257498D01*
X172284164Y-79272500D01*
X172284166Y-79272500D01*
X172647836Y-79272500D01*
X172742556Y-79257498D01*
X172799639Y-79228411D01*
X172856723Y-79199326D01*
X172947326Y-79108723D01*
X172990516Y-79023957D01*
X173038490Y-78973163D01*
X173106311Y-78956368D01*
X173172446Y-78978906D01*
X173211483Y-79023956D01*
X173254674Y-79108723D01*
X173254675Y-79108724D01*
X173345277Y-79199326D01*
X173459443Y-79257498D01*
X173554164Y-79272500D01*
X173554166Y-79272500D01*
X173917836Y-79272500D01*
X174012556Y-79257498D01*
X174069639Y-79228411D01*
X174126723Y-79199326D01*
X174217326Y-79108723D01*
X174260516Y-79023957D01*
X174308490Y-78973163D01*
X174376311Y-78956368D01*
X174442446Y-78978906D01*
X174481483Y-79023956D01*
X174524674Y-79108723D01*
X174524675Y-79108724D01*
X174615277Y-79199326D01*
X174729443Y-79257498D01*
X174824164Y-79272500D01*
X174824166Y-79272500D01*
X175187836Y-79272500D01*
X175282556Y-79257498D01*
X175339639Y-79228411D01*
X175396723Y-79199326D01*
X175487326Y-79108723D01*
X175529766Y-79025431D01*
X175545498Y-78994556D01*
X175560500Y-78899836D01*
X175560500Y-77186163D01*
X175545498Y-77091443D01*
X175487326Y-76977277D01*
X175396722Y-76886673D01*
X175282556Y-76828501D01*
X175187836Y-76813500D01*
X175187834Y-76813500D01*
X174824166Y-76813500D01*
X174824164Y-76813500D01*
X174729443Y-76828501D01*
X174615277Y-76886673D01*
X174524674Y-76977276D01*
X174481484Y-77062041D01*
X174433510Y-77112836D01*
X174365689Y-77129631D01*
X174299554Y-77107093D01*
X174260516Y-77062041D01*
X174217325Y-76977276D01*
X174126722Y-76886673D01*
X174012556Y-76828501D01*
X173917836Y-76813500D01*
X173917834Y-76813500D01*
X173554166Y-76813500D01*
X173554164Y-76813500D01*
X173459443Y-76828501D01*
X173345277Y-76886673D01*
X173254674Y-76977276D01*
X173211484Y-77062041D01*
X173163510Y-77112836D01*
X173095689Y-77129631D01*
X173029554Y-77107093D01*
X172990516Y-77062041D01*
X172947325Y-76977276D01*
X172947319Y-76977270D01*
X172913834Y-76915947D01*
X172911000Y-76889589D01*
X172911000Y-76146699D01*
X172930685Y-76079660D01*
X172983489Y-76033905D01*
X173035000Y-76022699D01*
X173299343Y-76022699D01*
X173302654Y-76022699D01*
X173362742Y-76016240D01*
X173498667Y-75965542D01*
X173614804Y-75878604D01*
X173701742Y-75762467D01*
X173752440Y-75626542D01*
X173758900Y-75566455D01*
X173758899Y-74569946D01*
X173752440Y-74509858D01*
X173701742Y-74373933D01*
X173614804Y-74257796D01*
X173498667Y-74170858D01*
X173498664Y-74170857D01*
X173498663Y-74170856D01*
X173362745Y-74120160D01*
X173305941Y-74114053D01*
X173305935Y-74114052D01*
X173302655Y-74113700D01*
X173299345Y-74113700D01*
X172509457Y-74113700D01*
X172509438Y-74113700D01*
X172506146Y-74113701D01*
X172502868Y-74114053D01*
X172502856Y-74114054D01*
X172446058Y-74120160D01*
X172310133Y-74170858D01*
X172193996Y-74257796D01*
X172128566Y-74345202D01*
X172107056Y-74373936D01*
X172056360Y-74509854D01*
X172050253Y-74566658D01*
X172049900Y-74569945D01*
X172049900Y-74573254D01*
X172049900Y-75327146D01*
X172044388Y-75363704D01*
X172043911Y-75365250D01*
X172042465Y-75369646D01*
X172021806Y-75428686D01*
X172021000Y-75433433D01*
X172021000Y-75495975D01*
X172020913Y-75500611D01*
X172018575Y-75563090D01*
X172021000Y-75581506D01*
X172021000Y-76889589D01*
X172001315Y-76956628D01*
X171984681Y-76977270D01*
X171984674Y-76977276D01*
X171941484Y-77062041D01*
X171893510Y-77112836D01*
X171825689Y-77129631D01*
X171759554Y-77107093D01*
X171720516Y-77062041D01*
X171677325Y-76977276D01*
X171586722Y-76886673D01*
X171472556Y-76828501D01*
X171377836Y-76813500D01*
X171377834Y-76813500D01*
X171014166Y-76813500D01*
X171014164Y-76813500D01*
X170919443Y-76828501D01*
X170805277Y-76886673D01*
X170714674Y-76977276D01*
X170671484Y-77062041D01*
X170623510Y-77112836D01*
X170555689Y-77129631D01*
X170489554Y-77107093D01*
X170450516Y-77062041D01*
X170407325Y-76977276D01*
X170402871Y-76972822D01*
X170369386Y-76911499D01*
X170368724Y-76908248D01*
X170365209Y-76889672D01*
X170364447Y-76885183D01*
X170356033Y-76829353D01*
X170356032Y-76829351D01*
X170355121Y-76823304D01*
X170353632Y-76818779D01*
X170350772Y-76813368D01*
X170350772Y-76813366D01*
X170324371Y-76763414D01*
X170322335Y-76759379D01*
X170297829Y-76708491D01*
X170297827Y-76708488D01*
X170295177Y-76702986D01*
X170292406Y-76699080D01*
X170248189Y-76654864D01*
X170244971Y-76651524D01*
X170202432Y-76605678D01*
X170187693Y-76594368D01*
X168231254Y-74637929D01*
X168221988Y-74627561D01*
X168200094Y-74600107D01*
X168153486Y-74568329D01*
X168149707Y-74565648D01*
X168099378Y-74528504D01*
X168095090Y-74526339D01*
X168035348Y-74507910D01*
X168030948Y-74506462D01*
X167971913Y-74485805D01*
X167967170Y-74485000D01*
X167961073Y-74485000D01*
X167904624Y-74485000D01*
X167899988Y-74484913D01*
X167837510Y-74482575D01*
X167819094Y-74485000D01*
X159235687Y-74485000D01*
X159168648Y-74465315D01*
X159148006Y-74448681D01*
X157716413Y-73017088D01*
X157682928Y-72955765D01*
X157685434Y-72893411D01*
X157693300Y-72867479D01*
X157701965Y-72838916D01*
X157721360Y-72642000D01*
X157701965Y-72445084D01*
X157644527Y-72255735D01*
X157551252Y-72081230D01*
X157425725Y-71928275D01*
X157272770Y-71802748D01*
X157272769Y-71802747D01*
X157098267Y-71709474D01*
X157098266Y-71709473D01*
X157098265Y-71709473D01*
X157003590Y-71680753D01*
X156908914Y-71652034D01*
X156712000Y-71632640D01*
X156515085Y-71652034D01*
X156325732Y-71709474D01*
X156151230Y-71802747D01*
X155998275Y-71928275D01*
X155872747Y-72081230D01*
X155779474Y-72255732D01*
X155722034Y-72445085D01*
X155702640Y-72642000D01*
X155270500Y-72642000D01*
X155270500Y-70352000D01*
X155702640Y-70352000D01*
X155722034Y-70548914D01*
X155739212Y-70605541D01*
X155776313Y-70727849D01*
X155779474Y-70738267D01*
X155872747Y-70912769D01*
X155895256Y-70940196D01*
X155998275Y-71065725D01*
X156151230Y-71191252D01*
X156325735Y-71284527D01*
X156515084Y-71341965D01*
X156712000Y-71361360D01*
X156908916Y-71341965D01*
X157098265Y-71284527D01*
X157272770Y-71191252D01*
X157425725Y-71065725D01*
X157551252Y-70912770D01*
X157578096Y-70862547D01*
X157627059Y-70812702D01*
X157687455Y-70797000D01*
X159667639Y-70797000D01*
X159734678Y-70816685D01*
X159766905Y-70846688D01*
X159817596Y-70914404D01*
X159933733Y-71001342D01*
X159933736Y-71001343D01*
X160069654Y-71052039D01*
X160069655Y-71052039D01*
X160069658Y-71052040D01*
X160129745Y-71058500D01*
X160926254Y-71058499D01*
X160986342Y-71052040D01*
X161122267Y-71001342D01*
X161238404Y-70914404D01*
X161325342Y-70798267D01*
X161376040Y-70662342D01*
X161382500Y-70602255D01*
X161382499Y-69605746D01*
X161376040Y-69545658D01*
X161325342Y-69409733D01*
X161238404Y-69293596D01*
X161122267Y-69206658D01*
X161122264Y-69206657D01*
X161122263Y-69206656D01*
X160986345Y-69155960D01*
X160929541Y-69149853D01*
X160929535Y-69149852D01*
X160926255Y-69149500D01*
X160922945Y-69149500D01*
X160133057Y-69149500D01*
X160133038Y-69149500D01*
X160129746Y-69149501D01*
X160126468Y-69149853D01*
X160126456Y-69149854D01*
X160069658Y-69155960D01*
X159933733Y-69206658D01*
X159817596Y-69293596D01*
X159792799Y-69326722D01*
X159730656Y-69409736D01*
X159679960Y-69545654D01*
X159673853Y-69602458D01*
X159673500Y-69605745D01*
X159673500Y-69609054D01*
X159673500Y-69783000D01*
X159653815Y-69850039D01*
X159601011Y-69895794D01*
X159549500Y-69907000D01*
X157687455Y-69907000D01*
X157620416Y-69887315D01*
X157578097Y-69841453D01*
X157555844Y-69799821D01*
X157551252Y-69791230D01*
X157425725Y-69638275D01*
X157272770Y-69512748D01*
X157272769Y-69512747D01*
X157098267Y-69419474D01*
X157098266Y-69419473D01*
X157098265Y-69419473D01*
X157003590Y-69390753D01*
X156908914Y-69362034D01*
X156712000Y-69342640D01*
X156515085Y-69362034D01*
X156325732Y-69419474D01*
X156151230Y-69512747D01*
X155998275Y-69638275D01*
X155872747Y-69791230D01*
X155779474Y-69965732D01*
X155722034Y-70155085D01*
X155702640Y-70352000D01*
X155270500Y-70352000D01*
X155270500Y-70038260D01*
X155290185Y-69971221D01*
X155306819Y-69950579D01*
X156195985Y-69061413D01*
X157099143Y-68158255D01*
X157099143Y-68158254D01*
X158805741Y-66451657D01*
X158864300Y-66393098D01*
X158864313Y-66393083D01*
X159210996Y-66046400D01*
X159272317Y-66012917D01*
X159339630Y-66017041D01*
X159343046Y-66018237D01*
X159469761Y-66032514D01*
X159511999Y-66037274D01*
X159511999Y-66037273D01*
X159512000Y-66037274D01*
X159680954Y-66018237D01*
X159841437Y-65962082D01*
X159985400Y-65871624D01*
X160105624Y-65751400D01*
X160196082Y-65607437D01*
X160202287Y-65589702D01*
X160243005Y-65532929D01*
X160307957Y-65507179D01*
X160376519Y-65520633D01*
X160407009Y-65542976D01*
X161856181Y-66992148D01*
X161889666Y-67053471D01*
X161892500Y-67079829D01*
X161892500Y-69175453D01*
X161872815Y-69242492D01*
X161842811Y-69274720D01*
X161817597Y-69293595D01*
X161817596Y-69293596D01*
X161792798Y-69326723D01*
X161730656Y-69409736D01*
X161679960Y-69545654D01*
X161673853Y-69602458D01*
X161673500Y-69605745D01*
X161673500Y-69609053D01*
X161673500Y-69609054D01*
X161673500Y-70598942D01*
X161673500Y-70598960D01*
X161673501Y-70602254D01*
X161673853Y-70605532D01*
X161673854Y-70605543D01*
X161675775Y-70623413D01*
X161679960Y-70662342D01*
X161730658Y-70798267D01*
X161817596Y-70914404D01*
X161933733Y-71001342D01*
X161933736Y-71001343D01*
X162069654Y-71052039D01*
X162069655Y-71052039D01*
X162069658Y-71052040D01*
X162129745Y-71058500D01*
X162308500Y-71058499D01*
X162375539Y-71078183D01*
X162421294Y-71130987D01*
X162432500Y-71182499D01*
X162432500Y-71947521D01*
X162413494Y-72013493D01*
X162383918Y-72060562D01*
X162327762Y-72221048D01*
X162308725Y-72389999D01*
X162327762Y-72558951D01*
X162383918Y-72719437D01*
X162474377Y-72863402D01*
X162594597Y-72983622D01*
X162594599Y-72983623D01*
X162594600Y-72983624D01*
X162738563Y-73074082D01*
X162888420Y-73126519D01*
X162935146Y-73155879D01*
X163321341Y-73542074D01*
X163334429Y-73558409D01*
X163386280Y-73607100D01*
X163389078Y-73609811D01*
X163408906Y-73629639D01*
X163411986Y-73632028D01*
X163412187Y-73632184D01*
X163421075Y-73639773D01*
X163453494Y-73670217D01*
X163471461Y-73680094D01*
X163487724Y-73690776D01*
X163503933Y-73703350D01*
X163544746Y-73721011D01*
X163555232Y-73726148D01*
X163594197Y-73747569D01*
X163614067Y-73752670D01*
X163632462Y-73758968D01*
X163651292Y-73767117D01*
X163695219Y-73774073D01*
X163706642Y-73776439D01*
X163749718Y-73787500D01*
X163770226Y-73787500D01*
X163789624Y-73789026D01*
X163809879Y-73792235D01*
X163854150Y-73788050D01*
X163865820Y-73787500D01*
X174246500Y-73787500D01*
X174313539Y-73807185D01*
X174359294Y-73859989D01*
X174370500Y-73911500D01*
X174370500Y-74063598D01*
X174350815Y-74130637D01*
X174320810Y-74162866D01*
X174310134Y-74170857D01*
X174310133Y-74170858D01*
X174193996Y-74257796D01*
X174128566Y-74345202D01*
X174107056Y-74373936D01*
X174056360Y-74509854D01*
X174050253Y-74566658D01*
X174049900Y-74569945D01*
X174049900Y-74573253D01*
X174049900Y-74573254D01*
X174049900Y-75563142D01*
X174049900Y-75563160D01*
X174049901Y-75566454D01*
X174050253Y-75569732D01*
X174050254Y-75569743D01*
X174054391Y-75608221D01*
X174056360Y-75626542D01*
X174107058Y-75762467D01*
X174193996Y-75878604D01*
X174310133Y-75965542D01*
X174310136Y-75965543D01*
X174446054Y-76016239D01*
X174446055Y-76016239D01*
X174446058Y-76016240D01*
X174506145Y-76022700D01*
X175302654Y-76022699D01*
X175362742Y-76016240D01*
X175498667Y-75965542D01*
X175614804Y-75878604D01*
X175701742Y-75762467D01*
X175752440Y-75626542D01*
X175758900Y-75566455D01*
X175758899Y-74569946D01*
X175752440Y-74509858D01*
X175701742Y-74373933D01*
X175680235Y-74345202D01*
X175666232Y-74326495D01*
X175641816Y-74261030D01*
X175641500Y-74252186D01*
X175641500Y-73223793D01*
X175643697Y-73200555D01*
X175645287Y-73192219D01*
X175641745Y-73135921D01*
X175641500Y-73128135D01*
X175641500Y-72393956D01*
X175661185Y-72326917D01*
X175666221Y-72319661D01*
X175732242Y-72231467D01*
X175782940Y-72095542D01*
X175789400Y-72035455D01*
X175789399Y-70988946D01*
X175782940Y-70928858D01*
X175732242Y-70792933D01*
X175686212Y-70731443D01*
X175666232Y-70704752D01*
X175641816Y-70639288D01*
X175641500Y-70630443D01*
X175641500Y-68224911D01*
X175641500Y-68224910D01*
X175641500Y-68221017D01*
X175626427Y-68101701D01*
X175569208Y-67957183D01*
X175560500Y-67911535D01*
X175560500Y-67404163D01*
X175545498Y-67309443D01*
X175487326Y-67195277D01*
X175396722Y-67104673D01*
X175282556Y-67046501D01*
X175187836Y-67031500D01*
X175187834Y-67031500D01*
X174824166Y-67031500D01*
X174824164Y-67031500D01*
X174729443Y-67046501D01*
X174615277Y-67104673D01*
X174524674Y-67195276D01*
X174481484Y-67280041D01*
X174433510Y-67330836D01*
X174365689Y-67347631D01*
X174299554Y-67325093D01*
X174260516Y-67280041D01*
X174245007Y-67249604D01*
X174217326Y-67195277D01*
X174126723Y-67104674D01*
X174126723Y-67104673D01*
X174126722Y-67104673D01*
X174012556Y-67046501D01*
X173917836Y-67031500D01*
X173917834Y-67031500D01*
X173554166Y-67031500D01*
X173554164Y-67031500D01*
X173459443Y-67046501D01*
X173345277Y-67104673D01*
X173254674Y-67195276D01*
X173211484Y-67280041D01*
X173163510Y-67330836D01*
X173095689Y-67347631D01*
X173029554Y-67325093D01*
X172990516Y-67280041D01*
X172975007Y-67249604D01*
X172947326Y-67195277D01*
X172856723Y-67104674D01*
X172856723Y-67104673D01*
X172856722Y-67104673D01*
X172742556Y-67046501D01*
X172647836Y-67031500D01*
X172647834Y-67031500D01*
X172284166Y-67031500D01*
X172284164Y-67031500D01*
X172189443Y-67046501D01*
X172075277Y-67104673D01*
X171984674Y-67195276D01*
X171941484Y-67280041D01*
X171893510Y-67330836D01*
X171825689Y-67347631D01*
X171759554Y-67325093D01*
X171720516Y-67280041D01*
X171705007Y-67249604D01*
X171677326Y-67195277D01*
X171586723Y-67104674D01*
X171586723Y-67104673D01*
X171586722Y-67104673D01*
X171472556Y-67046501D01*
X171377836Y-67031500D01*
X171377834Y-67031500D01*
X171014166Y-67031500D01*
X171014164Y-67031500D01*
X170919443Y-67046501D01*
X170805277Y-67104673D01*
X170714674Y-67195276D01*
X170671484Y-67280041D01*
X170623510Y-67330836D01*
X170555689Y-67347631D01*
X170489554Y-67325093D01*
X170450516Y-67280041D01*
X170435007Y-67249604D01*
X170407326Y-67195277D01*
X170316723Y-67104674D01*
X170316723Y-67104673D01*
X170316722Y-67104673D01*
X170202556Y-67046501D01*
X170107836Y-67031500D01*
X170107834Y-67031500D01*
X169946500Y-67031500D01*
X169879461Y-67011815D01*
X169833706Y-66959011D01*
X169822500Y-66907500D01*
X169822500Y-66611575D01*
X169822972Y-66600766D01*
X169826321Y-66562491D01*
X169816372Y-66525363D01*
X169814036Y-66514829D01*
X169807359Y-66476961D01*
X169807356Y-66476956D01*
X169807193Y-66476029D01*
X169796696Y-66450686D01*
X169796155Y-66449914D01*
X169796155Y-66449912D01*
X169774107Y-66418425D01*
X169768296Y-66409302D01*
X169749083Y-66376023D01*
X169719648Y-66351325D01*
X169711673Y-66344017D01*
X168732982Y-65365326D01*
X168725673Y-65357350D01*
X168722771Y-65353892D01*
X168700976Y-65327917D01*
X168698411Y-65326436D01*
X168667693Y-65308701D01*
X168658571Y-65302889D01*
X168626319Y-65280306D01*
X168600968Y-65269805D01*
X168600039Y-65269641D01*
X168562190Y-65262967D01*
X168551631Y-65260626D01*
X168514506Y-65250678D01*
X168476231Y-65254028D01*
X168465422Y-65254500D01*
X166133517Y-65254500D01*
X166066478Y-65234815D01*
X166045836Y-65218181D01*
X165864407Y-65036751D01*
X165830922Y-64975428D01*
X165835906Y-64905736D01*
X165864405Y-64861389D01*
X165980767Y-64745029D01*
X165980791Y-64745013D01*
X165997053Y-64728747D01*
X165997055Y-64728747D01*
X166028089Y-64697708D01*
X166054502Y-64671296D01*
X166054504Y-64671292D01*
X166062652Y-64663145D01*
X166062743Y-64663034D01*
X166084287Y-64641491D01*
X166159871Y-64521193D01*
X166206794Y-64387094D01*
X166222703Y-64245915D01*
X166206801Y-64104736D01*
X166159884Y-63970634D01*
X166084305Y-63850333D01*
X166084304Y-63850332D01*
X166084288Y-63850306D01*
X166032757Y-63798776D01*
X165983908Y-63749918D01*
X165983865Y-63749886D01*
X165983825Y-63749846D01*
X165863524Y-63674255D01*
X165863523Y-63674254D01*
X165863522Y-63674254D01*
X165729415Y-63627328D01*
X165729411Y-63627327D01*
X165729410Y-63627327D01*
X165588227Y-63611419D01*
X165501471Y-63621194D01*
X165432649Y-63609139D01*
X165381270Y-63561790D01*
X165381064Y-63561000D01*
X166586000Y-63561000D01*
X166586000Y-64199196D01*
X166586191Y-64204076D01*
X166588900Y-64238493D01*
X166634717Y-64396197D01*
X166718317Y-64537557D01*
X166834442Y-64653682D01*
X166975799Y-64737280D01*
X167133511Y-64783099D01*
X167136000Y-64783295D01*
X167136000Y-63561000D01*
X167636000Y-63561000D01*
X167636000Y-64783295D01*
X167638488Y-64783099D01*
X167796200Y-64737280D01*
X167951040Y-64645709D01*
X167952173Y-64647625D01*
X167994633Y-64624437D01*
X168064325Y-64629416D01*
X168090606Y-64646306D01*
X168090960Y-64645709D01*
X168245799Y-64737280D01*
X168403511Y-64783099D01*
X168405999Y-64783295D01*
X168406000Y-64783295D01*
X168406000Y-63561000D01*
X167636000Y-63561000D01*
X167136000Y-63561000D01*
X166586000Y-63561000D01*
X165381064Y-63561000D01*
X165363646Y-63494180D01*
X165364369Y-63484080D01*
X165374138Y-63397440D01*
X165374138Y-63397439D01*
X165358236Y-63256244D01*
X165311309Y-63122129D01*
X165272898Y-63061000D01*
X166586000Y-63061000D01*
X167136000Y-63061000D01*
X167136000Y-61838703D01*
X167133512Y-61838900D01*
X166975799Y-61884719D01*
X166834442Y-61968317D01*
X166718317Y-62084442D01*
X166634717Y-62225802D01*
X166588900Y-62383506D01*
X166586191Y-62417923D01*
X166586000Y-62422803D01*
X166586000Y-63061000D01*
X165272898Y-63061000D01*
X165235712Y-63001820D01*
X165225892Y-62992000D01*
X165202835Y-62968943D01*
X165168046Y-62934156D01*
X165168046Y-62934155D01*
X165168043Y-62934153D01*
X165159305Y-62925415D01*
X165135251Y-62901362D01*
X165014951Y-62825772D01*
X165014950Y-62825771D01*
X165014949Y-62825771D01*
X164880842Y-62778845D01*
X164880838Y-62778844D01*
X164880837Y-62778844D01*
X164739654Y-62762936D01*
X164652971Y-62772703D01*
X164584149Y-62760648D01*
X164532770Y-62713299D01*
X164515146Y-62645689D01*
X164515867Y-62635606D01*
X164518045Y-62616265D01*
X164525635Y-62548872D01*
X164509724Y-62407693D01*
X164462800Y-62273594D01*
X164387217Y-62153296D01*
X164387215Y-62153294D01*
X164387204Y-62153276D01*
X164336977Y-62103050D01*
X164286952Y-62053017D01*
X164286913Y-62052988D01*
X164286742Y-62052817D01*
X164166441Y-61977226D01*
X164166440Y-61977225D01*
X164166439Y-61977225D01*
X164032332Y-61930299D01*
X164032328Y-61930298D01*
X164032327Y-61930298D01*
X163891145Y-61914390D01*
X163749962Y-61930298D01*
X163749959Y-61930298D01*
X163749958Y-61930299D01*
X163615851Y-61977225D01*
X163615849Y-61977225D01*
X163615849Y-61977226D01*
X163495545Y-62052818D01*
X163465761Y-62082602D01*
X163465757Y-62082607D01*
X163445314Y-62103049D01*
X163408299Y-62140064D01*
X163275689Y-62272673D01*
X163214365Y-62306157D01*
X163144674Y-62301172D01*
X163100327Y-62272672D01*
X162763982Y-61936326D01*
X162756673Y-61928350D01*
X162752775Y-61923705D01*
X162731976Y-61898917D01*
X162718184Y-61890954D01*
X162698693Y-61879701D01*
X162689571Y-61873889D01*
X162657319Y-61851306D01*
X162631968Y-61840805D01*
X162631039Y-61840641D01*
X162593190Y-61833967D01*
X162582631Y-61831626D01*
X162545506Y-61821678D01*
X162507231Y-61825028D01*
X162496422Y-61825500D01*
X162390500Y-61825500D01*
X162323461Y-61805815D01*
X162277706Y-61753011D01*
X162266500Y-61701500D01*
X162266500Y-61421793D01*
X162266485Y-61421635D01*
X162266487Y-61390593D01*
X162266487Y-61390591D01*
X162266487Y-61390590D01*
X162238404Y-61267527D01*
X162234877Y-61252072D01*
X162173235Y-61124058D01*
X162160676Y-61108309D01*
X162134270Y-61043623D01*
X162147028Y-60974928D01*
X162194900Y-60924035D01*
X162257626Y-60907000D01*
X167310695Y-60907000D01*
X167377734Y-60926685D01*
X167398376Y-60943319D01*
X168191814Y-61736757D01*
X168225299Y-61798080D01*
X168220315Y-61867772D01*
X168178443Y-61923705D01*
X168167256Y-61931169D01*
X168090963Y-61976290D01*
X168089829Y-61974374D01*
X168047349Y-61997566D01*
X167977658Y-61992577D01*
X167951390Y-61975696D01*
X167951039Y-61976291D01*
X167796200Y-61884719D01*
X167638487Y-61838900D01*
X167636000Y-61838703D01*
X167636000Y-63061000D01*
X168782000Y-63061000D01*
X168849039Y-63080685D01*
X168894794Y-63133489D01*
X168906000Y-63185000D01*
X168906000Y-64783295D01*
X168908488Y-64783099D01*
X169066200Y-64737280D01*
X169207557Y-64653682D01*
X169323680Y-64537559D01*
X169338640Y-64512263D01*
X169389708Y-64464578D01*
X169458450Y-64452072D01*
X169523040Y-64478716D01*
X169541417Y-64501846D01*
X169541459Y-64501808D01*
X169548841Y-64509764D01*
X169559596Y-64524922D01*
X169603809Y-64569134D01*
X169607027Y-64572474D01*
X169649571Y-64618325D01*
X169664306Y-64629631D01*
X170350744Y-65316069D01*
X170360009Y-65326436D01*
X170381905Y-65353892D01*
X170428514Y-65385669D01*
X170432273Y-65388335D01*
X170477717Y-65421875D01*
X170477719Y-65421875D01*
X170482638Y-65425506D01*
X170486898Y-65427656D01*
X170492739Y-65429457D01*
X170492741Y-65429459D01*
X170546696Y-65446101D01*
X170551013Y-65447522D01*
X170604335Y-65466181D01*
X170604337Y-65466181D01*
X170610104Y-65468199D01*
X170614817Y-65469000D01*
X170620927Y-65469000D01*
X170677376Y-65469000D01*
X170682012Y-65469087D01*
X170685501Y-65469217D01*
X170738386Y-65471196D01*
X170738386Y-65471195D01*
X170744489Y-65471424D01*
X170762906Y-65469000D01*
X179800054Y-65469000D01*
X179813935Y-65469779D01*
X179848827Y-65473711D01*
X179904327Y-65463209D01*
X179908763Y-65462455D01*
X179964647Y-65454033D01*
X179964650Y-65454031D01*
X179970705Y-65453119D01*
X179975212Y-65451636D01*
X179980629Y-65448772D01*
X179980634Y-65448772D01*
X180030585Y-65422371D01*
X180034618Y-65420336D01*
X180085509Y-65395829D01*
X180085511Y-65395826D01*
X180091020Y-65393174D01*
X180094910Y-65390414D01*
X180099232Y-65386091D01*
X180099235Y-65386090D01*
X180139161Y-65346162D01*
X180142475Y-65342971D01*
X180147406Y-65338396D01*
X180183844Y-65304587D01*
X180183846Y-65304582D01*
X180188325Y-65300427D01*
X180199629Y-65285694D01*
X184327505Y-61157819D01*
X184388829Y-61124334D01*
X184415187Y-61121500D01*
X188496207Y-61121500D01*
X188563246Y-61141185D01*
X188609001Y-61193989D01*
X188618945Y-61263147D01*
X188595161Y-61320226D01*
X188540912Y-61392062D01*
X188449670Y-61575300D01*
X188393654Y-61772176D01*
X188374768Y-61976000D01*
X188393654Y-62179823D01*
X188449670Y-62376699D01*
X188540911Y-62559934D01*
X188664268Y-62723286D01*
X188815535Y-62861184D01*
X188815537Y-62861185D01*
X188815538Y-62861186D01*
X188989573Y-62968944D01*
X189180444Y-63042888D01*
X189381653Y-63080500D01*
X189381655Y-63080500D01*
X189586345Y-63080500D01*
X189586347Y-63080500D01*
X189787556Y-63042888D01*
X189978427Y-62968944D01*
X190152462Y-62861186D01*
X190254479Y-62768184D01*
X190304551Y-62743774D01*
X190310466Y-62716586D01*
X190320339Y-62701293D01*
X190427088Y-62559935D01*
X190518328Y-62376701D01*
X190518786Y-62375092D01*
X190574345Y-62179823D01*
X190577297Y-62147954D01*
X190593232Y-61976000D01*
X190575117Y-61780505D01*
X190574345Y-61772176D01*
X190518329Y-61575300D01*
X190427087Y-61392062D01*
X190372839Y-61320226D01*
X190348147Y-61254865D01*
X190362712Y-61186530D01*
X190411910Y-61136918D01*
X190471793Y-61121500D01*
X190751554Y-61121500D01*
X190765435Y-61122279D01*
X190800327Y-61126211D01*
X190855827Y-61115709D01*
X190860263Y-61114955D01*
X190916147Y-61106533D01*
X190916150Y-61106531D01*
X190922205Y-61105619D01*
X190926712Y-61104136D01*
X190932129Y-61101272D01*
X190932134Y-61101272D01*
X190982085Y-61074871D01*
X190986139Y-61072825D01*
X191037009Y-61048329D01*
X191037011Y-61048327D01*
X191052608Y-61040816D01*
X191111906Y-61031051D01*
X191127085Y-60971394D01*
X191131419Y-60963885D01*
X191151129Y-60938194D01*
X191566723Y-60522600D01*
X191628044Y-60489117D01*
X191697736Y-60494101D01*
X191699136Y-60494633D01*
X191720444Y-60502888D01*
X191921653Y-60540500D01*
X191921655Y-60540500D01*
X192126345Y-60540500D01*
X192126347Y-60540500D01*
X192327556Y-60502888D01*
X192518427Y-60428944D01*
X192692462Y-60321186D01*
X192843732Y-60183285D01*
X192967088Y-60019935D01*
X193058328Y-59836701D01*
X193058329Y-59836699D01*
X193114345Y-59639823D01*
X193120693Y-59571319D01*
X193133232Y-59436000D01*
X193114345Y-59232179D01*
X193114345Y-59232176D01*
X193058329Y-59035300D01*
X192967088Y-58852065D01*
X192843731Y-58688713D01*
X192692464Y-58550815D01*
X192518427Y-58443056D01*
X192475583Y-58426458D01*
X192327556Y-58369112D01*
X192126347Y-58331500D01*
X191921653Y-58331500D01*
X191720443Y-58369111D01*
X191720444Y-58369112D01*
X191529572Y-58443056D01*
X191355535Y-58550815D01*
X191204268Y-58688713D01*
X191080911Y-58852065D01*
X190989670Y-59035300D01*
X190933654Y-59232176D01*
X190914768Y-59436000D01*
X190933654Y-59639823D01*
X190970682Y-59769961D01*
X190970095Y-59839828D01*
X190939097Y-59891576D01*
X190635492Y-60195182D01*
X190574171Y-60228666D01*
X190547813Y-60231500D01*
X190516347Y-60231500D01*
X190449308Y-60211815D01*
X190403553Y-60159011D01*
X190393609Y-60089853D01*
X190417394Y-60032772D01*
X190418002Y-60031967D01*
X190427088Y-60019935D01*
X190518328Y-59836701D01*
X190518329Y-59836699D01*
X190574345Y-59639823D01*
X190580693Y-59571319D01*
X190593232Y-59436000D01*
X190574345Y-59232179D01*
X190574345Y-59232176D01*
X190518329Y-59035300D01*
X190427088Y-58852065D01*
X190303731Y-58688713D01*
X190152464Y-58550815D01*
X189978427Y-58443056D01*
X189935583Y-58426458D01*
X189787556Y-58369112D01*
X189586347Y-58331500D01*
X189381653Y-58331500D01*
X189180443Y-58369111D01*
X189180444Y-58369112D01*
X188989572Y-58443056D01*
X188815535Y-58550815D01*
X188664268Y-58688713D01*
X188540911Y-58852065D01*
X188449670Y-59035300D01*
X188393654Y-59232176D01*
X188374768Y-59436000D01*
X188393654Y-59639823D01*
X188449670Y-59836699D01*
X188540911Y-60019934D01*
X188550606Y-60032772D01*
X188575299Y-60098133D01*
X188560734Y-60166468D01*
X188511537Y-60216081D01*
X188451653Y-60231500D01*
X184211438Y-60231500D01*
X184197554Y-60230720D01*
X184162673Y-60226789D01*
X184107245Y-60237276D01*
X184102678Y-60238052D01*
X184040834Y-60247374D01*
X184036252Y-60248882D01*
X183980978Y-60278094D01*
X183976842Y-60280181D01*
X183920503Y-60307313D01*
X183916569Y-60310104D01*
X183872361Y-60354312D01*
X183869024Y-60357527D01*
X183823178Y-60400067D01*
X183811871Y-60414802D01*
X179683994Y-64542681D01*
X179622671Y-64576166D01*
X179596313Y-64579000D01*
X175584411Y-64579000D01*
X175517372Y-64559315D01*
X175471617Y-64506511D01*
X175461673Y-64437353D01*
X175480811Y-64395445D01*
X175478410Y-64394222D01*
X175545498Y-64262556D01*
X175560500Y-64167836D01*
X175560500Y-62454163D01*
X175545498Y-62359443D01*
X175487326Y-62245277D01*
X175396722Y-62154673D01*
X175282556Y-62096501D01*
X175187836Y-62081500D01*
X175187834Y-62081500D01*
X174824166Y-62081500D01*
X174824164Y-62081500D01*
X174729443Y-62096501D01*
X174615277Y-62154673D01*
X174524674Y-62245276D01*
X174481484Y-62330041D01*
X174433510Y-62380836D01*
X174365689Y-62397631D01*
X174299554Y-62375093D01*
X174260516Y-62330041D01*
X174231285Y-62272673D01*
X174217326Y-62245277D01*
X174126723Y-62154674D01*
X174126722Y-62154673D01*
X174012556Y-62096501D01*
X173917836Y-62081500D01*
X173917834Y-62081500D01*
X173554166Y-62081500D01*
X173554164Y-62081500D01*
X173459443Y-62096501D01*
X173345277Y-62154673D01*
X173254674Y-62245276D01*
X173211484Y-62330040D01*
X173163509Y-62380836D01*
X173095688Y-62397630D01*
X173029553Y-62375092D01*
X172990513Y-62330035D01*
X172988013Y-62325128D01*
X172974500Y-62268837D01*
X172974500Y-61414699D01*
X172994185Y-61347660D01*
X173046989Y-61301905D01*
X173098500Y-61290699D01*
X173283343Y-61290699D01*
X173286654Y-61290699D01*
X173346742Y-61284240D01*
X173482667Y-61233542D01*
X173598804Y-61146604D01*
X173685742Y-61030467D01*
X173731006Y-60909112D01*
X173736439Y-60894545D01*
X173736439Y-60894544D01*
X173736440Y-60894542D01*
X173742900Y-60834455D01*
X173742899Y-59837946D01*
X173736440Y-59777858D01*
X173718900Y-59730834D01*
X173713916Y-59661143D01*
X173747400Y-59599820D01*
X173808723Y-59566334D01*
X173835082Y-59563500D01*
X173941717Y-59563500D01*
X174008756Y-59583185D01*
X174054511Y-59635989D01*
X174064455Y-59705147D01*
X174057899Y-59730834D01*
X174040360Y-59777857D01*
X174034254Y-59834656D01*
X174033900Y-59837945D01*
X174033900Y-59841253D01*
X174033900Y-59841254D01*
X174033900Y-60831142D01*
X174033900Y-60831160D01*
X174033901Y-60834454D01*
X174034253Y-60837732D01*
X174034254Y-60837743D01*
X174037883Y-60871500D01*
X174040360Y-60894542D01*
X174091058Y-61030467D01*
X174177996Y-61146604D01*
X174294133Y-61233542D01*
X174294136Y-61233543D01*
X174430054Y-61284239D01*
X174430055Y-61284239D01*
X174430058Y-61284240D01*
X174490145Y-61290700D01*
X175286654Y-61290699D01*
X175346742Y-61284240D01*
X175482667Y-61233542D01*
X175598804Y-61146604D01*
X175685742Y-61030467D01*
X175731006Y-60909112D01*
X175736439Y-60894545D01*
X175736439Y-60894544D01*
X175736440Y-60894542D01*
X175742900Y-60834455D01*
X175742899Y-59837946D01*
X175736440Y-59777858D01*
X175685742Y-59641933D01*
X175653828Y-59599301D01*
X175607632Y-59537588D01*
X175583216Y-59472124D01*
X175582900Y-59463279D01*
X175582900Y-58999793D01*
X175585097Y-58976555D01*
X175586687Y-58968219D01*
X175583145Y-58911921D01*
X175582900Y-58904135D01*
X175582900Y-57724388D01*
X175602585Y-57657349D01*
X175632589Y-57625121D01*
X175645304Y-57615604D01*
X175671066Y-57581188D01*
X175726998Y-57539319D01*
X175770333Y-57531500D01*
X188518107Y-57531500D01*
X188585146Y-57551185D01*
X188617061Y-57580773D01*
X188664268Y-57643286D01*
X188815535Y-57781184D01*
X188815537Y-57781185D01*
X188815538Y-57781186D01*
X188989573Y-57888944D01*
X189180444Y-57962888D01*
X189381653Y-58000500D01*
X189381655Y-58000500D01*
X189586345Y-58000500D01*
X189586347Y-58000500D01*
X189787556Y-57962888D01*
X189978427Y-57888944D01*
X190152462Y-57781186D01*
X190303732Y-57643285D01*
X190427088Y-57479935D01*
X190518328Y-57296701D01*
X190518329Y-57296699D01*
X190574345Y-57099823D01*
X190589130Y-56940264D01*
X190593232Y-56896000D01*
X190574345Y-56692179D01*
X190574345Y-56692176D01*
X190518329Y-56495300D01*
X190427088Y-56312065D01*
X190303731Y-56148713D01*
X190152464Y-56010815D01*
X189978427Y-55903056D01*
X189965585Y-55898081D01*
X189787556Y-55829112D01*
X189586347Y-55791500D01*
X189381653Y-55791500D01*
X189180444Y-55829111D01*
X189180444Y-55829112D01*
X188989572Y-55903056D01*
X188815535Y-56010815D01*
X188664268Y-56148713D01*
X188617061Y-56211227D01*
X188560952Y-56252863D01*
X188518107Y-56260500D01*
X175892772Y-56260500D01*
X175825733Y-56240815D01*
X175779978Y-56188011D01*
X175776591Y-56179834D01*
X175732243Y-56060935D01*
X175732242Y-56060933D01*
X175645304Y-55944796D01*
X175645302Y-55944794D01*
X175645301Y-55944793D01*
X175632590Y-55935278D01*
X175590718Y-55879345D01*
X175582900Y-55836011D01*
X175582900Y-53830599D01*
X175598239Y-53770859D01*
X175601569Y-53764803D01*
X175603211Y-53758409D01*
X175606666Y-53744948D01*
X175612969Y-53726534D01*
X175621117Y-53707708D01*
X175628072Y-53663787D01*
X175630442Y-53652346D01*
X175639749Y-53616101D01*
X175641500Y-53609282D01*
X175641500Y-53588773D01*
X175643027Y-53569373D01*
X175643327Y-53567479D01*
X175646235Y-53549121D01*
X175642050Y-53504848D01*
X175641500Y-53493179D01*
X175641500Y-52874059D01*
X175643795Y-52853266D01*
X175641561Y-52782165D01*
X175641500Y-52778270D01*
X175641500Y-52754120D01*
X175641500Y-52750227D01*
X175640978Y-52746095D01*
X175640061Y-52734448D01*
X175638665Y-52690005D01*
X175632942Y-52670308D01*
X175628998Y-52651265D01*
X175626427Y-52630911D01*
X175610048Y-52589544D01*
X175606280Y-52578535D01*
X175593869Y-52535817D01*
X175583424Y-52518156D01*
X175574869Y-52500692D01*
X175567318Y-52481620D01*
X175541180Y-52445644D01*
X175534766Y-52435880D01*
X175512134Y-52397611D01*
X175497632Y-52383109D01*
X175484995Y-52368313D01*
X175472942Y-52351723D01*
X175438673Y-52323373D01*
X175430034Y-52315511D01*
X174380704Y-51266181D01*
X174347219Y-51204858D01*
X174352203Y-51135166D01*
X174394075Y-51079233D01*
X174459539Y-51054816D01*
X174468385Y-51054500D01*
X188206010Y-51054500D01*
X188273049Y-51074185D01*
X188293691Y-51090819D01*
X191479181Y-54276309D01*
X191512666Y-54337632D01*
X191515500Y-54363990D01*
X191515500Y-55667500D01*
X191495815Y-55734539D01*
X191443011Y-55780294D01*
X191391500Y-55791500D01*
X191148935Y-55791500D01*
X191074698Y-55806266D01*
X190990515Y-55862515D01*
X190934265Y-55946699D01*
X190919500Y-56020930D01*
X190919500Y-57771065D01*
X190934266Y-57845301D01*
X190990515Y-57929484D01*
X191066058Y-57979960D01*
X191074699Y-57985734D01*
X191148933Y-58000500D01*
X192899066Y-58000499D01*
X192973301Y-57985734D01*
X193057484Y-57929484D01*
X193113734Y-57845301D01*
X193128500Y-57771067D01*
X193128499Y-56020934D01*
X193113734Y-55946699D01*
X193081248Y-55898081D01*
X193057484Y-55862515D01*
X192973300Y-55806265D01*
X192899069Y-55791500D01*
X192899067Y-55791500D01*
X192656500Y-55791500D01*
X192589461Y-55771815D01*
X192543706Y-55719011D01*
X192532500Y-55667500D01*
X192532500Y-54169994D01*
X192535334Y-54143635D01*
X192536419Y-54138647D01*
X192532816Y-54088269D01*
X192532500Y-54079423D01*
X192532500Y-54065635D01*
X192532500Y-54065632D01*
X192530534Y-54051962D01*
X192529590Y-54043172D01*
X192525988Y-53992802D01*
X192525988Y-53992799D01*
X192524200Y-53988006D01*
X192517646Y-53962328D01*
X192516919Y-53957266D01*
X192495923Y-53911292D01*
X192492540Y-53903124D01*
X192474887Y-53855794D01*
X192471827Y-53851706D01*
X192458303Y-53828913D01*
X192456176Y-53824256D01*
X192423098Y-53786082D01*
X192417547Y-53779194D01*
X192409281Y-53768153D01*
X192399537Y-53758409D01*
X192393505Y-53751930D01*
X192360422Y-53713751D01*
X192360421Y-53713750D01*
X192356123Y-53710987D01*
X192335480Y-53694352D01*
X188875645Y-50234517D01*
X188859014Y-50213880D01*
X188856250Y-50209579D01*
X188856246Y-50209576D01*
X188856246Y-50209575D01*
X188818069Y-50176494D01*
X188811602Y-50170474D01*
X188801848Y-50160720D01*
X188801847Y-50160719D01*
X188801845Y-50160717D01*
X188790809Y-50152456D01*
X188783918Y-50146902D01*
X188745745Y-50113825D01*
X188741094Y-50111701D01*
X188718300Y-50098176D01*
X188714206Y-50095111D01*
X188666863Y-50077453D01*
X188658687Y-50074066D01*
X188612735Y-50053080D01*
X188607675Y-50052353D01*
X188581997Y-50045799D01*
X188578963Y-50044668D01*
X188577199Y-50044010D01*
X188526795Y-50040405D01*
X188518000Y-50039459D01*
X188504372Y-50037500D01*
X188504368Y-50037500D01*
X188490590Y-50037500D01*
X188481744Y-50037184D01*
X188431351Y-50033579D01*
X188426359Y-50034666D01*
X188400000Y-50037500D01*
X175317556Y-50037500D01*
X175250517Y-50017815D01*
X175204762Y-49965011D01*
X175194818Y-49895853D01*
X175223843Y-49832297D01*
X175266359Y-49804973D01*
X175265056Y-49802415D01*
X175342934Y-49762732D01*
X175396723Y-49735326D01*
X175487326Y-49644723D01*
X175539698Y-49541938D01*
X175545498Y-49530556D01*
X175560500Y-49435836D01*
X175560500Y-47722163D01*
X175545498Y-47627443D01*
X175487326Y-47513277D01*
X175396722Y-47422673D01*
X175282556Y-47364501D01*
X175187836Y-47349500D01*
X175187834Y-47349500D01*
X174824166Y-47349500D01*
X174824164Y-47349500D01*
X174729443Y-47364501D01*
X174615277Y-47422673D01*
X174524674Y-47513276D01*
X174481484Y-47598041D01*
X174433510Y-47648836D01*
X174365689Y-47665631D01*
X174299554Y-47643093D01*
X174260516Y-47598041D01*
X174217325Y-47513276D01*
X174126722Y-47422673D01*
X174012556Y-47364501D01*
X173917836Y-47349500D01*
X173917834Y-47349500D01*
X173554166Y-47349500D01*
X173554164Y-47349500D01*
X173459443Y-47364501D01*
X173345277Y-47422673D01*
X173254674Y-47513276D01*
X173211484Y-47598041D01*
X173163510Y-47648836D01*
X173095689Y-47665631D01*
X173029554Y-47643093D01*
X172990516Y-47598041D01*
X172947325Y-47513276D01*
X172947319Y-47513270D01*
X172913834Y-47451947D01*
X172911000Y-47425589D01*
X172911000Y-46682699D01*
X172930685Y-46615660D01*
X172983489Y-46569905D01*
X173035000Y-46558699D01*
X173283343Y-46558699D01*
X173286654Y-46558699D01*
X173346742Y-46552240D01*
X173482667Y-46501542D01*
X173598804Y-46414604D01*
X173685742Y-46298467D01*
X173736440Y-46162542D01*
X173742900Y-46102455D01*
X173742899Y-45656791D01*
X173762583Y-45589754D01*
X173815387Y-45543999D01*
X173884546Y-45534055D01*
X173948102Y-45563080D01*
X173954580Y-45569112D01*
X173997581Y-45612113D01*
X174031066Y-45673436D01*
X174033900Y-45699794D01*
X174033900Y-46099142D01*
X174033900Y-46099160D01*
X174033901Y-46102454D01*
X174034253Y-46105732D01*
X174034254Y-46105743D01*
X174039349Y-46153145D01*
X174040360Y-46162542D01*
X174091058Y-46298467D01*
X174177996Y-46414604D01*
X174294133Y-46501542D01*
X174294136Y-46501543D01*
X174430054Y-46552239D01*
X174430055Y-46552239D01*
X174430058Y-46552240D01*
X174490145Y-46558700D01*
X175286654Y-46558699D01*
X175346742Y-46552240D01*
X175482667Y-46501542D01*
X175598804Y-46414604D01*
X175685742Y-46298467D01*
X175736440Y-46162542D01*
X175742900Y-46102455D01*
X175742899Y-45105946D01*
X175736440Y-45045858D01*
X175685742Y-44909933D01*
X175598804Y-44793796D01*
X175482667Y-44706858D01*
X175482664Y-44706857D01*
X175482663Y-44706856D01*
X175346745Y-44656160D01*
X175289941Y-44650053D01*
X175289935Y-44650052D01*
X175286655Y-44649700D01*
X175283345Y-44649700D01*
X174883995Y-44649700D01*
X174816956Y-44630015D01*
X174796314Y-44613381D01*
X173226858Y-43043925D01*
X173213776Y-43027596D01*
X173161917Y-42978898D01*
X173159120Y-42976187D01*
X173142053Y-42959120D01*
X173139294Y-42956361D01*
X173136218Y-42953975D01*
X173136209Y-42953967D01*
X173136002Y-42953807D01*
X173127116Y-42946218D01*
X173094708Y-42915784D01*
X173085918Y-42910952D01*
X173076731Y-42905901D01*
X173060481Y-42895227D01*
X173059523Y-42894484D01*
X173018612Y-42837844D01*
X173014818Y-42768078D01*
X173049345Y-42707335D01*
X173111231Y-42674902D01*
X173135517Y-42672500D01*
X193423500Y-42672500D01*
X193490539Y-42692185D01*
X193536294Y-42744989D01*
X193547500Y-42796500D01*
X193547500Y-88775500D01*
X193527815Y-88842539D01*
X193475011Y-88888294D01*
X193423500Y-88899500D01*
X154941642Y-88899500D01*
X154938396Y-88899458D01*
X154387177Y-88885024D01*
X154249532Y-88881295D01*
X154243161Y-88880958D01*
X153819323Y-88847601D01*
X153548403Y-88825540D01*
X153542282Y-88824888D01*
X153147089Y-88772861D01*
X152851268Y-88732556D01*
X152845412Y-88731615D01*
X152464526Y-88661022D01*
X152160086Y-88602605D01*
X152154507Y-88601401D01*
X151783851Y-88512414D01*
X151476801Y-88436053D01*
X151471511Y-88434613D01*
X151109708Y-88327443D01*
X150803402Y-88233392D01*
X150798409Y-88231743D01*
X150445044Y-88106610D01*
X150141761Y-87995190D01*
X150137072Y-87993358D01*
X149792398Y-87850589D01*
X149493739Y-87722115D01*
X149489360Y-87720130D01*
X149153852Y-87560101D01*
X148861174Y-87414946D01*
X148857139Y-87412851D01*
X148531247Y-87235906D01*
X148245970Y-87074617D01*
X148242214Y-87072405D01*
X147926566Y-86878976D01*
X147759705Y-86772321D01*
X147649715Y-86702016D01*
X147646289Y-86699745D01*
X147572401Y-86648963D01*
X147342580Y-86491011D01*
X147340533Y-86489573D01*
X147251160Y-86425376D01*
X147074200Y-86298265D01*
X147071055Y-86295930D01*
X146779028Y-86071850D01*
X146776827Y-86070121D01*
X146682377Y-85994200D01*
X146520982Y-85864467D01*
X146518200Y-85862162D01*
X146282503Y-85660858D01*
X146238467Y-85623247D01*
X146236193Y-85621257D01*
X145991702Y-85401914D01*
X145989152Y-85399561D01*
X145722423Y-85146446D01*
X145720098Y-85144180D01*
X145487818Y-84911900D01*
X145485552Y-84909575D01*
X145232437Y-84642846D01*
X145230084Y-84640296D01*
X145010741Y-84395805D01*
X145008751Y-84393531D01*
X144939671Y-84312650D01*
X144769825Y-84113785D01*
X144767543Y-84111031D01*
X144561876Y-83855170D01*
X144560148Y-83852970D01*
X144336068Y-83560943D01*
X144333733Y-83557798D01*
X144281292Y-83484791D01*
X144142399Y-83291427D01*
X144141013Y-83289456D01*
X143932249Y-82985703D01*
X143929968Y-82982261D01*
X143915747Y-82960013D01*
X143753035Y-82705453D01*
X143559593Y-82389783D01*
X143557382Y-82386028D01*
X143510904Y-82303822D01*
X143396097Y-82100759D01*
X143219133Y-81774831D01*
X143217052Y-81770824D01*
X143071905Y-81478163D01*
X143009708Y-81347764D01*
X147497787Y-81347764D01*
X147527413Y-81617016D01*
X147545992Y-81688080D01*
X147595928Y-81879088D01*
X147671572Y-82057093D01*
X147701871Y-82128392D01*
X147842982Y-82359611D01*
X147932253Y-82466881D01*
X148016255Y-82567820D01*
X148217998Y-82748582D01*
X148443910Y-82898044D01*
X148550211Y-82947876D01*
X148689177Y-83013021D01*
X148948562Y-83091058D01*
X148948569Y-83091060D01*
X149216561Y-83130500D01*
X149216564Y-83130500D01*
X149417369Y-83130500D01*
X149419631Y-83130500D01*
X149622156Y-83115677D01*
X149886553Y-83056780D01*
X150139558Y-82960014D01*
X150375777Y-82827441D01*
X150590177Y-82661888D01*
X150778186Y-82466881D01*
X150935799Y-82246579D01*
X151059656Y-82005675D01*
X151147118Y-81749305D01*
X151196319Y-81482933D01*
X151206212Y-81212235D01*
X151176586Y-80942982D01*
X151108072Y-80680912D01*
X151002130Y-80431610D01*
X150861018Y-80200390D01*
X150861017Y-80200388D01*
X150687746Y-79992181D01*
X150665847Y-79972559D01*
X150486002Y-79811418D01*
X150260090Y-79661956D01*
X150255254Y-79659689D01*
X150014822Y-79546978D01*
X149755437Y-79468941D01*
X149755431Y-79468940D01*
X149487439Y-79429500D01*
X149284369Y-79429500D01*
X149282120Y-79429664D01*
X149282109Y-79429665D01*
X149081843Y-79444322D01*
X148817449Y-79503219D01*
X148564441Y-79599986D01*
X148328223Y-79732559D01*
X148113825Y-79898109D01*
X147925813Y-80093120D01*
X147768201Y-80313420D01*
X147644342Y-80554329D01*
X147556881Y-80810695D01*
X147507680Y-81077066D01*
X147497787Y-81347764D01*
X143009708Y-81347764D01*
X142911853Y-81142605D01*
X142909894Y-81138284D01*
X142781410Y-80839601D01*
X142760605Y-80789373D01*
X142638620Y-80494876D01*
X142636831Y-80490296D01*
X142525380Y-80186930D01*
X142492160Y-80093120D01*
X142400256Y-79833590D01*
X142398615Y-79828625D01*
X142304576Y-79522359D01*
X142197384Y-79160483D01*
X142195951Y-79155224D01*
X142119605Y-78848231D01*
X142030594Y-78477475D01*
X142029399Y-78471938D01*
X141970980Y-78167487D01*
X141900375Y-77786540D01*
X141899450Y-77780783D01*
X141859161Y-77485078D01*
X141807106Y-77089686D01*
X141806461Y-77083627D01*
X141784416Y-76812906D01*
X141751036Y-76388778D01*
X141750706Y-76382524D01*
X141746977Y-76244892D01*
X141732541Y-75693603D01*
X141732500Y-75690358D01*
X141732500Y-72200678D01*
X145692737Y-72200678D01*
X145722763Y-72473569D01*
X145733987Y-72516500D01*
X145792204Y-72739182D01*
X145857744Y-72893411D01*
X145899577Y-72991852D01*
X146042025Y-73225263D01*
X146042595Y-73226196D01*
X146218209Y-73437218D01*
X146422677Y-73620423D01*
X146651641Y-73771904D01*
X146900221Y-73888433D01*
X147163119Y-73967527D01*
X147434731Y-74007500D01*
X147434734Y-74007500D01*
X147638285Y-74007500D01*
X147640547Y-74007500D01*
X147845805Y-73992477D01*
X148113775Y-73932784D01*
X148168120Y-73911999D01*
X149346898Y-73911999D01*
X149367275Y-74170916D01*
X149427903Y-74423455D01*
X149527294Y-74663402D01*
X149662993Y-74884843D01*
X149668801Y-74891644D01*
X150296217Y-74264228D01*
X150384379Y-74404536D01*
X150509464Y-74529621D01*
X150649770Y-74617782D01*
X150022354Y-75245198D01*
X150029155Y-75251006D01*
X150250597Y-75386705D01*
X150490544Y-75486096D01*
X150743083Y-75546724D01*
X151002000Y-75567101D01*
X151260916Y-75546724D01*
X151513455Y-75486096D01*
X151753397Y-75386707D01*
X151974849Y-75251003D01*
X151981645Y-75245198D01*
X151354229Y-74617782D01*
X151494536Y-74529621D01*
X151619621Y-74404536D01*
X151707782Y-74264229D01*
X152335198Y-74891645D01*
X152341003Y-74884849D01*
X152476707Y-74663397D01*
X152576096Y-74423455D01*
X152636724Y-74170916D01*
X152657101Y-73912000D01*
X152636724Y-73653083D01*
X152576096Y-73400544D01*
X152476705Y-73160597D01*
X152341006Y-72939155D01*
X152335198Y-72932354D01*
X151707781Y-73559770D01*
X151619621Y-73419464D01*
X151494536Y-73294379D01*
X151354229Y-73206217D01*
X151981645Y-72578801D01*
X151974843Y-72572993D01*
X151753402Y-72437294D01*
X151513455Y-72337903D01*
X151260916Y-72277275D01*
X151002000Y-72256898D01*
X150743083Y-72277275D01*
X150490544Y-72337903D01*
X150250597Y-72437294D01*
X150029156Y-72572992D01*
X150022354Y-72578801D01*
X150649770Y-73206217D01*
X150509464Y-73294379D01*
X150384379Y-73419464D01*
X150296217Y-73559770D01*
X149668801Y-72932354D01*
X149662992Y-72939156D01*
X149527294Y-73160597D01*
X149427903Y-73400544D01*
X149367275Y-73653083D01*
X149346898Y-73911999D01*
X148168120Y-73911999D01*
X148370198Y-73834711D01*
X148609609Y-73700347D01*
X148826904Y-73532557D01*
X149017454Y-73334916D01*
X149177196Y-73111637D01*
X149302727Y-72867479D01*
X149391370Y-72607646D01*
X149400365Y-72558951D01*
X149441236Y-72337674D01*
X149451262Y-72063321D01*
X149450959Y-72060562D01*
X149421236Y-71790429D01*
X149351796Y-71524818D01*
X149244423Y-71272148D01*
X149101405Y-71037804D01*
X148925791Y-70826782D01*
X148721323Y-70643577D01*
X148492359Y-70492096D01*
X148243779Y-70375567D01*
X147980881Y-70296473D01*
X147709269Y-70256500D01*
X147503453Y-70256500D01*
X147501204Y-70256664D01*
X147501193Y-70256665D01*
X147298194Y-70271522D01*
X147030225Y-70331215D01*
X146773803Y-70429288D01*
X146534391Y-70563653D01*
X146317094Y-70731443D01*
X146126545Y-70929083D01*
X145966802Y-71152364D01*
X145841272Y-71396521D01*
X145752629Y-71656352D01*
X145702763Y-71926325D01*
X145692737Y-72200678D01*
X141732500Y-72200678D01*
X141732500Y-70136518D01*
X148862000Y-70136518D01*
X148862354Y-70143132D01*
X148868400Y-70199371D01*
X148918647Y-70334089D01*
X149004811Y-70449188D01*
X149119910Y-70535352D01*
X149254628Y-70585599D01*
X149310867Y-70591645D01*
X149317482Y-70592000D01*
X149862000Y-70592000D01*
X149862000Y-69710137D01*
X149916741Y-69747459D01*
X150044927Y-69787000D01*
X150145346Y-69787000D01*
X150244647Y-69772033D01*
X150362000Y-69715518D01*
X150362000Y-70592000D01*
X150906518Y-70592000D01*
X150913132Y-70591645D01*
X150969371Y-70585599D01*
X151104089Y-70535352D01*
X151219188Y-70449188D01*
X151305352Y-70334089D01*
X151355599Y-70199371D01*
X151361645Y-70143132D01*
X151362000Y-70136518D01*
X151362000Y-69592000D01*
X150481503Y-69592000D01*
X150530917Y-69506413D01*
X150560768Y-69375630D01*
X150550743Y-69241860D01*
X150501734Y-69116987D01*
X150481807Y-69092000D01*
X151197604Y-69092000D01*
X151264643Y-69111685D01*
X151276268Y-69120146D01*
X151331230Y-69165252D01*
X151505735Y-69258527D01*
X151695084Y-69315965D01*
X151892000Y-69335360D01*
X152088916Y-69315965D01*
X152278265Y-69258527D01*
X152452770Y-69165252D01*
X152605725Y-69039725D01*
X152731252Y-68886770D01*
X152824527Y-68712265D01*
X152881965Y-68522916D01*
X152901360Y-68326000D01*
X152881965Y-68129084D01*
X152824527Y-67939735D01*
X152731252Y-67765230D01*
X152605725Y-67612275D01*
X152452770Y-67486748D01*
X152452769Y-67486747D01*
X152326692Y-67419358D01*
X152276848Y-67370396D01*
X152261387Y-67302258D01*
X152285218Y-67236579D01*
X152326692Y-67200642D01*
X152452770Y-67133252D01*
X152605725Y-67007725D01*
X152731252Y-66854770D01*
X152824527Y-66680265D01*
X152881965Y-66490916D01*
X152901360Y-66294000D01*
X152881965Y-66097084D01*
X152824527Y-65907735D01*
X152731252Y-65733230D01*
X152605725Y-65580275D01*
X152477342Y-65474914D01*
X152452769Y-65454747D01*
X152337573Y-65393174D01*
X152326691Y-65387357D01*
X152276848Y-65338396D01*
X152261387Y-65270258D01*
X152285218Y-65204579D01*
X152326692Y-65168642D01*
X152452770Y-65101252D01*
X152605725Y-64975725D01*
X152731252Y-64822770D01*
X152824527Y-64648265D01*
X152881965Y-64458916D01*
X152901360Y-64262000D01*
X152881965Y-64065084D01*
X152824527Y-63875735D01*
X152731252Y-63701230D01*
X152605725Y-63548275D01*
X152452770Y-63422748D01*
X152355882Y-63370960D01*
X152326691Y-63355357D01*
X152276847Y-63306394D01*
X152261387Y-63238257D01*
X152285219Y-63172577D01*
X152326688Y-63136644D01*
X152452770Y-63069252D01*
X152605725Y-62943725D01*
X152731252Y-62790770D01*
X152824527Y-62616265D01*
X152881965Y-62426916D01*
X152901360Y-62230000D01*
X152881965Y-62033084D01*
X152824527Y-61843735D01*
X152731252Y-61669230D01*
X152605725Y-61516275D01*
X152454982Y-61392563D01*
X152452769Y-61390747D01*
X152278267Y-61297474D01*
X152278266Y-61297473D01*
X152278265Y-61297473D01*
X152152306Y-61259264D01*
X152088914Y-61240034D01*
X151913512Y-61222758D01*
X151892000Y-61220640D01*
X151891999Y-61220640D01*
X151695085Y-61240034D01*
X151505732Y-61297474D01*
X151331230Y-61390747D01*
X151178275Y-61516275D01*
X151052747Y-61669230D01*
X150959474Y-61843732D01*
X150902034Y-62033085D01*
X150882640Y-62230000D01*
X150890692Y-62311752D01*
X150877673Y-62380398D01*
X150829608Y-62431108D01*
X150761757Y-62447783D01*
X150695663Y-62425127D01*
X150688624Y-62419759D01*
X150672769Y-62406747D01*
X150498267Y-62313474D01*
X150498266Y-62313473D01*
X150498265Y-62313473D01*
X150366801Y-62273594D01*
X150308914Y-62256034D01*
X150112000Y-62236640D01*
X149915085Y-62256034D01*
X149766286Y-62301172D01*
X149731409Y-62311752D01*
X149725732Y-62313474D01*
X149551230Y-62406747D01*
X149398275Y-62532275D01*
X149272747Y-62685230D01*
X149179474Y-62859732D01*
X149179473Y-62859734D01*
X149179473Y-62859735D01*
X149179033Y-62861186D01*
X149122034Y-63049085D01*
X149102640Y-63245999D01*
X149122034Y-63442914D01*
X149146345Y-63523056D01*
X149179033Y-63630815D01*
X149179474Y-63632267D01*
X149272747Y-63806769D01*
X149287927Y-63825266D01*
X149398275Y-63959725D01*
X149551230Y-64085252D01*
X149587682Y-64104736D01*
X149677307Y-64152642D01*
X149727152Y-64201604D01*
X149742612Y-64269742D01*
X149718780Y-64335422D01*
X149677307Y-64371358D01*
X149551231Y-64438747D01*
X149398275Y-64564275D01*
X149272747Y-64717230D01*
X149179474Y-64891732D01*
X149122034Y-65081085D01*
X149102640Y-65277999D01*
X149122034Y-65474914D01*
X149179474Y-65664267D01*
X149226048Y-65751402D01*
X149272748Y-65838770D01*
X149398275Y-65991725D01*
X149551230Y-66117252D01*
X149677308Y-66184642D01*
X149727151Y-66233603D01*
X149742612Y-66301740D01*
X149718781Y-66367420D01*
X149677308Y-66403357D01*
X149551229Y-66470748D01*
X149398275Y-66596275D01*
X149272747Y-66749230D01*
X149179474Y-66923732D01*
X149122034Y-67113085D01*
X149102640Y-67309999D01*
X149122034Y-67506914D01*
X149150754Y-67601590D01*
X149179473Y-67696265D01*
X149272748Y-67870770D01*
X149301409Y-67905693D01*
X149328722Y-67970003D01*
X149316931Y-68038870D01*
X149269779Y-68090430D01*
X149248890Y-68100539D01*
X149119913Y-68148645D01*
X149004811Y-68234811D01*
X148918647Y-68349910D01*
X148868400Y-68484628D01*
X148862354Y-68540867D01*
X148862000Y-68547481D01*
X148862000Y-69092000D01*
X149742497Y-69092000D01*
X149693083Y-69177587D01*
X149663232Y-69308370D01*
X149673257Y-69442140D01*
X149722266Y-69567013D01*
X149742193Y-69592000D01*
X148862000Y-69592000D01*
X148862000Y-70136518D01*
X141732500Y-70136518D01*
X141732500Y-59500678D01*
X145692737Y-59500678D01*
X145722763Y-59773569D01*
X145764015Y-59931359D01*
X145792204Y-60039182D01*
X145894189Y-60279172D01*
X145899577Y-60291852D01*
X146040401Y-60522602D01*
X146042595Y-60526196D01*
X146218209Y-60737218D01*
X146422677Y-60920423D01*
X146651641Y-61071904D01*
X146900221Y-61188433D01*
X147163119Y-61267527D01*
X147434731Y-61307500D01*
X147434734Y-61307500D01*
X147638285Y-61307500D01*
X147640547Y-61307500D01*
X147845805Y-61292477D01*
X148113775Y-61232784D01*
X148370198Y-61134711D01*
X148609609Y-61000347D01*
X148826904Y-60832557D01*
X148858063Y-60800239D01*
X149017454Y-60634916D01*
X149071233Y-60559747D01*
X149177196Y-60411637D01*
X149302727Y-60167479D01*
X149353789Y-60017805D01*
X149391370Y-59907647D01*
X149441236Y-59637674D01*
X149451262Y-59363321D01*
X149447374Y-59327980D01*
X149421236Y-59090429D01*
X149351796Y-58824818D01*
X149244423Y-58572148D01*
X149101405Y-58337804D01*
X148925791Y-58126782D01*
X148721323Y-57943577D01*
X148492359Y-57792096D01*
X148243779Y-57675567D01*
X148165442Y-57651999D01*
X149346898Y-57651999D01*
X149367275Y-57910916D01*
X149427903Y-58163455D01*
X149527294Y-58403402D01*
X149662993Y-58624843D01*
X149668801Y-58631644D01*
X150296217Y-58004228D01*
X150384379Y-58144536D01*
X150509464Y-58269621D01*
X150649770Y-58357782D01*
X150022354Y-58985198D01*
X150029155Y-58991006D01*
X150250597Y-59126705D01*
X150490544Y-59226096D01*
X150743083Y-59286724D01*
X151002000Y-59307101D01*
X151260916Y-59286724D01*
X151513455Y-59226096D01*
X151753397Y-59126707D01*
X151974849Y-58991003D01*
X151981645Y-58985198D01*
X151354229Y-58357782D01*
X151494536Y-58269621D01*
X151619621Y-58144536D01*
X151707782Y-58004228D01*
X152335198Y-58631645D01*
X152341003Y-58624849D01*
X152476707Y-58403397D01*
X152576096Y-58163455D01*
X152636724Y-57910916D01*
X152657101Y-57651999D01*
X152636724Y-57393083D01*
X152576096Y-57140544D01*
X152476705Y-56900597D01*
X152341006Y-56679155D01*
X152335198Y-56672354D01*
X152335197Y-56672354D01*
X151707781Y-57299769D01*
X151619621Y-57159464D01*
X151494536Y-57034379D01*
X151354229Y-56946217D01*
X151981645Y-56318801D01*
X151974843Y-56312993D01*
X151753402Y-56177294D01*
X151513455Y-56077903D01*
X151260916Y-56017275D01*
X151002000Y-55996898D01*
X150743083Y-56017275D01*
X150490544Y-56077903D01*
X150250597Y-56177294D01*
X150029156Y-56312992D01*
X150022354Y-56318801D01*
X150649770Y-56946217D01*
X150509464Y-57034379D01*
X150384379Y-57159464D01*
X150296217Y-57299770D01*
X149668801Y-56672354D01*
X149662992Y-56679156D01*
X149527294Y-56900597D01*
X149427903Y-57140544D01*
X149367275Y-57393083D01*
X149346898Y-57651999D01*
X148165442Y-57651999D01*
X147980881Y-57596473D01*
X147709269Y-57556500D01*
X147503453Y-57556500D01*
X147501204Y-57556664D01*
X147501193Y-57556665D01*
X147298194Y-57571522D01*
X147030225Y-57631215D01*
X146773803Y-57729288D01*
X146534391Y-57863653D01*
X146317094Y-58031443D01*
X146126545Y-58229083D01*
X145966802Y-58452364D01*
X145841272Y-58696521D01*
X145752629Y-58956352D01*
X145702763Y-59226325D01*
X145692737Y-59500678D01*
X141732500Y-59500678D01*
X141732500Y-55881641D01*
X141732542Y-55878395D01*
X141733652Y-55836011D01*
X141746990Y-55326607D01*
X141750706Y-55189471D01*
X141751036Y-55183226D01*
X141784408Y-54759195D01*
X141806461Y-54488368D01*
X141807106Y-54482317D01*
X141859170Y-54086851D01*
X141899451Y-53791209D01*
X141900373Y-53785472D01*
X141970998Y-53404416D01*
X142029411Y-53100001D01*
X142030578Y-53094592D01*
X142119614Y-52723730D01*
X142195947Y-52416794D01*
X142197374Y-52411550D01*
X142304577Y-52049638D01*
X142398632Y-51743318D01*
X142400256Y-51738409D01*
X142525390Y-51385044D01*
X142542074Y-51339629D01*
X142636837Y-51081686D01*
X142638606Y-51077157D01*
X142781418Y-50732379D01*
X142825882Y-50629016D01*
X142909902Y-50433695D01*
X142911834Y-50429433D01*
X142945064Y-50359764D01*
X147497787Y-50359764D01*
X147527413Y-50629016D01*
X147527414Y-50629018D01*
X147595928Y-50891088D01*
X147699650Y-51135166D01*
X147701871Y-51140392D01*
X147842982Y-51371611D01*
X147932253Y-51478881D01*
X148016255Y-51579820D01*
X148217998Y-51760582D01*
X148443910Y-51910044D01*
X148533568Y-51952074D01*
X148689177Y-52025021D01*
X148940984Y-52100778D01*
X148948569Y-52103060D01*
X149216561Y-52142500D01*
X149216564Y-52142500D01*
X149417369Y-52142500D01*
X149419631Y-52142500D01*
X149622156Y-52127677D01*
X149886553Y-52068780D01*
X150139558Y-51972014D01*
X150375777Y-51839441D01*
X150590177Y-51673888D01*
X150778186Y-51478881D01*
X150935799Y-51258579D01*
X151059656Y-51017675D01*
X151147118Y-50761305D01*
X151196319Y-50494933D01*
X151206212Y-50224235D01*
X151176586Y-49954982D01*
X151108072Y-49692912D01*
X151002130Y-49443610D01*
X150861018Y-49212390D01*
X150861017Y-49212388D01*
X150687746Y-49004181D01*
X150653568Y-48973557D01*
X150486002Y-48823418D01*
X150260090Y-48673956D01*
X150260086Y-48673954D01*
X150014822Y-48558978D01*
X149755437Y-48480941D01*
X149755431Y-48480940D01*
X149487439Y-48441500D01*
X149284369Y-48441500D01*
X149282120Y-48441664D01*
X149282109Y-48441665D01*
X149081843Y-48456322D01*
X148817449Y-48515219D01*
X148564441Y-48611986D01*
X148328223Y-48744559D01*
X148113825Y-48910109D01*
X147925813Y-49105120D01*
X147768201Y-49325420D01*
X147644342Y-49566329D01*
X147556881Y-49822695D01*
X147507680Y-50089066D01*
X147497787Y-50359764D01*
X142945064Y-50359764D01*
X143071933Y-50093779D01*
X143217084Y-49801110D01*
X143219097Y-49797235D01*
X143396121Y-49471196D01*
X143557427Y-49185891D01*
X143559559Y-49182270D01*
X143753034Y-48866549D01*
X143930037Y-48589631D01*
X143932202Y-48586365D01*
X144141079Y-48282448D01*
X144142333Y-48280663D01*
X144333765Y-48014156D01*
X144336036Y-48011097D01*
X144560217Y-47718939D01*
X144561807Y-47716915D01*
X144767597Y-47460901D01*
X144769769Y-47458280D01*
X145008804Y-47178406D01*
X145010690Y-47176250D01*
X145230124Y-46931658D01*
X145232396Y-46929195D01*
X145485625Y-46662347D01*
X145487741Y-46660176D01*
X145720176Y-46427741D01*
X145722347Y-46425625D01*
X145989195Y-46172396D01*
X145991658Y-46170124D01*
X146236250Y-45950690D01*
X146238406Y-45948804D01*
X146518280Y-45709769D01*
X146520901Y-45707597D01*
X146776915Y-45501807D01*
X146778939Y-45500217D01*
X147071097Y-45276036D01*
X147074156Y-45273765D01*
X147340663Y-45082333D01*
X147342448Y-45081079D01*
X147646351Y-44872211D01*
X147649672Y-44870010D01*
X147926549Y-44693034D01*
X148242245Y-44499574D01*
X148245933Y-44497403D01*
X148531196Y-44336121D01*
X148857212Y-44159109D01*
X148861152Y-44157063D01*
X149153810Y-44011918D01*
X149489433Y-43851834D01*
X149493695Y-43849902D01*
X149792399Y-43721410D01*
X149811381Y-43713547D01*
X150137157Y-43578606D01*
X150141686Y-43576837D01*
X150445006Y-43465403D01*
X150798437Y-43340246D01*
X150803346Y-43338623D01*
X151109638Y-43244577D01*
X151471539Y-43137377D01*
X151476752Y-43135957D01*
X151783734Y-43059613D01*
X152154542Y-42970590D01*
X152160043Y-42969403D01*
X152464416Y-42910998D01*
X152845478Y-42840372D01*
X152851203Y-42839452D01*
X153146851Y-42799170D01*
X153542321Y-42747105D01*
X153548363Y-42746462D01*
X153819195Y-42724408D01*
X154243226Y-42691036D01*
X154249471Y-42690706D01*
X154386841Y-42686984D01*
X154938396Y-42672541D01*
X154941642Y-42672500D01*
X167733304Y-42672500D01*
X167800343Y-42692185D01*
G37*
G04 #@! TD.AperFunction*
G04 #@! TA.AperFunction,Conductor*
G36*
X157455521Y-78836185D02*
G01*
X157476163Y-78852819D01*
X159308017Y-80684673D01*
X159315325Y-80692648D01*
X159340023Y-80722083D01*
X159373302Y-80741296D01*
X159382426Y-80747108D01*
X159414685Y-80769696D01*
X159440029Y-80780194D01*
X159440959Y-80780358D01*
X159440961Y-80780359D01*
X159478825Y-80787034D01*
X159489341Y-80789365D01*
X159526493Y-80799321D01*
X159564773Y-80795971D01*
X159575580Y-80795500D01*
X167876482Y-80795500D01*
X167943521Y-80815185D01*
X167964163Y-80831819D01*
X168684163Y-81551819D01*
X168717648Y-81613142D01*
X168712664Y-81682834D01*
X168670792Y-81738767D01*
X168605328Y-81763184D01*
X168596482Y-81763500D01*
X168474164Y-81763500D01*
X168379443Y-81778501D01*
X168265277Y-81836673D01*
X168174674Y-81927276D01*
X168131484Y-82012041D01*
X168083510Y-82062836D01*
X168015689Y-82079631D01*
X167949554Y-82057093D01*
X167910516Y-82012041D01*
X167867325Y-81927276D01*
X167776722Y-81836673D01*
X167662556Y-81778501D01*
X167567836Y-81763500D01*
X167567834Y-81763500D01*
X167204166Y-81763500D01*
X167204164Y-81763500D01*
X167109443Y-81778501D01*
X166995277Y-81836673D01*
X166904673Y-81927277D01*
X166846501Y-82041443D01*
X166831500Y-82136163D01*
X166831500Y-83849836D01*
X166846501Y-83944556D01*
X166904673Y-84058722D01*
X166995277Y-84149326D01*
X167109443Y-84207498D01*
X167204164Y-84222500D01*
X167204166Y-84222500D01*
X167567836Y-84222500D01*
X167662556Y-84207498D01*
X167719639Y-84178411D01*
X167776723Y-84149326D01*
X167867326Y-84058723D01*
X167910516Y-83973957D01*
X167958490Y-83923163D01*
X168026311Y-83906368D01*
X168092446Y-83928906D01*
X168131483Y-83973956D01*
X168174674Y-84058723D01*
X168174675Y-84058724D01*
X168265277Y-84149326D01*
X168379443Y-84207498D01*
X168474164Y-84222500D01*
X168474166Y-84222500D01*
X168837836Y-84222500D01*
X168932556Y-84207498D01*
X168989639Y-84178411D01*
X169046723Y-84149326D01*
X169137326Y-84058723D01*
X169180516Y-83973957D01*
X169228490Y-83923163D01*
X169296311Y-83906368D01*
X169362446Y-83928906D01*
X169401483Y-83973956D01*
X169444674Y-84058723D01*
X169444675Y-84058724D01*
X169535277Y-84149326D01*
X169649443Y-84207498D01*
X169744164Y-84222500D01*
X169744166Y-84222500D01*
X170107836Y-84222500D01*
X170202556Y-84207498D01*
X170259639Y-84178411D01*
X170316723Y-84149326D01*
X170407326Y-84058723D01*
X170450516Y-83973957D01*
X170498490Y-83923163D01*
X170566311Y-83906368D01*
X170632446Y-83928906D01*
X170671483Y-83973956D01*
X170714674Y-84058723D01*
X170714675Y-84058724D01*
X170805277Y-84149326D01*
X170919443Y-84207498D01*
X171014164Y-84222500D01*
X171014166Y-84222500D01*
X171377836Y-84222500D01*
X171472556Y-84207498D01*
X171529639Y-84178411D01*
X171586723Y-84149326D01*
X171677326Y-84058723D01*
X171720516Y-83973957D01*
X171768490Y-83923163D01*
X171836311Y-83906368D01*
X171902446Y-83928906D01*
X171941483Y-83973956D01*
X171984674Y-84058723D01*
X171984675Y-84058724D01*
X172075277Y-84149326D01*
X172189443Y-84207498D01*
X172284164Y-84222500D01*
X172284166Y-84222500D01*
X172647836Y-84222500D01*
X172742556Y-84207498D01*
X172799639Y-84178411D01*
X172856723Y-84149326D01*
X172947326Y-84058723D01*
X172990516Y-83973957D01*
X173038490Y-83923163D01*
X173106311Y-83906368D01*
X173172446Y-83928906D01*
X173211483Y-83973956D01*
X173254674Y-84058723D01*
X173254675Y-84058724D01*
X173345277Y-84149326D01*
X173459443Y-84207498D01*
X173554164Y-84222500D01*
X173554166Y-84222500D01*
X173917836Y-84222500D01*
X174012556Y-84207498D01*
X174069639Y-84178411D01*
X174126723Y-84149326D01*
X174217326Y-84058723D01*
X174260516Y-83973957D01*
X174308490Y-83923163D01*
X174376311Y-83906368D01*
X174442446Y-83928906D01*
X174481483Y-83973956D01*
X174524674Y-84058723D01*
X174524679Y-84058728D01*
X174558165Y-84120048D01*
X174561000Y-84146410D01*
X174561000Y-85162894D01*
X174541315Y-85229933D01*
X174488511Y-85275688D01*
X174480335Y-85279075D01*
X174365635Y-85321857D01*
X174365634Y-85321857D01*
X174365633Y-85321858D01*
X174261833Y-85399561D01*
X174249496Y-85408796D01*
X174162555Y-85524936D01*
X174156708Y-85540614D01*
X174114835Y-85596546D01*
X174049370Y-85620961D01*
X173981098Y-85606107D01*
X173931694Y-85556701D01*
X173922822Y-85536280D01*
X173894258Y-85450078D01*
X173802216Y-85300854D01*
X173678245Y-85176883D01*
X173529022Y-85084842D01*
X173362596Y-85029693D01*
X173263009Y-85019519D01*
X173256732Y-85019200D01*
X173122400Y-85019200D01*
X173122400Y-86370200D01*
X173102715Y-86437239D01*
X173049911Y-86482994D01*
X172998400Y-86494200D01*
X171784901Y-86494200D01*
X171784901Y-86766029D01*
X171785221Y-86772321D01*
X171785812Y-86778103D01*
X171773040Y-86846795D01*
X171725158Y-86897678D01*
X171662454Y-86914700D01*
X165076029Y-86914700D01*
X165008990Y-86895015D01*
X164988348Y-86878381D01*
X164104167Y-85994200D01*
X171784900Y-85994200D01*
X172622400Y-85994200D01*
X172622400Y-85019200D01*
X172488071Y-85019200D01*
X172481788Y-85019521D01*
X172382204Y-85029693D01*
X172215777Y-85084842D01*
X172066554Y-85176883D01*
X171942583Y-85300854D01*
X171850542Y-85450077D01*
X171795393Y-85616503D01*
X171785219Y-85716090D01*
X171784900Y-85722368D01*
X171784900Y-85994200D01*
X164104167Y-85994200D01*
X157139756Y-79029789D01*
X157106271Y-78968466D01*
X157111255Y-78898774D01*
X157153127Y-78842841D01*
X157216630Y-78818580D01*
X157235036Y-78816970D01*
X157245826Y-78816500D01*
X157388482Y-78816500D01*
X157455521Y-78836185D01*
G37*
G04 #@! TD.AperFunction*
G04 #@! TA.AperFunction,Conductor*
G36*
X162228521Y-62908185D02*
G01*
X162249163Y-62924819D01*
X165531006Y-66206661D01*
X165538314Y-66214636D01*
X165563023Y-66244083D01*
X165584524Y-66256495D01*
X165596312Y-66263301D01*
X165605416Y-66269100D01*
X165636912Y-66291155D01*
X165636914Y-66291155D01*
X165637686Y-66291696D01*
X165663029Y-66302193D01*
X165663956Y-66302356D01*
X165663961Y-66302359D01*
X165701829Y-66309036D01*
X165712363Y-66311372D01*
X165749491Y-66321321D01*
X165749491Y-66321320D01*
X165749492Y-66321321D01*
X165773630Y-66319209D01*
X165787769Y-66317972D01*
X165798577Y-66317500D01*
X168130482Y-66317500D01*
X168197521Y-66337185D01*
X168218163Y-66353819D01*
X168470506Y-66606162D01*
X168684164Y-66819819D01*
X168717649Y-66881142D01*
X168712665Y-66950833D01*
X168670794Y-67006767D01*
X168605329Y-67031184D01*
X168596483Y-67031500D01*
X168474164Y-67031500D01*
X168379443Y-67046501D01*
X168265277Y-67104673D01*
X168174674Y-67195276D01*
X168131484Y-67280041D01*
X168083510Y-67330836D01*
X168015689Y-67347631D01*
X167949554Y-67325093D01*
X167910516Y-67280041D01*
X167895007Y-67249604D01*
X167867326Y-67195277D01*
X167776723Y-67104674D01*
X167776723Y-67104673D01*
X167776722Y-67104673D01*
X167662556Y-67046501D01*
X167567836Y-67031500D01*
X167567834Y-67031500D01*
X167204166Y-67031500D01*
X167204164Y-67031500D01*
X167109443Y-67046501D01*
X166995277Y-67104673D01*
X166904673Y-67195277D01*
X166846501Y-67309443D01*
X166831500Y-67404163D01*
X166831500Y-69117836D01*
X166846501Y-69212556D01*
X166904673Y-69326722D01*
X166995277Y-69417326D01*
X167109443Y-69475498D01*
X167204164Y-69490500D01*
X167204166Y-69490500D01*
X167567836Y-69490500D01*
X167662556Y-69475498D01*
X167728023Y-69442140D01*
X167776723Y-69417326D01*
X167867326Y-69326723D01*
X167910516Y-69241957D01*
X167958490Y-69191163D01*
X168026311Y-69174368D01*
X168092446Y-69196906D01*
X168131483Y-69241956D01*
X168174674Y-69326723D01*
X168174675Y-69326724D01*
X168265277Y-69417326D01*
X168379443Y-69475498D01*
X168474164Y-69490500D01*
X168474166Y-69490500D01*
X168837836Y-69490500D01*
X168932556Y-69475498D01*
X168998023Y-69442140D01*
X169046723Y-69417326D01*
X169137326Y-69326723D01*
X169180516Y-69241957D01*
X169228490Y-69191163D01*
X169296311Y-69174368D01*
X169362446Y-69196906D01*
X169401483Y-69241956D01*
X169444674Y-69326723D01*
X169444675Y-69326724D01*
X169535277Y-69417326D01*
X169649443Y-69475498D01*
X169744164Y-69490500D01*
X169744166Y-69490500D01*
X170107836Y-69490500D01*
X170202556Y-69475498D01*
X170268023Y-69442140D01*
X170316723Y-69417326D01*
X170407326Y-69326723D01*
X170450516Y-69241957D01*
X170498490Y-69191163D01*
X170566311Y-69174368D01*
X170632446Y-69196906D01*
X170671483Y-69241956D01*
X170714674Y-69326723D01*
X170714675Y-69326724D01*
X170805277Y-69417326D01*
X170919443Y-69475498D01*
X171014164Y-69490500D01*
X171014166Y-69490500D01*
X171377836Y-69490500D01*
X171472556Y-69475498D01*
X171538023Y-69442140D01*
X171586723Y-69417326D01*
X171677326Y-69326723D01*
X171720516Y-69241957D01*
X171768490Y-69191163D01*
X171836311Y-69174368D01*
X171902446Y-69196906D01*
X171941483Y-69241956D01*
X171984674Y-69326723D01*
X171984675Y-69326724D01*
X172075277Y-69417326D01*
X172189443Y-69475498D01*
X172284164Y-69490500D01*
X172284166Y-69490500D01*
X172647836Y-69490500D01*
X172742556Y-69475498D01*
X172808023Y-69442140D01*
X172856723Y-69417326D01*
X172947326Y-69326723D01*
X172990516Y-69241957D01*
X173038490Y-69191163D01*
X173106311Y-69174368D01*
X173172446Y-69196906D01*
X173211483Y-69241956D01*
X173254674Y-69326723D01*
X173254675Y-69326724D01*
X173345277Y-69417326D01*
X173459443Y-69475498D01*
X173554164Y-69490500D01*
X173554166Y-69490500D01*
X173917836Y-69490500D01*
X174012556Y-69475498D01*
X174050611Y-69456107D01*
X174126723Y-69417326D01*
X174158819Y-69385229D01*
X174220140Y-69351745D01*
X174289831Y-69356729D01*
X174345765Y-69398599D01*
X174370183Y-69464064D01*
X174370499Y-69472911D01*
X174370499Y-70524145D01*
X174350814Y-70591184D01*
X174320810Y-70623411D01*
X174268075Y-70662888D01*
X174249496Y-70676796D01*
X174162555Y-70792936D01*
X174156708Y-70808614D01*
X174114835Y-70864546D01*
X174049370Y-70888961D01*
X173981098Y-70874107D01*
X173931694Y-70824701D01*
X173922822Y-70804280D01*
X173894258Y-70718078D01*
X173802216Y-70568854D01*
X173678245Y-70444883D01*
X173529022Y-70352842D01*
X173362596Y-70297693D01*
X173263009Y-70287519D01*
X173256732Y-70287200D01*
X173122400Y-70287200D01*
X173122400Y-71638200D01*
X173102715Y-71705239D01*
X173049911Y-71750994D01*
X172998400Y-71762200D01*
X171784901Y-71762200D01*
X171784901Y-72034029D01*
X171785221Y-72040311D01*
X171795393Y-72139895D01*
X171850542Y-72306323D01*
X171863545Y-72327403D01*
X171881986Y-72394795D01*
X171861064Y-72461459D01*
X171807422Y-72506228D01*
X171758007Y-72516500D01*
X164144594Y-72516500D01*
X164077555Y-72496815D01*
X164056913Y-72480181D01*
X163833879Y-72257146D01*
X163804518Y-72210419D01*
X163752082Y-72060563D01*
X163722505Y-72013492D01*
X163703500Y-71947521D01*
X163703500Y-71262200D01*
X171784900Y-71262200D01*
X172622400Y-71262200D01*
X172622400Y-70287200D01*
X172488071Y-70287200D01*
X172481788Y-70287521D01*
X172382204Y-70297693D01*
X172215777Y-70352842D01*
X172066554Y-70444883D01*
X171942583Y-70568854D01*
X171850542Y-70718077D01*
X171795393Y-70884503D01*
X171785219Y-70984090D01*
X171784900Y-70990368D01*
X171784900Y-71262200D01*
X163703500Y-71262200D01*
X163703500Y-70727849D01*
X163705795Y-70707057D01*
X163703561Y-70635968D01*
X163703500Y-70632073D01*
X163703500Y-70607908D01*
X163703500Y-70604017D01*
X163702977Y-70599884D01*
X163702060Y-70588229D01*
X163701977Y-70585599D01*
X163700664Y-70543795D01*
X163694942Y-70524101D01*
X163690997Y-70505055D01*
X163688427Y-70484701D01*
X163672056Y-70443354D01*
X163668271Y-70432299D01*
X163667397Y-70429289D01*
X163655869Y-70389607D01*
X163645429Y-70371955D01*
X163636871Y-70354485D01*
X163629319Y-70335411D01*
X163603180Y-70299434D01*
X163596766Y-70289670D01*
X163577247Y-70256665D01*
X163574134Y-70251401D01*
X163559632Y-70236900D01*
X163546995Y-70222103D01*
X163534942Y-70205513D01*
X163504026Y-70179937D01*
X163500673Y-70177163D01*
X163492034Y-70169301D01*
X163418818Y-70096085D01*
X163385333Y-70034762D01*
X163382499Y-70008404D01*
X163382499Y-69609057D01*
X163382499Y-69609054D01*
X163382499Y-69605746D01*
X163376040Y-69545658D01*
X163325342Y-69409733D01*
X163238404Y-69293596D01*
X163224923Y-69283505D01*
X163213189Y-69274720D01*
X163171318Y-69218786D01*
X163163500Y-69175453D01*
X163163500Y-66849087D01*
X163165796Y-66828294D01*
X163163561Y-66757171D01*
X163163500Y-66753276D01*
X163163500Y-66729151D01*
X163163500Y-66729150D01*
X163163500Y-66725252D01*
X163162979Y-66721136D01*
X163162061Y-66709475D01*
X163160665Y-66665030D01*
X163154942Y-66645333D01*
X163150998Y-66626290D01*
X163148427Y-66605936D01*
X163132048Y-66564569D01*
X163128280Y-66553560D01*
X163115869Y-66510842D01*
X163105424Y-66493181D01*
X163096869Y-66475717D01*
X163089319Y-66456648D01*
X163089319Y-66456647D01*
X163063178Y-66420667D01*
X163056770Y-66410912D01*
X163034134Y-66372637D01*
X163028917Y-66367420D01*
X163019632Y-66358135D01*
X163007000Y-66343344D01*
X162994941Y-66326747D01*
X162960670Y-66298394D01*
X162952031Y-66290533D01*
X160468423Y-63806925D01*
X160455341Y-63790596D01*
X160403482Y-63741898D01*
X160400685Y-63739187D01*
X160383618Y-63722120D01*
X160380859Y-63719361D01*
X160377783Y-63716975D01*
X160377774Y-63716967D01*
X160377567Y-63716807D01*
X160368681Y-63709218D01*
X160336273Y-63678784D01*
X160332960Y-63676963D01*
X160318296Y-63668901D01*
X160302039Y-63658222D01*
X160285832Y-63645650D01*
X160254901Y-63632265D01*
X160245018Y-63627988D01*
X160234534Y-63622852D01*
X160209589Y-63609139D01*
X160195565Y-63601429D01*
X160175707Y-63596331D01*
X160157299Y-63590029D01*
X160138473Y-63581882D01*
X160094553Y-63574926D01*
X160083115Y-63572558D01*
X160040047Y-63561500D01*
X160040046Y-63561500D01*
X160019539Y-63561500D01*
X160000115Y-63559969D01*
X159999525Y-63559875D01*
X159996533Y-63559401D01*
X159933405Y-63529457D01*
X159896487Y-63470137D01*
X159897500Y-63400275D01*
X159910962Y-63370963D01*
X159942082Y-63321437D01*
X159998237Y-63160954D01*
X160009319Y-63062602D01*
X160016529Y-62998616D01*
X160043596Y-62934202D01*
X160101191Y-62894647D01*
X160139749Y-62888500D01*
X162161482Y-62888500D01*
X162228521Y-62908185D01*
G37*
G04 #@! TD.AperFunction*
G04 #@! TA.AperFunction,Conductor*
G36*
X163367834Y-49215411D02*
G01*
X163423767Y-49257283D01*
X163448184Y-49322747D01*
X163448500Y-49331593D01*
X163448500Y-49446151D01*
X163446204Y-49466942D01*
X163448439Y-49538043D01*
X163448500Y-49541938D01*
X163448500Y-49569983D01*
X163448985Y-49573828D01*
X163448987Y-49573852D01*
X163449022Y-49574122D01*
X163449937Y-49585748D01*
X163451334Y-49630207D01*
X163457056Y-49649902D01*
X163461001Y-49668948D01*
X163463572Y-49689300D01*
X163479940Y-49730642D01*
X163483722Y-49741689D01*
X163496129Y-49784389D01*
X163496130Y-49784391D01*
X163496131Y-49784393D01*
X163501516Y-49793498D01*
X163506570Y-49802045D01*
X163515127Y-49819513D01*
X163522679Y-49838586D01*
X163548825Y-49874573D01*
X163555225Y-49884315D01*
X163577866Y-49922598D01*
X163577868Y-49922599D01*
X163577868Y-49922600D01*
X163592364Y-49937096D01*
X163605001Y-49951892D01*
X163617057Y-49968486D01*
X163651324Y-49996834D01*
X163659965Y-50004697D01*
X165607341Y-51952074D01*
X165620429Y-51968409D01*
X165672280Y-52017100D01*
X165675078Y-52019811D01*
X165694906Y-52039639D01*
X165697986Y-52042028D01*
X165698187Y-52042184D01*
X165707075Y-52049773D01*
X165739494Y-52080217D01*
X165757461Y-52090094D01*
X165773724Y-52100776D01*
X165789933Y-52113350D01*
X165830746Y-52131011D01*
X165841232Y-52136148D01*
X165880193Y-52157567D01*
X165880197Y-52157569D01*
X165900067Y-52162670D01*
X165918462Y-52168968D01*
X165937292Y-52177117D01*
X165981219Y-52184073D01*
X165992642Y-52186439D01*
X166035718Y-52197500D01*
X166056226Y-52197500D01*
X166075624Y-52199026D01*
X166095879Y-52202235D01*
X166140150Y-52198050D01*
X166151820Y-52197500D01*
X166871089Y-52197500D01*
X166938128Y-52217185D01*
X166983883Y-52269989D01*
X166993827Y-52339147D01*
X166964802Y-52402703D01*
X166958770Y-52409181D01*
X166904673Y-52463277D01*
X166846501Y-52577443D01*
X166831500Y-52672163D01*
X166831500Y-54385836D01*
X166846501Y-54480556D01*
X166904673Y-54594722D01*
X166995277Y-54685326D01*
X167109443Y-54743498D01*
X167204164Y-54758500D01*
X167361225Y-54758500D01*
X167428264Y-54778185D01*
X167474019Y-54830989D01*
X167483963Y-54900147D01*
X167454938Y-54963703D01*
X167448906Y-54970181D01*
X166852907Y-55566181D01*
X166791584Y-55599666D01*
X166765226Y-55602500D01*
X162390500Y-55602500D01*
X162323461Y-55582815D01*
X162277706Y-55530011D01*
X162266500Y-55478500D01*
X162266500Y-55410393D01*
X162266510Y-55410325D01*
X162266507Y-55390249D01*
X162266508Y-55390247D01*
X162266507Y-55389317D01*
X162266553Y-55389160D01*
X162266546Y-55337901D01*
X162266547Y-55337901D01*
X162266537Y-55266863D01*
X162234903Y-55128352D01*
X162173244Y-55000352D01*
X162173243Y-55000351D01*
X162173243Y-55000350D01*
X162084650Y-54889278D01*
X161973565Y-54800704D01*
X161973564Y-54800703D01*
X161907193Y-54768744D01*
X161845555Y-54739064D01*
X161799382Y-54728526D01*
X161707039Y-54707452D01*
X161707037Y-54707452D01*
X161635999Y-54707453D01*
X161565170Y-54707453D01*
X161564968Y-54707499D01*
X161564967Y-54707499D01*
X161517148Y-54718412D01*
X161426459Y-54739108D01*
X161298461Y-54800742D01*
X161187381Y-54889314D01*
X161098796Y-55000375D01*
X161037140Y-55128369D01*
X161005509Y-55266866D01*
X161005505Y-55298764D01*
X161005500Y-55298830D01*
X161005500Y-55337901D01*
X161005489Y-55410325D01*
X161005500Y-55410393D01*
X161005500Y-55478500D01*
X160985815Y-55545539D01*
X160933011Y-55591294D01*
X160881500Y-55602500D01*
X160384059Y-55602500D01*
X160317020Y-55582815D01*
X160271265Y-55530011D01*
X160260839Y-55464616D01*
X160271274Y-55372000D01*
X160264177Y-55309017D01*
X160252237Y-55203046D01*
X160196082Y-55042563D01*
X160105624Y-54898600D01*
X160105623Y-54898599D01*
X160105622Y-54898597D01*
X159985402Y-54778377D01*
X159841437Y-54687918D01*
X159680951Y-54631762D01*
X159511999Y-54612725D01*
X159343048Y-54631762D01*
X159182562Y-54687918D01*
X159038597Y-54778377D01*
X158918377Y-54898597D01*
X158827918Y-55042562D01*
X158771762Y-55203048D01*
X158752725Y-55371999D01*
X158771762Y-55540951D01*
X158771762Y-55540953D01*
X158771763Y-55540954D01*
X158780590Y-55566181D01*
X158827918Y-55701437D01*
X158918377Y-55845402D01*
X159038597Y-55965622D01*
X159114670Y-56013422D01*
X159160961Y-56065757D01*
X159171610Y-56134810D01*
X159143234Y-56198658D01*
X159136382Y-56206094D01*
X159132767Y-56209709D01*
X159042307Y-56353675D01*
X158986151Y-56514161D01*
X158967114Y-56683112D01*
X158986151Y-56852064D01*
X159042307Y-57012550D01*
X159132766Y-57156515D01*
X159252986Y-57276735D01*
X159252988Y-57276736D01*
X159252989Y-57276737D01*
X159396952Y-57367195D01*
X159557435Y-57423350D01*
X159670071Y-57436041D01*
X159726388Y-57442387D01*
X159726388Y-57442386D01*
X159726389Y-57442387D01*
X159895343Y-57423350D01*
X160055826Y-57367195D01*
X160199789Y-57276737D01*
X160320013Y-57156513D01*
X160399381Y-57030200D01*
X171784901Y-57030200D01*
X171784901Y-57302029D01*
X171785221Y-57308311D01*
X171795393Y-57407895D01*
X171850542Y-57574322D01*
X171942583Y-57723545D01*
X172066554Y-57847516D01*
X172215777Y-57939557D01*
X172382203Y-57994706D01*
X172481790Y-58004880D01*
X172488068Y-58005199D01*
X172622399Y-58005199D01*
X172622400Y-58005198D01*
X172622400Y-57030200D01*
X171784901Y-57030200D01*
X160399381Y-57030200D01*
X160410471Y-57012550D01*
X160466626Y-56852067D01*
X160475240Y-56775616D01*
X160502306Y-56711203D01*
X160559901Y-56671647D01*
X160598460Y-56665500D01*
X167100164Y-56665500D01*
X167110972Y-56665972D01*
X167113007Y-56666150D01*
X167149249Y-56669321D01*
X167186381Y-56659370D01*
X167196928Y-56657033D01*
X167206926Y-56655269D01*
X167234781Y-56650359D01*
X167234782Y-56650358D01*
X167235708Y-56650195D01*
X167261057Y-56639695D01*
X167261827Y-56639155D01*
X167261830Y-56639155D01*
X167293327Y-56617099D01*
X167302418Y-56611307D01*
X167335718Y-56592083D01*
X167360427Y-56562634D01*
X167367714Y-56554682D01*
X167392196Y-56530200D01*
X171784900Y-56530200D01*
X172622400Y-56530200D01*
X172622400Y-55555200D01*
X172488071Y-55555200D01*
X172481788Y-55555521D01*
X172382204Y-55565693D01*
X172215777Y-55620842D01*
X172066554Y-55712883D01*
X171942583Y-55836854D01*
X171850542Y-55986077D01*
X171795393Y-56152503D01*
X171785219Y-56252090D01*
X171784900Y-56258368D01*
X171784900Y-56530200D01*
X167392196Y-56530200D01*
X168775578Y-55146819D01*
X168836902Y-55113334D01*
X168863260Y-55110500D01*
X168962619Y-55110500D01*
X168973427Y-55110972D01*
X168975665Y-55111167D01*
X169011704Y-55114321D01*
X169048836Y-55104370D01*
X169059383Y-55102033D01*
X169069381Y-55100269D01*
X169097236Y-55095359D01*
X169097237Y-55095358D01*
X169098163Y-55095195D01*
X169123512Y-55084695D01*
X169124282Y-55084155D01*
X169124285Y-55084155D01*
X169155782Y-55062099D01*
X169164873Y-55056307D01*
X169198173Y-55037083D01*
X169222882Y-55007634D01*
X169230169Y-54999682D01*
X169451682Y-54778169D01*
X169459635Y-54770881D01*
X169488784Y-54746423D01*
X169552789Y-54718412D01*
X169621781Y-54729452D01*
X169624725Y-54730902D01*
X169649445Y-54743498D01*
X169696805Y-54750999D01*
X169744164Y-54758500D01*
X169744166Y-54758500D01*
X170107836Y-54758500D01*
X170202556Y-54743498D01*
X170273206Y-54707499D01*
X170316723Y-54685326D01*
X170407326Y-54594723D01*
X170450516Y-54509957D01*
X170498490Y-54459163D01*
X170566311Y-54442368D01*
X170632446Y-54464906D01*
X170671483Y-54509956D01*
X170714674Y-54594723D01*
X170714675Y-54594724D01*
X170805277Y-54685326D01*
X170919443Y-54743498D01*
X171014164Y-54758500D01*
X171014166Y-54758500D01*
X171377836Y-54758500D01*
X171472556Y-54743498D01*
X171543206Y-54707499D01*
X171586723Y-54685326D01*
X171677326Y-54594723D01*
X171720516Y-54509957D01*
X171768490Y-54459163D01*
X171836311Y-54442368D01*
X171902446Y-54464906D01*
X171941483Y-54509956D01*
X171984674Y-54594723D01*
X171984675Y-54594724D01*
X172075277Y-54685326D01*
X172189443Y-54743498D01*
X172284164Y-54758500D01*
X172284166Y-54758500D01*
X172647836Y-54758500D01*
X172742556Y-54743498D01*
X172813206Y-54707499D01*
X172856723Y-54685326D01*
X172947326Y-54594723D01*
X172990516Y-54509957D01*
X173038490Y-54459163D01*
X173106311Y-54442368D01*
X173172446Y-54464906D01*
X173211483Y-54509956D01*
X173254674Y-54594723D01*
X173254675Y-54594724D01*
X173345277Y-54685326D01*
X173459443Y-54743498D01*
X173554164Y-54758500D01*
X173554166Y-54758500D01*
X173917836Y-54758500D01*
X173995665Y-54746173D01*
X174012555Y-54743498D01*
X174126723Y-54685326D01*
X174126724Y-54685324D01*
X174131604Y-54682838D01*
X174200273Y-54669941D01*
X174265014Y-54696217D01*
X174305271Y-54753323D01*
X174311900Y-54793322D01*
X174311900Y-55836011D01*
X174292215Y-55903050D01*
X174262210Y-55935278D01*
X174249498Y-55944793D01*
X174162555Y-56060936D01*
X174156708Y-56076614D01*
X174114835Y-56132546D01*
X174049370Y-56156961D01*
X173981098Y-56142107D01*
X173931694Y-56092701D01*
X173922822Y-56072280D01*
X173894258Y-55986078D01*
X173802216Y-55836854D01*
X173678245Y-55712883D01*
X173529022Y-55620842D01*
X173362596Y-55565693D01*
X173263009Y-55555519D01*
X173256732Y-55555200D01*
X173122400Y-55555200D01*
X173122400Y-58005199D01*
X173256729Y-58005199D01*
X173263011Y-58004878D01*
X173362595Y-57994706D01*
X173529022Y-57939557D01*
X173678245Y-57847516D01*
X173802216Y-57723545D01*
X173894257Y-57574321D01*
X173922822Y-57488119D01*
X173962594Y-57430674D01*
X174027109Y-57403850D01*
X174095885Y-57416165D01*
X174147086Y-57463707D01*
X174156709Y-57483786D01*
X174162558Y-57499467D01*
X174249496Y-57615604D01*
X174262209Y-57625120D01*
X174304081Y-57681051D01*
X174311900Y-57724388D01*
X174311900Y-58168500D01*
X174292215Y-58235539D01*
X174239411Y-58281294D01*
X174187900Y-58292500D01*
X163431404Y-58292500D01*
X163364365Y-58272815D01*
X163332136Y-58242810D01*
X163325342Y-58233735D01*
X163325342Y-58233733D01*
X163238404Y-58117596D01*
X163122267Y-58030658D01*
X163122264Y-58030657D01*
X163122263Y-58030656D01*
X162986345Y-57979960D01*
X162929541Y-57973853D01*
X162929535Y-57973852D01*
X162926255Y-57973500D01*
X162922945Y-57973500D01*
X162133057Y-57973500D01*
X162133038Y-57973500D01*
X162129746Y-57973501D01*
X162126468Y-57973853D01*
X162126456Y-57973854D01*
X162069658Y-57979960D01*
X161933733Y-58030658D01*
X161817596Y-58117596D01*
X161749716Y-58208275D01*
X161730656Y-58233736D01*
X161679960Y-58369654D01*
X161673853Y-58426458D01*
X161673500Y-58429745D01*
X161673500Y-58433053D01*
X161673500Y-58433054D01*
X161673500Y-59422942D01*
X161673500Y-59422960D01*
X161673501Y-59426254D01*
X161673853Y-59429532D01*
X161673854Y-59429543D01*
X161677481Y-59463279D01*
X161679960Y-59486342D01*
X161730658Y-59622267D01*
X161817596Y-59738404D01*
X161891507Y-59793732D01*
X161933379Y-59849666D01*
X161938363Y-59919357D01*
X161904879Y-59980681D01*
X161843556Y-60014166D01*
X161817197Y-60017000D01*
X161238803Y-60017000D01*
X161171764Y-59997315D01*
X161126009Y-59944511D01*
X161116065Y-59875353D01*
X161145090Y-59811797D01*
X161164490Y-59793734D01*
X161238404Y-59738404D01*
X161325342Y-59622267D01*
X161376040Y-59486342D01*
X161382500Y-59426255D01*
X161382499Y-58429746D01*
X161376040Y-58369658D01*
X161325342Y-58233733D01*
X161238404Y-58117596D01*
X161122267Y-58030658D01*
X161122264Y-58030657D01*
X161122263Y-58030656D01*
X160986345Y-57979960D01*
X160929541Y-57973853D01*
X160929535Y-57973852D01*
X160926255Y-57973500D01*
X160922945Y-57973500D01*
X160133057Y-57973500D01*
X160133038Y-57973500D01*
X160129746Y-57973501D01*
X160126468Y-57973853D01*
X160126456Y-57973854D01*
X160069658Y-57979960D01*
X159933733Y-58030658D01*
X159817596Y-58117596D01*
X159749716Y-58208275D01*
X159730656Y-58233736D01*
X159674516Y-58384251D01*
X159673091Y-58383719D01*
X159653588Y-58430806D01*
X159596196Y-58470654D01*
X159557036Y-58477000D01*
X157687455Y-58477000D01*
X157620416Y-58457315D01*
X157578097Y-58411453D01*
X157563557Y-58384251D01*
X157551252Y-58361230D01*
X157425725Y-58208275D01*
X157272770Y-58082748D01*
X157272769Y-58082747D01*
X157098267Y-57989474D01*
X157098266Y-57989473D01*
X157098265Y-57989473D01*
X157003590Y-57960753D01*
X156908914Y-57932034D01*
X156712000Y-57912640D01*
X156515085Y-57932034D01*
X156325732Y-57989474D01*
X156151230Y-58082747D01*
X155998275Y-58208275D01*
X155872747Y-58361231D01*
X155808858Y-58480759D01*
X155759896Y-58530604D01*
X155691758Y-58546064D01*
X155626078Y-58522232D01*
X155583710Y-58466675D01*
X155575500Y-58422306D01*
X155575500Y-56956593D01*
X155595185Y-56889554D01*
X155611814Y-56868917D01*
X163236819Y-49243911D01*
X163298142Y-49210427D01*
X163367834Y-49215411D01*
G37*
G04 #@! TD.AperFunction*
G04 #@! TA.AperFunction,Conductor*
G36*
X172470645Y-44089185D02*
G01*
X172491287Y-44105819D01*
X172823487Y-44438019D01*
X172856972Y-44499342D01*
X172851988Y-44569034D01*
X172810116Y-44624967D01*
X172744652Y-44649384D01*
X172735807Y-44649700D01*
X172493457Y-44649700D01*
X172493438Y-44649700D01*
X172490146Y-44649701D01*
X172486868Y-44650053D01*
X172486856Y-44650054D01*
X172430058Y-44656160D01*
X172294133Y-44706858D01*
X172177996Y-44793796D01*
X172091056Y-44909936D01*
X172040360Y-45045854D01*
X172034253Y-45102658D01*
X172033900Y-45105945D01*
X172033900Y-45109254D01*
X172033900Y-45893055D01*
X172026943Y-45934005D01*
X172021806Y-45948685D01*
X172021000Y-45953433D01*
X172021000Y-46015975D01*
X172020913Y-46020611D01*
X172018575Y-46083090D01*
X172021000Y-46101506D01*
X172021000Y-47425588D01*
X172001315Y-47492627D01*
X171984684Y-47513266D01*
X171984674Y-47513275D01*
X171941483Y-47598041D01*
X171893508Y-47648837D01*
X171825687Y-47665631D01*
X171759552Y-47643093D01*
X171720517Y-47598043D01*
X171677326Y-47513277D01*
X171586723Y-47422674D01*
X171586722Y-47422673D01*
X171472556Y-47364501D01*
X171377836Y-47349500D01*
X171377834Y-47349500D01*
X171014166Y-47349500D01*
X171014164Y-47349500D01*
X170919443Y-47364501D01*
X170805277Y-47422673D01*
X170714674Y-47513276D01*
X170671484Y-47598041D01*
X170623510Y-47648836D01*
X170555689Y-47665631D01*
X170489554Y-47643093D01*
X170450516Y-47598041D01*
X170407325Y-47513276D01*
X170316722Y-47422673D01*
X170202556Y-47364501D01*
X170107836Y-47349500D01*
X170107834Y-47349500D01*
X169744166Y-47349500D01*
X169744164Y-47349500D01*
X169649443Y-47364501D01*
X169517778Y-47431590D01*
X169516915Y-47429897D01*
X169480121Y-47449985D01*
X169410430Y-47444996D01*
X169354499Y-47403121D01*
X169347038Y-47391936D01*
X169323682Y-47352442D01*
X169207557Y-47236317D01*
X169066200Y-47152719D01*
X168908487Y-47106900D01*
X168906000Y-47106703D01*
X168906000Y-50051295D01*
X168908488Y-50051099D01*
X169066200Y-50005280D01*
X169207557Y-49921682D01*
X169323679Y-49805560D01*
X169347037Y-49766063D01*
X169398106Y-49718379D01*
X169466847Y-49705873D01*
X169517578Y-49726801D01*
X169517778Y-49726410D01*
X169522657Y-49728896D01*
X169531437Y-49732518D01*
X169533635Y-49734489D01*
X169535276Y-49735325D01*
X169535277Y-49735326D01*
X169547765Y-49741689D01*
X169649443Y-49793498D01*
X169744164Y-49808500D01*
X169744166Y-49808500D01*
X169825825Y-49808500D01*
X169892864Y-49828185D01*
X169913506Y-49844819D01*
X170783506Y-50714819D01*
X170816991Y-50776142D01*
X170812007Y-50845834D01*
X170770135Y-50901767D01*
X170704671Y-50926184D01*
X170695825Y-50926500D01*
X166430594Y-50926500D01*
X166363555Y-50906815D01*
X166342913Y-50890181D01*
X164755819Y-49303086D01*
X164722334Y-49241763D01*
X164719500Y-49215405D01*
X164719500Y-48829000D01*
X166586000Y-48829000D01*
X166586000Y-49467196D01*
X166586191Y-49472076D01*
X166588900Y-49506493D01*
X166634717Y-49664197D01*
X166718317Y-49805557D01*
X166834442Y-49921682D01*
X166975799Y-50005280D01*
X167133511Y-50051099D01*
X167135999Y-50051295D01*
X167136000Y-50051294D01*
X167136000Y-48829000D01*
X167636000Y-48829000D01*
X167636000Y-50051295D01*
X167638488Y-50051099D01*
X167796200Y-50005280D01*
X167951040Y-49913709D01*
X167952173Y-49915625D01*
X167994633Y-49892437D01*
X168064325Y-49897416D01*
X168090606Y-49914306D01*
X168090960Y-49913709D01*
X168245799Y-50005280D01*
X168403511Y-50051099D01*
X168405999Y-50051295D01*
X168406000Y-50051294D01*
X168406000Y-48829000D01*
X167636000Y-48829000D01*
X167136000Y-48829000D01*
X166586000Y-48829000D01*
X164719500Y-48829000D01*
X164719500Y-48329000D01*
X166586000Y-48329000D01*
X167136000Y-48329000D01*
X167636000Y-48329000D01*
X168406000Y-48329000D01*
X168406000Y-47106703D01*
X168403512Y-47106900D01*
X168245799Y-47152719D01*
X168090960Y-47244291D01*
X168089826Y-47242374D01*
X168047358Y-47265564D01*
X167977666Y-47260580D01*
X167951392Y-47243694D01*
X167951040Y-47244291D01*
X167796200Y-47152719D01*
X167638487Y-47106900D01*
X167636000Y-47106703D01*
X167636000Y-48329000D01*
X167136000Y-48329000D01*
X167136000Y-47106703D01*
X167133512Y-47106900D01*
X166975799Y-47152719D01*
X166834442Y-47236317D01*
X166718317Y-47352442D01*
X166634717Y-47493802D01*
X166588900Y-47651506D01*
X166586191Y-47685923D01*
X166586000Y-47690803D01*
X166586000Y-48329000D01*
X164719500Y-48329000D01*
X164719500Y-47812593D01*
X164739185Y-47745554D01*
X164755814Y-47724916D01*
X164942638Y-47538094D01*
X164942637Y-47538094D01*
X165001206Y-47479525D01*
X165001205Y-47479525D01*
X168374913Y-44105819D01*
X168436237Y-44072334D01*
X168462595Y-44069500D01*
X172403606Y-44069500D01*
X172470645Y-44089185D01*
G37*
G04 #@! TD.AperFunction*
G04 #@! TD*
M02*
